<svg width="146" height="44" viewBox="0 0 146 44" fill="none" xmlns="http://www.w3.org/2000/svg">
<rect width="146" height="44" fill="#F5F5F5"/>
<rect width="1440" height="1002" transform="translate(-140 -626)" fill="#2D2D2D"/>
<path d="M140.593 44H5.40741C2.37926 44 0 41.58 0 38.5V5.5C0 2.42 2.37926 0 5.40741 0H140.593C143.621 0 146 2.42 146 5.5V38.5C146 41.58 143.621 44 140.593 44Z" fill="white" fill-opacity="0.12"/>
<path d="M140.593 43.75H5.40741C2.52132 43.75 0.25 41.4459 0.25 38.5V5.5C0.25 2.55405 2.52132 0.25 5.40741 0.25H140.593C143.479 0.25 145.75 2.55405 145.75 5.5V38.5C145.75 41.4459 143.479 43.75 140.593 43.75Z" stroke="white" stroke-opacity="0.4" stroke-width="0.5"/>
<path d="M52.3156 11.22C52.3156 12.1 52.0948 12.87 51.543 13.42C50.8808 14.08 50.1082 14.41 49.1148 14.41C48.1215 14.41 47.3489 14.08 46.6867 13.42C46.0245 12.76 45.6934 11.99 45.6934 11C45.6934 10.01 46.0245 9.23997 46.6867 8.57997C47.3489 7.91997 48.1215 7.58997 49.1148 7.58997C49.5563 7.58997 49.9978 7.69997 50.4393 7.91997C50.8808 8.13997 51.2119 8.35997 51.4326 8.68997L50.8808 9.23997C50.4393 8.68997 49.8874 8.46997 49.1148 8.46997C48.4526 8.46997 47.7904 8.68997 47.3489 9.23997C46.7971 9.67997 46.5763 10.34 46.5763 11.11C46.5763 11.88 46.7971 12.54 47.3489 12.98C47.9008 13.42 48.4526 13.75 49.1148 13.75C49.8874 13.75 50.4393 13.53 50.9911 12.98C51.3222 12.65 51.543 12.21 51.543 11.66H49.1148V10.78H52.3156V11.22V11.22ZM57.3926 8.46997H54.4126V10.56H57.1719V11.33H54.4126V13.42H57.3926V14.3H53.5297V7.69997H57.3926V8.46997ZM61.0348 14.3H60.1519V8.46997H58.2756V7.69997H62.9111V8.46997H61.0348V14.3ZM66.1119 14.3V7.69997H66.9948V14.3H66.1119ZM70.7474 14.3H69.8645V8.46997H67.9882V7.69997H72.5134V8.46997H70.6371V14.3H70.7474ZM81.2326 13.42C80.5704 14.08 79.7978 14.41 78.8045 14.41C77.8111 14.41 77.0385 14.08 76.3763 13.42C75.7141 12.76 75.383 11.99 75.383 11C75.383 10.01 75.7141 9.23997 76.3763 8.57997C77.0385 7.91997 77.8111 7.58997 78.8045 7.58997C79.7978 7.58997 80.5704 7.91997 81.2326 8.57997C81.8948 9.23997 82.2259 10.01 82.2259 11C82.2259 11.99 81.8948 12.76 81.2326 13.42ZM77.0385 12.87C77.48 13.31 78.1422 13.64 78.8045 13.64C79.4667 13.64 80.1289 13.42 80.5704 12.87C81.0119 12.43 81.343 11.77 81.343 11C81.343 10.23 81.1222 9.56997 80.5704 9.12997C80.1289 8.68997 79.4667 8.35997 78.8045 8.35997C78.1422 8.35997 77.48 8.57997 77.0385 9.12997C76.5971 9.56997 76.2659 10.23 76.2659 11C76.2659 11.77 76.4867 12.43 77.0385 12.87ZM83.44 14.3V7.69997H84.4334L87.6341 12.87V7.69997H88.5171V14.3H87.6341L84.2126 8.90997V14.3H83.44V14.3Z" fill="white" stroke="white" stroke-width="0.220741" stroke-miterlimit="10"/>
<path d="M75.1623 23.9799C72.5134 23.9799 70.4164 25.9599 70.4164 28.7099C70.4164 31.3499 72.5134 33.4399 75.1623 33.4399C77.8112 33.4399 79.9082 31.4599 79.9082 28.7099C79.9082 25.8499 77.8112 23.9799 75.1623 23.9799ZM75.1623 31.4599C73.7275 31.4599 72.5134 30.2499 72.5134 28.5999C72.5134 26.9499 73.7275 25.7399 75.1623 25.7399C76.5971 25.7399 77.8112 26.8399 77.8112 28.5999C77.8112 30.2499 76.5971 31.4599 75.1623 31.4599ZM64.8979 23.9799C62.249 23.9799 60.1519 25.9599 60.1519 28.7099C60.1519 31.3499 62.249 33.4399 64.8979 33.4399C67.5467 33.4399 69.6438 31.4599 69.6438 28.7099C69.6438 25.8499 67.5467 23.9799 64.8979 23.9799ZM64.8979 31.4599C63.463 31.4599 62.249 30.2499 62.249 28.5999C62.249 26.9499 63.463 25.7399 64.8979 25.7399C66.3327 25.7399 67.5467 26.8399 67.5467 28.5999C67.5467 30.2499 66.3327 31.4599 64.8979 31.4599ZM52.6468 25.4099V27.3899H57.3927C57.2823 28.4899 56.8408 29.3699 56.289 29.9199C55.6267 30.5799 54.523 31.3499 52.6468 31.3499C49.6668 31.3499 47.4593 29.0399 47.4593 26.0699C47.4593 23.0999 49.7771 20.7899 52.6468 20.7899C54.1919 20.7899 55.406 21.4499 56.289 22.2199L57.7238 20.7899C56.5097 19.6899 54.9645 18.8099 52.7571 18.8099C48.7838 18.8099 45.3623 22.1099 45.3623 26.0699C45.3623 30.0299 48.7838 33.3299 52.7571 33.3299C54.9645 33.3299 56.5097 32.6699 57.8342 31.2399C59.1586 29.9199 59.6001 28.0499 59.6001 26.6199C59.6001 26.1799 59.6001 25.7399 59.4897 25.4099H52.6468V25.4099ZM102.755 26.9499C102.313 25.8499 101.21 23.9799 98.7816 23.9799C96.3534 23.9799 94.3667 25.8499 94.3667 28.7099C94.3667 31.3499 96.3534 33.4399 99.0023 33.4399C101.099 33.4399 102.424 32.1199 102.865 31.3499L101.32 30.2499C100.768 31.0199 100.106 31.5699 99.0023 31.5699C97.8986 31.5699 97.2364 31.1299 96.6845 30.1399L102.976 27.4999L102.755 26.9499V26.9499ZM96.3534 28.4899C96.3534 26.7299 97.7882 25.7399 98.7816 25.7399C99.5542 25.7399 100.327 26.1799 100.547 26.7299L96.3534 28.4899ZM91.166 32.9999H93.263V19.2499H91.166V32.9999ZM87.8549 24.9699C87.303 24.4199 86.4201 23.8699 85.3164 23.8699C82.9986 23.8699 80.7912 25.9599 80.7912 28.5999C80.7912 31.2399 82.8882 33.2199 85.3164 33.2199C86.4201 33.2199 87.303 32.6699 87.7445 32.1199H87.8549V32.7799C87.8549 34.5399 86.8616 35.5299 85.3164 35.5299C84.1023 35.5299 83.2193 34.6499 82.9986 33.8799L81.2327 34.6499C81.7845 35.8599 83.109 37.3999 85.4267 37.3999C87.8549 37.3999 89.8416 35.9699 89.8416 32.5599V24.1999H87.8549V24.9699V24.9699ZM85.4267 31.4599C83.9919 31.4599 82.7779 30.2499 82.7779 28.5999C82.7779 26.9499 83.9919 25.7399 85.4267 25.7399C86.8616 25.7399 87.9653 26.9499 87.9653 28.5999C87.9653 30.2499 86.8616 31.4599 85.4267 31.4599ZM112.357 19.2499H107.39V32.9999H109.487V27.8299H112.357C114.675 27.8299 116.882 26.1799 116.882 23.5399C116.882 20.8999 114.675 19.2499 112.357 19.2499V19.2499ZM112.467 25.8499H109.487V21.1199H112.467C114.013 21.1199 114.896 22.4399 114.896 23.4299C114.785 24.6399 113.902 25.8499 112.467 25.8499ZM125.16 23.8699C123.615 23.8699 122.07 24.5299 121.518 25.9599L123.394 26.7299C123.836 25.9599 124.498 25.7399 125.27 25.7399C126.374 25.7399 127.367 26.3999 127.478 27.4999V27.6099C127.147 27.3899 126.264 27.0599 125.381 27.0599C123.394 27.0599 121.407 28.1599 121.407 30.1399C121.407 32.0099 123.063 33.2199 124.829 33.2199C126.264 33.2199 126.926 32.5599 127.478 31.8999H127.588V32.9999H129.575V27.7199C129.354 25.2999 127.478 23.8699 125.16 23.8699V23.8699ZM124.939 31.4599C124.277 31.4599 123.284 31.1299 123.284 30.2499C123.284 29.1499 124.498 28.8199 125.491 28.8199C126.374 28.8199 126.816 29.0399 127.367 29.2599C127.147 30.5799 126.043 31.4599 124.939 31.4599V31.4599ZM136.528 24.1999L134.21 30.1399H134.1L131.672 24.1999H129.465L133.107 32.5599L131.01 37.1799H133.107L138.736 24.1999H136.528V24.1999ZM117.986 32.9999H120.083V19.2499H117.986V32.9999Z" fill="white"/>
<path d="M11.4786 8.24988C11.1475 8.57988 11.0371 9.12988 11.0371 9.78988V34.0999C11.0371 34.7599 11.2579 35.3099 11.589 35.6399L11.6993 35.7499L25.3853 22.1099V21.8899L11.4786 8.24988Z" fill="url(#paint0_linear_0_1)"/>
<path d="M29.8001 26.73L25.2749 22.22V21.89L29.8001 17.38L29.9105 17.49L35.3186 20.57C36.8638 21.45 36.8638 22.88 35.3186 23.76L29.8001 26.73V26.73Z" fill="url(#paint1_linear_0_1)"/>
<path d="M29.9104 26.62L25.2748 22L11.4785 35.75C12.0304 36.3 12.803 36.3 13.7963 35.86L29.9104 26.62" fill="url(#paint2_linear_0_1)"/>
<path d="M29.9104 17.38L13.7963 8.25003C12.803 7.70003 12.0304 7.81003 11.4785 8.36003L25.2748 22L29.9104 17.38V17.38Z" fill="url(#paint3_linear_0_1)"/>
<path opacity="0.2" d="M29.8 26.51L13.7963 35.53C12.9133 36.08 12.1407 35.97 11.5889 35.53L11.4785 35.64L11.5889 35.75C12.1407 36.19 12.9133 36.3 13.7963 35.75L29.8 26.51Z" fill="black"/>
<path opacity="0.12" d="M11.4786 35.53C11.1475 35.2 11.0371 34.65 11.0371 33.99V34.1C11.0371 34.76 11.2579 35.31 11.589 35.64V35.53H11.4786ZM35.3186 23.43L29.8001 26.51L29.9104 26.62L35.3186 23.54C36.0912 23.1 36.4223 22.55 36.4223 22C36.4223 22.55 35.9808 22.99 35.3186 23.43V23.43Z" fill="black"/>
<path opacity="0.25" d="M13.7964 8.35991L35.3186 20.5699C35.9808 21.0099 36.4223 21.4499 36.4223 21.9999C36.4223 21.4499 36.0912 20.8999 35.3186 20.4599L13.7964 8.24991C12.2512 7.36991 11.0371 8.02991 11.0371 9.78991V9.89991C11.0371 8.24991 12.2512 7.47991 13.7964 8.35991Z" fill="white"/>
<defs>
<linearGradient id="paint0_linear_0_1" x1="24.0608" y1="9.58088" x2="5.59961" y2="28.1031" gradientUnits="userSpaceOnUse">
<stop stop-color="#00A0FF"/>
<stop offset="0.007" stop-color="#00A1FF"/>
<stop offset="0.26" stop-color="#00BEFF"/>
<stop offset="0.512" stop-color="#00D2FF"/>
<stop offset="0.76" stop-color="#00DFFF"/>
<stop offset="1" stop-color="#00E3FF"/>
</linearGradient>
<linearGradient id="paint1_linear_0_1" x1="37.3428" y1="22.0011" x2="10.6365" y2="22.0011" gradientUnits="userSpaceOnUse">
<stop stop-color="#FFE000"/>
<stop offset="0.409" stop-color="#FFBD00"/>
<stop offset="0.775" stop-color="#FFA500"/>
<stop offset="1" stop-color="#FF9C00"/>
</linearGradient>
<linearGradient id="paint2_linear_0_1" x1="27.4016" y1="24.5256" x2="2.36799" y2="49.6435" gradientUnits="userSpaceOnUse">
<stop stop-color="#FF3A44"/>
<stop offset="1" stop-color="#C31162"/>
</linearGradient>
<linearGradient id="paint3_linear_0_1" x1="8.05372" y1="0.193625" x2="19.233" y2="11.4105" gradientUnits="userSpaceOnUse">
<stop stop-color="#32A071"/>
<stop offset="0.069" stop-color="#2DA771"/>
<stop offset="0.476" stop-color="#15CF74"/>
<stop offset="0.801" stop-color="#06E775"/>
<stop offset="1" stop-color="#00F076"/>
</linearGradient>
</defs>
</svg>
