<svg width="19" height="20" viewBox="0 0 19 20" fill="none" xmlns="http://www.w3.org/2000/svg">
<rect width="19" height="20" fill="#F5F5F5"/>
<g clip-path="url(#clip0_0_1)">
<rect width="1440" height="927" transform="translate(-383 -92)" fill="white"/>
<g clip-path="url(#clip1_0_1)">
<rect width="1440" height="966" transform="translate(-383 -34)" fill="#141316"/>
<rect width="1240" height="180" transform="translate(-165 -24)" fill="black"/>
<rect y="0.5" width="19" height="19" rx="9.5" fill="white" fill-opacity="0.12"/>
<path d="M15.35 11.5777L16 10.5938L14.2775 9.73507C14.414 9.64408 14.5505 9.54739 14.6805 9.44502C15.1768 9.05587 15.6137 8.61241 15.9805 8.12559L14.895 7.5C14.5902 7.9046 14.2276 8.27347 13.816 8.59763C12.633 9.5331 11.0946 10.05 9.5 10.0479C7.92233 10.0479 6.39987 9.53972 5.223 8.62038C4.8095 8.29833 4.44471 7.93138 4.1375 7.52844L3.0585 8.15972C3.42653 8.64231 3.86338 9.08187 4.3585 9.46777C4.4755 9.55877 4.5925 9.63839 4.716 9.71801L3 10.5882L3.65 11.572L5.938 10.4346C6.17463 10.5442 6.41762 10.6429 6.666 10.7303L5.327 12.7436L6.4515 13.3123L7.9465 11.0374C8.24269 11.0907 8.54221 11.1287 8.8435 11.1512V13.5H10.1435V11.1569C10.4271 11.1364 10.7092 11.1022 10.9885 11.0545L12.477 13.3294L13.6015 12.7607L12.3015 10.7531C12.5634 10.663 12.8194 10.5605 13.0685 10.446L15.35 11.5777Z" fill="white"/>
</g>
</g>
<defs>
<clipPath id="clip0_0_1">
<rect width="1440" height="927" fill="white" transform="translate(-383 -92)"/>
</clipPath>
<clipPath id="clip1_0_1">
<rect width="1440" height="966" fill="white" transform="translate(-383 -34)"/>
</clipPath>
</defs>
</svg>
