<svg width="146" height="44" viewBox="0 0 146 44" fill="none" xmlns="http://www.w3.org/2000/svg">
<rect width="146" height="44" fill="#F5F5F5"/>
<rect width="1440" height="1002" transform="translate(-140 -564)" fill="#27282C"/>
<mask id="path-1-inside-1_0_1" fill="white">
<path d="M5.93094 0H140.069C143.341 0 146 2.3672 146 5.28V38.72C146 41.6328 143.341 44 140.069 44H5.93094C2.65904 44 0 41.6328 0 38.72V5.28C0 2.3672 2.65904 0 5.93094 0Z"/>
</mask>
<path d="M5.93094 0H140.069C143.341 0 146 2.3672 146 5.28V38.72C146 41.6328 143.341 44 140.069 44H5.93094C2.65904 44 0 41.6328 0 38.72V5.28C0 2.3672 2.65904 0 5.93094 0Z" fill="white" fill-opacity="0.12" stroke="white" stroke-opacity="0.4" mask="url(#path-1-inside-1_0_1)"/>
<path d="M30.0843 21.1805C30.0552 17.8095 32.928 16.1711 33.0541 16.0958C31.4236 13.7983 28.9002 13.4782 28.017 13.4499C25.9012 13.2333 23.8437 14.6834 22.7664 14.6834C21.6696 14.6834 20.0003 13.4782 18.2145 13.5064C15.9143 13.5441 13.75 14.8341 12.5756 16.8491C10.1396 20.9451 11.9545 26.9713 14.2935 30.2858C15.4679 31.9054 16.8266 33.7227 18.6221 33.6567C20.3691 33.5908 21.0291 32.5739 23.1352 32.5739C25.2315 32.5739 25.843 33.6567 27.6676 33.6191C29.5505 33.5908 30.7248 31.9901 31.8604 30.3517C33.2094 28.4967 33.7529 26.6606 33.7723 26.5665C33.7238 26.5476 30.1231 25.2105 30.0843 21.1805Z" fill="white"/>
<path d="M26.6388 11.2749C27.5802 10.1355 28.2208 8.5819 28.0461 7C26.6873 7.0565 24.9791 7.91336 23.9989 9.03387C23.1351 10.0226 22.3587 11.6327 22.5528 13.1487C24.0862 13.2617 25.6585 12.3954 26.6388 11.2749Z" fill="white"/>
<path d="M56.0176 32.4368H53.7319L52.4801 28.6176H48.1263L46.9381 32.4368H44.7158L49.0243 19.4392H51.691L56.0176 32.4368ZM52.1083 27.016L50.9744 23.628C50.8565 23.276 50.6298 22.4664 50.3032 21.1816H50.2579C50.1218 21.736 49.9132 22.5544 49.6229 23.628L48.5073 27.016H52.1083Z" fill="white"/>
<path d="M67.0927 27.6408C67.0927 29.2336 66.6482 30.492 65.7503 31.416C64.9521 32.2432 63.9543 32.648 62.7751 32.648C61.4962 32.648 60.5801 32.208 60.0177 31.3192V36.2384H57.868V26.1448C57.868 25.1416 57.8408 24.1208 57.7864 23.0648H59.673L59.791 24.552H59.8272C60.5438 23.4344 61.6323 22.8712 63.0835 22.8712C64.2264 22.8712 65.1697 23.3112 65.9317 24.1824C66.7117 25.0624 67.0927 26.2064 67.0927 27.6408ZM64.9067 27.7112C64.9067 26.796 64.6981 26.048 64.2718 25.4584C63.8092 24.8424 63.1833 24.5344 62.4032 24.5344C61.8772 24.5344 61.3964 24.7104 60.961 25.0448C60.5347 25.388 60.2445 25.828 60.1175 26.3824C60.054 26.6376 60.0177 26.8488 60.0177 27.016V28.5824C60.0177 29.26 60.2354 29.8408 60.6617 30.3072C61.088 30.7736 61.6504 31.0112 62.3398 31.0112C63.147 31.0112 63.7729 30.7032 64.2264 30.1048C64.6799 29.4976 64.9067 28.7056 64.9067 27.7112Z" fill="white"/>
<path d="M78.195 27.6408C78.195 29.2336 77.7505 30.492 76.8525 31.416C76.0543 32.2432 75.0566 32.648 73.8774 32.648C72.5985 32.648 71.6824 32.208 71.12 31.3192V36.2384H68.9703V26.1448C68.9703 25.1416 68.9431 24.1208 68.8887 23.0648H70.7753L70.8932 24.552H70.9295C71.6461 23.4344 72.7346 22.8712 74.1858 22.8712C75.3287 22.8712 76.272 23.3112 77.034 24.1824C77.814 25.0624 78.195 26.2064 78.195 27.6408ZM76.009 27.7112C76.009 26.796 75.8004 26.048 75.3741 25.4584C74.9115 24.8424 74.2856 24.5344 73.5055 24.5344C72.9795 24.5344 72.4987 24.7104 72.0633 25.0448C71.637 25.388 71.3558 25.828 71.2198 26.3824C71.1563 26.6376 71.12 26.8488 71.12 27.016V28.5824C71.12 29.26 71.3377 29.8408 71.764 30.3072C72.1903 30.7736 72.7527 31.0112 73.4421 31.0112C74.2493 31.0112 74.8843 30.7032 75.3287 30.1048C75.7913 29.4976 76.009 28.7056 76.009 27.7112Z" fill="white"/>
<path d="M90.6215 28.7936C90.6215 29.9024 90.2224 30.8 89.4333 31.4952C88.5625 32.252 87.3471 32.6304 85.7869 32.6304C84.3447 32.6304 83.1928 32.3576 82.322 31.8208L82.8209 30.0872C83.7642 30.624 84.7983 30.8968 85.923 30.8968C86.7303 30.8968 87.3652 30.7208 87.8097 30.3688C88.2632 30.0168 88.4899 29.5416 88.4899 28.952C88.4899 28.424 88.2995 27.984 87.9366 27.6232C87.5648 27.2624 86.948 26.928 86.0863 26.62C83.7189 25.7664 82.5488 24.5256 82.5488 22.8976C82.5488 21.8328 82.966 20.9616 83.7914 20.2752C84.6169 19.5976 85.7144 19.2544 87.084 19.2544C88.2995 19.2544 89.3154 19.4568 90.1226 19.8704L89.5784 21.56C88.8165 21.164 87.9639 20.9616 87.0024 20.9616C86.2495 20.9616 85.6509 21.1464 85.2246 21.4984C84.8708 21.824 84.6894 22.2112 84.6894 22.6776C84.6894 23.188 84.898 23.6192 85.3062 23.9448C85.66 24.2528 86.313 24.5872 87.2564 24.948C88.4083 25.3968 89.2519 25.9248 89.7961 26.532C90.3494 27.1392 90.6215 27.896 90.6215 28.7936Z" fill="white"/>
<path d="M97.7327 24.6312H95.3653V29.1808C95.3653 30.3336 95.7825 30.9144 96.617 30.9144C96.9979 30.9144 97.3154 30.8792 97.5694 30.8176L97.6329 32.4016C97.2066 32.5512 96.6533 32.6304 95.9639 32.6304C95.1113 32.6304 94.4582 32.3752 93.9775 31.8736C93.4967 31.372 93.2609 30.5272 93.2609 29.348V24.6224H91.855V23.0648H93.2609V21.3488L95.3653 20.7328V23.0648H97.7327V24.6312Z" fill="white"/>
<path d="M108.381 27.676C108.381 29.1192 107.955 30.2984 107.112 31.2224C106.223 32.1728 105.043 32.648 103.574 32.648C102.159 32.648 101.025 32.1904 100.182 31.284C99.3381 30.3776 98.9209 29.2248 98.9209 27.8344C98.9209 26.3824 99.3563 25.1944 100.218 24.2704C101.089 23.3464 102.259 22.88 103.728 22.88C105.143 22.88 106.286 23.3376 107.148 24.2528C107.973 25.1328 108.381 26.2768 108.381 27.676ZM106.159 27.72C106.159 26.8576 105.969 26.1272 105.588 25.5112C105.134 24.7632 104.49 24.3936 103.656 24.3936C102.794 24.3936 102.132 24.7632 101.687 25.5112C101.297 26.1272 101.116 26.8752 101.116 27.764C101.116 28.6264 101.306 29.3656 101.687 29.9728C102.15 30.7208 102.803 31.0904 103.638 31.0904C104.454 31.0904 105.098 30.712 105.57 29.9552C105.96 29.3216 106.159 28.5824 106.159 27.72Z" fill="white"/>
<path d="M115.366 24.8952C115.157 24.86 114.93 24.8424 114.685 24.8424C113.933 24.8424 113.343 25.1152 112.935 25.6696C112.581 26.1536 112.4 26.7784 112.4 27.5176V32.4368H110.25V26.0128C110.25 24.9304 110.232 23.9448 110.187 23.0648H112.055L112.137 24.86H112.2C112.427 24.244 112.781 23.7424 113.27 23.3728C113.751 23.0384 114.268 22.8712 114.822 22.8712C115.021 22.8712 115.202 22.8888 115.357 22.9064L115.366 24.8952Z" fill="white"/>
<path d="M124.962 27.3064C124.962 27.676 124.935 27.9928 124.881 28.248H118.441C118.468 29.172 118.776 29.8848 119.375 30.3688C119.919 30.8 120.618 31.02 121.479 31.02C122.432 31.02 123.302 30.8704 124.082 30.58L124.418 32.0232C123.502 32.4104 122.423 32.604 121.18 32.604C119.683 32.604 118.504 32.1728 117.651 31.3192C116.799 30.4656 116.373 29.3128 116.373 27.8784C116.373 26.4704 116.772 25.2912 117.57 24.3496C118.404 23.3464 119.529 22.8448 120.944 22.8448C122.332 22.8448 123.393 23.3464 124.101 24.3496C124.672 25.1592 124.962 26.136 124.962 27.3064ZM122.912 26.7696C122.931 26.1536 122.785 25.6168 122.495 25.168C122.123 24.5872 121.552 24.2968 120.79 24.2968C120.091 24.2968 119.52 24.5784 119.085 25.1416C118.731 25.5904 118.513 26.136 118.45 26.7608L122.912 26.7696Z" fill="white"/>
<path d="M51.0744 14.793H49.9496L49.3328 12.9186H47.1922L46.6026 14.793H45.5142L47.6276 8.40417H48.9337L51.0744 14.793ZM49.1423 12.1266L48.5891 10.4546C48.5346 10.2874 48.4258 9.88257 48.2534 9.24897H48.2353C48.1627 9.52177 48.072 9.91777 47.9178 10.4546L47.3736 12.1266H49.1423Z" fill="white"/>
<path d="M56.3715 10.1818L54.5756 14.793H53.5506L51.8091 10.1818H52.9429L53.7502 12.6194C53.8862 13.0242 54.0041 13.4114 54.0948 13.781H54.1221C54.2037 13.4466 54.3216 13.0594 54.4667 12.6194L55.2649 10.1818H56.3715Z" fill="white"/>
<path d="M60.1994 14.7931L60.1177 14.2651H60.0905C59.764 14.6875 59.3014 14.8987 58.7027 14.8987C57.8501 14.8987 57.2515 14.3179 57.2515 13.5435C57.2515 12.4083 58.2674 11.8187 60.027 11.8187V11.7307C60.027 11.1235 59.6914 10.8243 59.0383 10.8243C58.5667 10.8243 58.1585 10.9387 57.7957 11.1675L57.578 10.4987C58.0134 10.2347 58.5667 10.1027 59.2107 10.1027C60.4533 10.1027 61.0792 10.7363 61.0792 12.0123V13.7107C61.0792 14.1771 61.0973 14.5379 61.1518 14.8107L60.1994 14.7931ZM60.0542 12.4963C58.8841 12.4963 58.2946 12.7691 58.2946 13.4291C58.2946 13.9131 58.5939 14.1507 59.0202 14.1507C59.5554 14.1507 60.0542 13.7547 60.0542 13.2091V12.4963Z" fill="white"/>
<path d="M63.4284 9.42498C63.0746 9.42498 62.8025 9.16098 62.8025 8.80898C62.8025 8.45698 63.0837 8.20178 63.4465 8.20178C63.8093 8.20178 64.0996 8.45698 64.0905 8.80898C64.0905 9.17858 63.8184 9.42498 63.4284 9.42498ZM62.9204 10.1818H63.9726V14.7842H62.9204V10.1818Z" fill="white"/>
<path d="M65.8501 8.06982H66.9023V14.7842H65.8501V8.06982Z" fill="white"/>
<path d="M71.3832 14.7931L71.3016 14.2651H71.2744C70.9478 14.6875 70.4852 14.8987 69.8866 14.8987C69.034 14.8987 68.4353 14.3179 68.4353 13.5435C68.4353 12.4083 69.4512 11.8187 71.2109 11.8187V11.7307C71.2109 11.1235 70.8753 10.8243 70.2222 10.8243C69.7505 10.8243 69.3424 10.9387 68.9795 11.1675L68.7618 10.4899C69.1972 10.2259 69.7505 10.0939 70.3945 10.0939C71.6372 10.0939 72.263 10.7275 72.263 12.0035V13.7019C72.263 14.1683 72.2812 14.5291 72.3265 14.8019H71.3832V14.7931ZM71.2381 12.4963C70.068 12.4963 69.4784 12.7691 69.4784 13.4291C69.4784 13.9131 69.7777 14.1507 70.204 14.1507C70.7392 14.1507 71.2381 13.7547 71.2381 13.2091V12.4963Z" fill="white"/>
<path d="M76.5444 14.8986C75.8731 14.8986 75.3743 14.6258 75.0477 14.0802H75.0296L74.9661 14.793H74.0681C74.0953 14.4234 74.1044 14.0098 74.1044 13.5522V8.06982H75.1656V10.8594H75.1838C75.5012 10.349 76.0001 10.0938 76.6986 10.0938C77.8414 10.0938 78.6396 11.0442 78.6396 12.4258C78.6396 13.8514 77.7507 14.8986 76.5444 14.8986ZM76.3267 10.8946C75.7189 10.8946 75.1656 11.405 75.1656 12.1178V12.9274C75.1656 13.561 75.6645 14.0802 76.3085 14.0802C77.0977 14.0802 77.5693 13.4554 77.5693 12.461C77.5693 11.5282 77.0795 10.8946 76.3267 10.8946Z" fill="white"/>
<path d="M80.1997 8.06982H81.2519V14.7842H80.1997V8.06982Z" fill="white"/>
<path d="M86.9935 12.7338H83.8279C83.846 13.605 84.4447 14.0978 85.3245 14.0978C85.7962 14.0978 86.2225 14.0186 86.6035 13.8778L86.7667 14.5906C86.3223 14.7842 85.7962 14.8722 85.1794 14.8722C83.6918 14.8722 82.812 13.9658 82.812 12.549C82.812 11.141 83.71 10.0762 85.0615 10.0762C86.2679 10.0762 87.0389 10.9474 87.0389 12.2674C87.0389 12.4522 87.0298 12.6106 86.9935 12.7338ZM86.032 12.0034C86.032 11.2906 85.6601 10.789 84.9889 10.789C84.3812 10.789 83.9095 11.2994 83.837 12.0034H86.032Z" fill="white"/>
<path d="M93.3881 14.8987C92.0003 14.8987 91.1023 13.8955 91.1023 12.5315C91.1023 11.1059 92.0184 10.0939 93.4697 10.0939C94.8393 10.0939 95.7554 11.0531 95.7554 12.4523C95.7554 13.8867 94.8121 14.8987 93.3881 14.8987ZM93.4334 10.8419C92.6715 10.8419 92.1817 11.5371 92.1817 12.4963C92.1817 13.4467 92.6806 14.1331 93.4243 14.1331C94.1681 14.1331 94.667 13.3939 94.667 12.4699C94.6579 11.5371 94.1772 10.8419 93.4334 10.8419Z" fill="white"/>
<path d="M101.425 14.7931H100.372V12.1443C100.372 11.3259 100.046 10.9211 99.4109 10.9211C98.785 10.9211 98.3587 11.4403 98.3587 12.0475V14.7843H97.3065V11.5019C97.3065 11.0971 97.2975 10.6571 97.2703 10.1819H98.1955L98.2408 10.8947H98.268C98.5492 10.4019 99.1297 10.0851 99.7737 10.0851C100.771 10.0851 101.425 10.8243 101.425 12.0299V14.7931Z" fill="white"/>
<path d="M108.327 10.9562H107.166V13.1914C107.166 13.7634 107.375 14.045 107.783 14.045C107.964 14.045 108.128 14.0274 108.255 14.001L108.282 14.7754C108.073 14.8546 107.801 14.8898 107.466 14.8898C106.631 14.8898 106.141 14.441 106.141 13.2794V10.9562H105.452V10.1906H106.141V9.34584L107.175 9.03784V10.1818H108.336V10.9562" fill="white"/>
<path d="M113.915 14.793H112.862V12.1618C112.862 11.3346 112.536 10.921 111.901 10.921C111.357 10.921 110.849 11.2818 110.849 12.0122V14.7842H109.797V8.06982H110.849V10.833H110.867C111.203 10.3314 111.674 10.085 112.291 10.085C113.298 10.085 113.915 10.8418 113.915 12.0474V14.793Z" fill="white"/>
<path d="M119.303 12.7338H116.137C116.155 13.605 116.754 14.0978 117.634 14.0978C118.105 14.0978 118.532 14.0186 118.913 13.8778L119.076 14.5906C118.631 14.7842 118.105 14.8722 117.488 14.8722C116.001 14.8722 115.121 13.9658 115.121 12.549C115.121 11.141 116.019 10.0762 117.371 10.0762C118.577 10.0762 119.348 10.9474 119.348 12.2674C119.348 12.4522 119.339 12.6106 119.303 12.7338ZM118.341 12.0034C118.341 11.2906 117.969 10.789 117.298 10.789C116.69 10.789 116.21 11.2994 116.146 12.0034H118.341Z" fill="white"/>
</svg>
