<svg width="281" height="286" viewBox="0 0 281 286" fill="none" xmlns="http://www.w3.org/2000/svg">
<g clip-path="url(#clip0_1_281)">
<circle cx="148" cy="156" r="66" fill="url(#paint0_linear_1_281)"/>
<g filter="url(#filter0_d_1_281)">
<path d="M87.0145 130.817L84.9658 134.901L100.717 142.802L102.765 138.719L87.0145 130.817Z" fill="white"/>
<path d="M89.0534 134.03C90.5081 131.131 89.3367 127.601 86.4371 126.146C83.5375 124.691 80.0076 125.863 78.5529 128.762C77.0982 131.662 78.2696 135.192 81.1692 136.647C84.0688 138.101 87.5987 136.93 89.0534 134.03Z" fill="white"/>
</g>
<g filter="url(#filter1_d_1_281)">
<path d="M136.722 88.5759L141.082 87.2129L146.339 104.032L141.979 105.395L136.722 88.5759Z" fill="white"/>
<path d="M139.564 91.1064C136.468 92.0742 133.173 90.3487 132.205 87.2524C131.237 84.156 132.963 80.8614 136.059 79.8936C139.156 78.9258 142.45 80.6512 143.418 83.7476C144.386 86.8439 142.66 90.1386 139.564 91.1064Z" fill="white"/>
</g>
<g filter="url(#filter2_f_1_281)">
<path d="M194.349 206.353C220.58 184.062 223.774 144.727 201.483 118.496C179.192 92.2648 139.858 89.0708 113.627 111.362C87.3956 133.653 84.2016 172.988 106.493 199.219C128.784 225.449 168.118 228.643 194.349 206.353Z" fill="url(#paint1_linear_1_281)" fill-opacity="0.6"/>
</g>
<mask id="mask0_1_281" style="mask-type:alpha" maskUnits="userSpaceOnUse" x="87" y="98" width="124" height="118">
<path d="M117.43 115.838C135.662 100.345 160.882 98.4439 180.752 109.133L191.652 99.8714C193.574 98.2375 196.458 98.4716 198.091 100.394C199.725 102.317 199.491 105.2 197.569 106.834L188.73 114.345C190.108 115.422 191.445 116.572 192.736 117.793L200.95 110.813C202.872 109.179 205.755 109.413 207.389 111.336C209.023 113.258 208.789 116.142 206.866 117.775L198.852 124.587C216.994 148.295 213.554 182.324 190.546 201.877C167.537 221.429 133.399 219.334 112.928 197.605L104.416 204.838C102.493 206.471 99.6098 206.237 97.9759 204.315C96.342 202.392 96.5762 199.509 98.4989 197.875L107.21 190.472C106.213 189.001 105.295 187.496 104.453 185.963L95.1178 193.896C93.1951 195.53 90.3119 195.296 88.678 193.373C87.0441 191.451 87.2783 188.567 89.2009 186.934L100.597 177.249C93.2538 155.914 99.1988 131.331 117.43 115.838Z" fill="white"/>
</mask>
<g mask="url(#mask0_1_281)">
<path d="M117.43 115.838C135.662 100.345 160.882 98.4439 180.752 109.133L191.652 99.8714C193.574 98.2375 196.458 98.4716 198.091 100.394C199.725 102.317 199.491 105.2 197.569 106.834L188.73 114.345C190.108 115.422 191.445 116.572 192.736 117.793L200.95 110.813C202.872 109.179 205.755 109.413 207.389 111.336C209.023 113.258 208.789 116.142 206.866 117.775L198.852 124.587C216.994 148.295 213.554 182.324 190.546 201.877C167.537 221.429 133.399 219.334 112.928 197.605L104.416 204.838C102.493 206.471 99.6098 206.237 97.9759 204.315C96.342 202.392 96.5762 199.509 98.4989 197.875L107.21 190.472C106.213 189.001 105.295 187.496 104.453 185.963L95.1178 193.896C93.1951 195.53 90.3119 195.296 88.678 193.373C87.0441 191.451 87.2783 188.567 89.2009 186.934L100.597 177.249C93.2538 155.914 99.1988 131.331 117.43 115.838Z" fill="url(#paint2_linear_1_281)"/>
<path d="M220.528 234.639C238.381 219.467 240.555 192.694 225.383 174.841C210.212 156.987 183.439 154.813 165.586 169.985C147.732 185.157 145.558 211.929 160.73 229.783C175.902 247.637 202.674 249.81 220.528 234.639Z" fill="#BBE4FC"/>
</g>
<path d="M157.928 164.502C174.82 150.147 182.081 130.939 174.145 121.601C166.209 112.262 146.081 116.328 129.189 130.683C112.297 145.038 105.037 164.246 112.973 173.584C120.909 182.923 141.036 178.857 157.928 164.502Z" fill="white"/>
<path d="M163.805 126.331L159.259 136.858L170.298 133.951" stroke="black" stroke-width="3.91593" stroke-linecap="round" stroke-linejoin="round"/>
<path d="M120.304 163.298L131.427 160.51L126.777 170.935" stroke="black" stroke-width="3.91593" stroke-linecap="round" stroke-linejoin="round"/>
<path d="M144.473 21.4096C144.481 21.4303 144.499 21.4451 144.521 21.4484C144.543 21.4517 144.564 21.443 144.578 21.4255C145.467 20.3787 147.09 20.5761 147.476 21.9138C147.53 22.1342 147.54 22.3631 147.504 22.5872C147.145 24.3674 145.502 25.0815 144.044 25.3716C143.844 25.4104 143.638 25.3486 143.492 25.2063C143.027 24.9952 142.612 24.6881 142.274 24.3053C142.102 24.1126 141.952 23.9027 141.824 23.6789C141.695 23.4543 141.59 23.2162 141.513 22.969C141.412 22.6327 141.359 22.2838 141.355 21.9327C141.286 21.1557 141.778 20.4388 142.528 20.2246C143.102 20.1427 143.681 20.3374 144.089 20.7494C144.246 20.9508 144.376 21.173 144.473 21.4096Z" fill="#E6A6B3"/>
<path d="M86.0827 84.22C86.1813 84.6339 85.9966 85.0638 85.6287 85.2764L66.5556 96.0222C71.5181 98.2783 85.4467 104.591 86.8691 105.24C87.6517 103.506 100.973 74.0245 101.754 72.3C100.271 71.6344 85.2584 64.823 80.8844 62.8352L86.0827 84.22Z" fill="#FEFEFE"/>
<path d="M79.119 63.9815C76.5263 69.7197 67.3057 90.1771 65.3831 94.4297C69.4881 92.1059 82.9609 84.4919 83.9548 83.9259C83.6984 82.8696 80.3602 69.1177 79.119 63.9815Z" fill="#FEFEFE"/>
<path d="M78.0752 60.8028L62.4408 95.4271C62.3289 95.6744 62.3202 95.9562 62.4166 96.2096C62.513 96.4631 62.7064 96.6672 62.9539 96.7765L86.6082 107.523C87.1243 107.746 87.732 107.523 87.9624 107.005L103.589 72.3841C103.82 71.874 103.591 71.2658 103.077 71.0307L79.4205 60.2932C78.9091 60.0623 78.3075 60.2901 78.0748 60.8027" fill="#231916"/>
<path d="M86.8644 105.239C85.4424 104.597 71.5126 98.2791 66.5536 96.0352L85.6241 85.2792C85.9956 85.0686 86.1823 84.636 86.0808 84.2206L80.887 62.8356C85.2521 64.8153 100.272 71.6262 101.754 72.3009C100.981 74.0366 87.6501 103.514 86.864 105.239" fill="#7ECAF8"/>
<path d="M78.6641 63.9122C79.907 69.0502 83.2423 82.7989 83.4928 83.8637C82.5057 84.4307 69.0356 92.0376 64.9222 94.3595C66.8472 90.1057 76.0758 69.653 78.6641 63.9122Z" fill="#7ECAF8"/>
<path d="M79.974 82.3815C79.0523 82.7586 77.6264 83.5972 77.1864 85.2491C76.8638 86.494 76.9603 87.5551 77.4771 88.3957C77.982 89.219 78.8515 89.7667 80.0501 90.0456C82.2079 90.5364 85.346 89.4927 89.3742 86.9436C89.6141 86.7933 89.748 86.5092 89.7004 86.2257C88.8881 81.5499 87.5655 78.5486 85.7348 77.2904C85.5165 77.1416 85.3072 77.0107 85.0928 76.8954C84.3008 76.4988 83.5265 76.3645 82.7827 76.5133C81.802 76.6997 80.9529 77.3381 80.2417 78.4199C79.2966 79.8469 79.6328 81.4538 79.974 82.3815Z" fill="#231916"/>
<path d="M81.4549 83.317C81.5441 83.1199 81.5324 82.8925 81.4233 82.7039C81.4096 82.6826 80.4157 80.8892 81.3011 79.5554C81.7847 78.8389 82.306 78.4295 82.8709 78.3179C83.2759 78.2432 83.7202 78.325 84.1996 78.5714C84.3631 78.6545 84.5215 78.7468 84.674 78.848C86.0321 79.7782 87.1557 82.3602 87.8656 86.1174C84.5749 88.1174 81.8763 89.0346 80.2572 88.6665C79.9344 88.594 79.6511 88.497 79.4098 88.378C79.0616 88.203 78.8056 87.9735 78.6353 87.7031C78.3424 87.2263 78.3017 86.5621 78.5203 85.7403C78.9281 84.1969 80.9499 83.715 80.9671 83.7106C81.1841 83.6612 81.3669 83.515 81.4549 83.317Z" fill="#E6A6B3"/>
<path d="M148.787 57.3265L137.018 61.0052C136.14 61.2798 135.205 60.7902 134.93 59.9116L127.454 35.9948C127.18 35.1162 127.669 34.1813 128.548 33.9067L140.317 30.2281C140.739 30.0962 141.196 30.1374 141.587 30.3425C141.979 30.5475 142.273 30.8998 142.405 31.3217L149.88 55.238C150.013 55.6599 149.972 56.117 149.767 56.5087C149.562 56.9004 149.209 57.1946 148.787 57.3265Z" fill="#D6BBF1"/>
<path d="M140.771 57.2678C140.928 57.7686 141.339 58.1478 141.851 58.2626C142.363 58.3774 142.898 58.2104 143.253 57.8245C143.608 57.4386 143.731 56.8923 143.574 56.3916C143.332 55.6175 142.509 55.1861 141.735 55.428C140.961 55.67 140.529 56.4937 140.771 57.2678Z" fill="white"/>
<path d="M135.017 33.9362L133.148 34.5204C132.89 34.601 132.615 34.4572 132.535 34.1992C132.454 33.9411 132.598 33.6666 132.856 33.5859L134.725 33.0018C134.892 32.9496 135.074 32.9904 135.202 33.1089C135.331 33.2274 135.387 33.4055 135.348 33.5761C135.31 33.7468 135.184 33.884 135.017 33.9362ZM136.886 33.3521L136.418 33.4981C136.16 33.5787 135.886 33.4349 135.805 33.1769C135.725 32.9189 135.868 32.6443 136.126 32.5637L136.594 32.4176C136.761 32.3654 136.943 32.4063 137.071 32.5248C137.2 32.6432 137.256 32.8213 137.217 32.992C137.179 33.1626 137.053 33.2999 136.886 33.3521Z" fill="#424A60"/>
<path d="M149.492 37.7414C149.303 37.801 149.097 37.7405 148.97 37.5884C148.843 37.4363 148.82 37.2225 148.912 37.0472C150.112 34.756 149.225 31.9158 146.933 30.7154C146.778 30.6343 146.679 30.4767 146.671 30.302C146.664 30.1273 146.751 29.962 146.898 29.8684C147.046 29.7749 147.233 29.7672 147.388 29.8483C150.157 31.2987 151.23 34.7318 149.78 37.5013C149.72 37.6165 149.616 37.703 149.492 37.7414Z" fill="#7383BF"/>
<path d="M147.233 37.422C147.043 37.4815 146.837 37.4211 146.71 37.269C146.583 37.1168 146.561 36.9031 146.653 36.7277C147.05 35.9696 147.128 35.1002 146.872 34.2807C146.616 33.4612 146.057 32.7911 145.298 32.3933C145.143 32.3122 145.043 32.1546 145.036 31.9799C145.029 31.8052 145.116 31.6399 145.263 31.5463C145.411 31.4528 145.597 31.4451 145.752 31.5262C146.743 32.0444 147.472 32.9196 147.806 33.9886C148.14 35.0576 148.039 36.1919 147.52 37.1818C147.46 37.2971 147.357 37.3836 147.233 37.422ZM125.286 45.3077C125.162 45.3466 125.027 45.3345 124.912 45.274C122.143 43.8236 121.07 40.3905 122.52 37.6211C122.601 37.4662 122.759 37.3663 122.934 37.3591C123.109 37.3519 123.274 37.4385 123.367 37.5862C123.461 37.7339 123.469 37.9203 123.388 38.0752C122.188 40.3663 123.075 43.2065 125.367 44.4069C125.542 44.4985 125.646 44.687 125.628 44.8844C125.61 45.0818 125.475 45.249 125.286 45.3077Z" fill="#7383BF"/>
<path d="M126.921 43.6297C126.797 43.6686 126.663 43.6565 126.548 43.5961C125.558 43.0779 124.828 42.2027 124.494 41.1337C124.16 40.0647 124.261 38.9304 124.78 37.9405C124.861 37.7856 125.019 37.6857 125.193 37.6785C125.368 37.6713 125.533 37.7579 125.627 37.9056C125.721 38.0533 125.728 38.2397 125.647 38.3946C125.25 39.1527 125.172 40.0221 125.428 40.8416C125.684 41.6611 126.243 42.3312 127.002 42.729C127.178 42.8205 127.281 43.0091 127.263 43.2065C127.245 43.4039 127.11 43.571 126.921 43.6297Z" fill="#7383BF"/>
<path d="M127.833 37.2072L142.784 32.534L148.918 52.157L133.967 56.8303L127.833 37.2072Z" fill="#EBE3FC"/>
<path d="M98.5591 54.5732C98.7151 54.6098 98.8185 54.7526 98.8106 54.9071L98.8024 54.9654L97.7188 59.5854L100.393 56.6737C102.994 54.1455 105.982 51.8701 109.356 49.8475C109.511 49.7548 109.711 49.805 109.804 49.9596C109.897 50.1142 109.846 50.3146 109.692 50.4073C106.556 52.2871 103.761 54.3862 101.315 56.6934L100.86 57.1284L98.1992 60.0267L102.71 58.5529C102.863 58.5032 103.025 58.5715 103.099 58.7077L103.122 58.7618C103.172 58.9141 103.103 59.0766 102.967 59.1501L102.913 59.1733L97.2187 61.0335L96.6672 61.2137L96.7997 60.6489L98.1669 54.8164C98.2081 54.6409 98.3837 54.5321 98.5591 54.5732Z" fill="#C5C5C5"/>
<path d="M108.555 51.2177C108.711 51.2543 108.814 51.3971 108.806 51.5516L108.798 51.6099L107.715 56.2299L110.388 53.3182C112.99 50.79 115.978 48.5146 119.352 46.492C119.506 46.3994 119.707 46.4495 119.8 46.6041C119.892 46.7587 119.842 46.9591 119.688 47.0518C116.552 48.9316 113.756 51.0307 111.311 53.3379L110.856 53.773L108.195 56.6712L112.706 55.1974C112.858 55.1477 113.021 55.216 113.095 55.3522L113.118 55.4063C113.167 55.5586 113.099 55.7211 112.963 55.7946L112.909 55.8178L107.214 57.6781L106.663 57.8582L106.795 57.2934L108.163 51.4609C108.204 51.2855 108.379 51.1766 108.555 51.2177Z" fill="#C5C5C5"/>
</g>
<defs>
<filter id="filter0_d_1_281" x="72.0541" y="119.647" width="36.5849" height="29.0291" filterUnits="userSpaceOnUse" color-interpolation-filters="sRGB">
<feFlood flood-opacity="0" result="BackgroundImageFix"/>
<feColorMatrix in="SourceAlpha" type="matrix" values="0 0 0 0 0 0 0 0 0 0 0 0 0 0 0 0 0 0 127 0" result="hardAlpha"/>
<feOffset/>
<feGaussianBlur stdDeviation="2.93695"/>
<feColorMatrix type="matrix" values="0 0 0 0 1 0 0 0 0 1 0 0 0 0 1 0 0 0 0.5 0"/>
<feBlend mode="normal" in2="BackgroundImageFix" result="effect1_dropShadow_1_281"/>
<feBlend mode="normal" in="SourceGraphic" in2="effect1_dropShadow_1_281" result="shape"/>
</filter>
<filter id="filter1_d_1_281" x="126.062" y="73.7506" width="26.1511" height="37.5183" filterUnits="userSpaceOnUse" color-interpolation-filters="sRGB">
<feFlood flood-opacity="0" result="BackgroundImageFix"/>
<feColorMatrix in="SourceAlpha" type="matrix" values="0 0 0 0 0 0 0 0 0 0 0 0 0 0 0 0 0 0 127 0" result="hardAlpha"/>
<feOffset/>
<feGaussianBlur stdDeviation="2.93695"/>
<feColorMatrix type="matrix" values="0 0 0 0 1 0 0 0 0 1 0 0 0 0 1 0 0 0 0.5 0"/>
<feBlend mode="normal" in2="BackgroundImageFix" result="effect1_dropShadow_1_281"/>
<feBlend mode="normal" in="SourceGraphic" in2="effect1_dropShadow_1_281" result="shape"/>
</filter>
<filter id="filter2_f_1_281" x="82.5209" y="87.3902" width="142.934" height="142.934" filterUnits="userSpaceOnUse" color-interpolation-filters="sRGB">
<feFlood flood-opacity="0" result="BackgroundImageFix"/>
<feBlend mode="normal" in="SourceGraphic" in2="BackgroundImageFix" result="shape"/>
<feGaussianBlur stdDeviation="4.56859" result="effect1_foregroundBlur_1_281"/>
</filter>
<linearGradient id="paint0_linear_1_281" x1="89.5" y1="94.5" x2="183" y2="204.5" gradientUnits="userSpaceOnUse">
<stop stop-color="#AFD9FF" stop-opacity="0.4"/>
<stop offset="1" stop-color="#8FC9FF" stop-opacity="0"/>
</linearGradient>
<linearGradient id="paint1_linear_1_281" x1="113.627" y1="111.362" x2="194.349" y2="206.353" gradientUnits="userSpaceOnUse">
<stop stop-color="#86D3F8"/>
<stop offset="1" stop-color="#4D92F7"/>
</linearGradient>
<linearGradient id="paint2_linear_1_281" x1="117.182" y1="116.049" x2="190.297" y2="202.088" gradientUnits="userSpaceOnUse">
<stop stop-color="#86D3F8"/>
<stop offset="1" stop-color="#4D92F7"/>
</linearGradient>
<clipPath id="clip0_1_281">
<rect width="179.48" height="221.903" fill="white" transform="translate(0.0212402 116.259) rotate(-40.3577)"/>
</clipPath>
</defs>
</svg>
