<svg width="245" height="259" viewBox="0 0 245 259" fill="none" xmlns="http://www.w3.org/2000/svg">
<g clip-path="url(#clip0_1_350)">
<circle cx="122" cy="140" r="66" fill="url(#paint0_linear_1_350)"/>
<g filter="url(#filter0_f_1_350)">
<path d="M84.0264 202.074C115.935 219.031 155.549 206.91 172.505 175.001C189.462 143.092 177.34 103.479 145.431 86.522C113.523 69.5655 73.9093 81.6868 56.9528 113.596C39.9963 145.505 52.1175 185.118 84.0264 202.074Z" fill="url(#paint1_linear_1_350)" fill-opacity="0.5"/>
</g>
<g filter="url(#filter1_d_1_350)">
<path d="M112.867 71.8696L107.935 71.4393L106.275 90.4647L111.207 90.895L112.867 71.8696Z" fill="white"/>
<path d="M110.446 75.2084C113.949 75.514 117.036 72.9224 117.341 69.4199C117.647 65.9175 115.055 62.8304 111.553 62.5248C108.05 62.2192 104.963 64.8108 104.658 68.3133C104.352 71.8158 106.944 74.9028 110.446 75.2084Z" fill="white"/>
</g>
<g filter="url(#filter2_d_1_350)">
<path d="M175.295 105.044L178.412 108.891L163.573 120.913L160.456 117.066L175.295 105.044Z" fill="white"/>
<path d="M173.883 108.919C171.67 106.187 172.091 102.179 174.822 99.9656C177.554 97.7524 181.563 98.1728 183.776 100.905C185.989 103.636 185.569 107.645 182.837 109.858C180.105 112.071 176.097 111.651 173.883 108.919Z" fill="white"/>
</g>
<mask id="mask0_1_350" style="mask-type:alpha" maskUnits="userSpaceOnUse" x="45" y="83" width="147" height="123">
<path d="M143.44 90.2696C166.337 102.437 178.338 127.08 175.518 151.37L189.206 158.645C191.621 159.928 192.538 162.926 191.255 165.34C189.972 167.755 186.974 168.672 184.559 167.389L173.459 161.49C172.925 163.309 172.302 165.116 171.588 166.904L181.904 172.386C184.319 173.669 185.236 176.667 183.953 179.082C182.67 181.496 179.672 182.414 177.257 181.131L167.191 175.782C150.566 203.537 114.914 213.682 86.0175 198.327C57.1213 182.971 45.5782 147.746 59.278 118.436L48.5881 112.755C46.1734 111.472 45.2561 108.474 46.5393 106.06C47.8225 103.645 50.8202 102.728 53.235 104.011L64.1754 109.825C65.2583 108.232 66.4067 106.705 67.615 105.244L55.8903 99.0139C53.4756 97.7307 52.5583 94.7329 53.8415 92.3182C55.1247 89.9035 58.1225 88.9862 60.5372 90.2694L74.8501 97.8749C93.4033 81.9456 120.543 78.102 143.44 90.2696Z" fill="white"/>
</mask>
<g mask="url(#mask0_1_350)">
<path d="M143.44 90.2696C166.337 102.437 178.338 127.08 175.518 151.37L189.206 158.645C191.621 159.928 192.538 162.926 191.255 165.34C189.972 167.755 186.974 168.672 184.559 167.389L173.459 161.49C172.925 163.309 172.302 165.116 171.588 166.904L181.904 172.386C184.319 173.669 185.236 176.667 183.953 179.082C182.67 181.496 179.672 182.414 177.257 181.131L167.191 175.782C150.566 203.537 114.914 213.682 86.0175 198.327C57.1213 182.971 45.5782 147.746 59.278 118.436L48.5881 112.755C46.1734 111.472 45.2561 108.474 46.5393 106.06C47.8225 103.645 50.8202 102.728 53.235 104.011L64.1754 109.825C65.2583 108.232 66.4067 106.705 67.615 105.244L55.8903 99.0139C53.4756 97.7307 52.5583 94.7329 53.8415 92.3182C55.1247 89.9035 58.1225 88.9862 60.5372 90.2694L74.8501 97.8749C93.4033 81.9456 120.543 78.102 143.44 90.2696Z" fill="url(#paint2_linear_1_350)"/>
<path d="M65.0088 241.63C87.4313 253.545 115.268 245.028 127.183 222.605C139.098 200.183 130.581 172.346 108.158 160.431C85.7358 148.515 57.8995 157.033 45.9841 179.456C34.0687 201.878 42.5864 229.714 65.0088 241.63Z" fill="#F7CBCA"/>
</g>
<path d="M110.619 150.525C131.834 161.798 154.085 161.43 160.318 149.701C166.55 137.972 154.405 119.325 133.19 108.051C111.975 96.7776 89.7238 97.1463 83.4911 108.875C77.2585 120.604 89.4041 139.251 110.619 150.525Z" fill="white"/>
<path d="M151.417 141.177L138.995 140.809L146.338 150.766" stroke="black" stroke-width="4.24393" stroke-linecap="round" stroke-linejoin="round"/>
<path d="M96.784 112.145L104.04 122.234L91.6793 121.72" stroke="black" stroke-width="4.24393" stroke-linecap="round" stroke-linejoin="round"/>
<path d="M153.896 53.746C155.794 54.5064 157.664 55.3753 159.485 56.3435C161.057 57.2644 162.595 58.2341 164.093 59.2488C164.865 59.7752 165.628 60.3172 166.397 60.8738C174.069 65.7755 179.643 73.9442 176.202 79.0363C175.809 79.6271 175.315 80.1567 174.729 80.6163C173.333 83.3268 168.567 83.9979 163.761 83.1821C162.938 83.0046 162.113 82.7957 161.287 82.5562C160.451 82.3165 159.604 82.0625 158.773 81.7654C157.81 81.3614 156.895 80.9357 156.042 80.5144C154.117 79.562 152.245 78.5013 150.447 77.3448C149.95 77.0244 149.374 76.8415 148.858 76.841L144.03 76.8183C143.755 76.8172 143.443 76.69 143.217 76.4865C142.991 76.283 142.887 76.0358 142.946 75.8418L143.673 73.0439C143.821 72.5405 143.495 71.8904 142.851 71.406C142.47 71.123 142.012 70.7678 141.515 70.3436C140.759 69.7041 140.057 69.0317 139.415 68.3344C135.01 62.9616 136.682 57.4423 140.921 54.4365C141.493 54.0832 142.11 53.7704 142.768 53.4998C143.426 53.2288 144.124 53.0018 144.859 52.8206C145.5 52.7277 146.165 52.6716 146.849 52.6525C148.206 52.6065 149.628 52.6985 151.088 52.9265C152.023 53.1414 152.962 53.4156 153.896 53.746Z" fill="black" stroke="#979797" stroke-width="0.707322"/>
<path d="M185.766 71.7267C185.751 71.7452 185.747 71.7705 185.756 71.7926C185.765 71.8148 185.785 71.8303 185.809 71.8332C187.276 72.0839 187.989 73.7059 186.955 74.8051C186.78 74.9771 186.571 75.1123 186.343 75.203C184.485 75.8523 182.911 74.7153 181.835 73.5161C181.688 73.351 181.632 73.1245 181.684 72.9098C181.624 72.3596 181.681 71.8029 181.851 71.2762C181.936 71.0101 182.048 70.7535 182.186 70.5105C182.324 70.2661 182.489 70.0375 182.676 69.8287C182.934 69.5488 183.23 69.3065 183.555 69.1091C184.241 68.6149 185.182 68.6778 185.796 69.2588C186.189 69.7485 186.328 70.3955 186.169 71.0033C186.068 71.2617 185.933 71.5051 185.766 71.7267Z" fill="#E6A6B3"/>
<path d="M147.533 67.5828C147.499 67.7887 147.409 67.9383 147.263 68.0317C147.13 68.1212 146.985 68.1619 146.829 68.1539C146.678 68.1374 146.53 68.0747 146.385 67.9656C146.253 67.8527 146.17 67.7072 146.136 67.5291C146.091 67.3128 146.092 67.0998 146.139 66.89C146.187 66.6803 146.259 66.4732 146.357 66.2689C146.455 66.0646 146.566 65.867 146.688 65.6759C146.82 65.4894 146.942 65.3089 147.056 65.1345C147.371 64.6825 147.719 64.2692 148.1 63.8947C148.48 63.5202 148.904 63.1953 149.37 62.92C149.456 62.8589 149.543 62.8357 149.632 62.8506C149.72 62.8654 149.801 62.9033 149.876 62.9642C150.046 63.0865 150.116 63.2359 150.086 63.4124C150.069 63.585 149.981 63.7199 149.823 63.8172C149.771 63.8539 149.714 63.8715 149.651 63.8699C149.494 64.0643 149.339 64.2545 149.187 64.4406C149.043 64.6311 148.901 64.828 148.761 65.0312L149.139 65.376C149.358 65.546 149.608 65.6893 149.887 65.8059C150.175 65.927 150.46 66.0037 150.742 66.036C150.776 66.0326 150.806 66.0376 150.831 66.0508C150.856 66.0641 150.883 66.0732 150.912 66.0782C151.108 65.8299 151.323 65.6074 151.555 65.4107C151.788 65.2139 152.034 65.0618 152.294 64.9544L152.288 64.9669C152.385 64.944 152.478 64.961 152.565 65.018C152.652 65.0751 152.677 65.1685 152.64 65.2984C152.565 65.6003 152.438 65.8798 152.259 66.1369C152.088 66.3985 151.94 66.6669 151.815 66.9423C151.663 67.2676 151.535 67.5998 151.429 67.9389C151.328 68.2697 151.256 68.616 151.214 68.9778C151.187 69.2091 151.092 69.3671 150.93 69.4517C150.776 69.5407 150.61 69.5703 150.434 69.5406C150.257 69.5109 150.099 69.4268 149.959 69.2884C149.827 69.1543 149.775 68.9716 149.802 68.7402C149.824 68.5172 149.866 68.2883 149.927 68.0535C150 67.8149 150.084 67.5765 150.178 67.3383C149.898 67.2638 149.631 67.1433 149.377 66.9767C149.137 66.8062 148.92 66.611 148.727 66.391C148.65 66.2963 148.57 66.1952 148.488 66.0877C148.406 65.9801 148.331 65.8602 148.263 65.7277C148.144 65.9104 148.024 66.0972 147.901 66.2882C147.791 66.4754 147.704 66.6694 147.64 66.8703C147.635 66.8786 147.631 66.887 147.626 66.8953C147.635 66.8997 147.637 66.9061 147.632 66.9144C147.604 67.0276 147.582 67.1389 147.567 67.2482C147.56 67.3619 147.549 67.4735 147.533 67.5828ZM156.208 71.3916C155.878 71.6113 155.499 71.7622 155.071 71.8444C154.642 71.9266 154.218 71.9308 153.798 71.8571C153.391 71.7795 153.011 71.6203 152.658 71.3795C152.318 71.1348 152.067 70.8037 151.905 70.3862C151.751 69.9521 151.715 69.5272 151.797 69.1115C151.892 68.692 152.068 68.3209 152.324 67.9982C152.586 67.6671 152.905 67.3987 153.281 67.1929C153.67 66.9831 154.076 66.873 154.498 66.8623C154.713 66.8592 154.951 66.8947 155.21 66.9686C155.47 67.0426 155.719 67.1479 155.956 67.2845C156.201 67.4256 156.419 67.5892 156.608 67.7754C156.81 67.9576 156.951 68.1551 157.03 68.368C157.117 68.5854 157.127 68.8092 157.058 69.0395C157.001 69.266 156.84 69.4898 156.573 69.711C156.302 69.9194 155.984 70.0444 155.62 70.086C155.261 70.1193 154.905 70.0852 154.553 69.9836C154.214 69.8782 153.904 69.7081 153.623 69.4733C153.35 69.2429 153.163 68.9619 153.062 68.6303C152.914 68.8291 152.816 69.0334 152.768 69.2432C152.729 69.4574 152.737 69.6643 152.791 69.864C152.853 70.068 152.958 70.252 153.106 70.416C153.267 70.5761 153.468 70.6992 153.711 70.7854C154.075 70.9041 154.464 70.9665 154.877 70.9726C155.295 70.9703 155.69 70.94 156.063 70.8817C156.135 70.8667 156.194 70.8766 156.239 70.9114C156.285 70.9463 156.313 70.9934 156.324 71.0528C156.335 71.1121 156.33 71.1731 156.307 71.2359C156.293 71.303 156.26 71.3549 156.208 71.3916ZM154.853 67.8521C154.601 67.8247 154.343 67.8478 154.079 67.9215C153.82 67.9868 153.594 68.1014 153.4 68.2653C153.674 68.6349 154.026 68.8968 154.456 69.0509C154.557 69.083 154.699 69.116 154.884 69.1502C155.073 69.1759 155.257 69.1826 155.434 69.1701C155.616 69.1493 155.769 69.1025 155.893 69.0296C156.022 68.9485 156.078 68.8127 156.062 68.6225C156.048 68.5082 155.993 68.4098 155.898 68.3273C155.808 68.2365 155.7 68.1578 155.575 68.0915C155.45 68.0251 155.319 67.9712 155.18 67.9298C155.05 67.8928 154.941 67.8669 154.853 67.8521ZM157.531 73.0239C157.429 73.2365 157.283 73.3616 157.092 73.399C156.909 73.4409 156.737 73.424 156.574 73.3482C156.411 73.2725 156.284 73.1512 156.191 72.9843C156.111 72.8136 156.122 72.6219 156.224 72.4093C156.446 71.9507 156.689 71.5137 156.953 71.0984C157.229 70.6791 157.507 70.2557 157.788 69.8281C157.915 69.6498 158.037 69.4693 158.156 69.2867C158.287 69.1001 158.42 68.9198 158.555 68.746C158.69 68.5721 158.833 68.4133 158.985 68.2694C159.14 68.1171 159.317 67.9865 159.513 67.8775C159.56 67.8491 159.613 67.8504 159.671 67.8814C159.73 67.9124 159.754 67.9573 159.744 68.0161C159.691 68.4367 159.561 68.8427 159.353 69.2341C159.145 69.6255 158.942 70.0086 158.742 70.3834C158.529 70.8253 158.326 71.2675 158.134 71.7099C157.941 72.1523 157.74 72.5903 157.531 73.0239ZM159.386 74.0093C159.283 74.2219 159.137 74.347 158.946 74.3844C158.764 74.4263 158.591 74.4094 158.428 74.3336C158.266 74.2579 158.138 74.1366 158.045 73.9697C157.965 73.799 157.976 73.6073 158.078 73.3946C158.301 72.9361 158.544 72.4991 158.807 72.0838C159.083 71.6645 159.362 71.2411 159.642 70.8135C159.769 70.6352 159.892 70.4547 160.01 70.272C160.141 70.0854 160.274 69.9052 160.409 69.7314C160.545 69.5575 160.688 69.3987 160.839 69.2547C160.995 69.1025 161.171 68.9719 161.368 68.8628C161.415 68.8345 161.467 68.8358 161.526 68.8668C161.584 68.8977 161.608 68.9426 161.598 69.0015C161.546 69.4221 161.415 69.8281 161.207 70.2195C160.999 70.6109 160.796 70.994 160.597 71.3688C160.383 71.8107 160.18 72.2528 159.988 72.6953C159.795 73.1377 159.595 73.5757 159.386 74.0093ZM163.38 76.2438C163.011 76.3149 162.618 76.3199 162.202 76.2589C161.799 76.1941 161.435 76.0648 161.111 75.8711C160.786 75.6775 160.533 75.4201 160.351 75.0992C160.17 74.7783 160.12 74.3889 160.203 73.9311C160.264 73.536 160.406 73.1683 160.629 72.8279C160.861 72.4919 161.136 72.2055 161.454 71.9687C161.566 71.8787 161.695 71.7975 161.84 71.7251C162.104 71.4701 162.4 71.334 162.73 71.3169C163.059 71.2997 163.385 71.3605 163.706 71.4993C164.032 71.6297 164.333 71.8165 164.61 72.0596C164.899 72.2989 165.127 72.5534 165.293 72.8234C165.529 73.2047 165.635 73.587 165.613 73.9704C165.591 74.3538 165.479 74.7054 165.277 75.0252C165.075 75.3451 164.804 75.6126 164.466 75.8278C164.135 76.0474 163.773 76.1861 163.38 76.2438ZM163.183 72.6951C163.015 72.6487 162.859 72.6512 162.714 72.7024C162.582 72.7498 162.44 72.8074 162.286 72.8753C162.166 72.9398 162.042 72.9431 161.913 72.885C161.808 73.0217 161.714 73.1691 161.629 73.3273C161.545 73.4856 161.484 73.6507 161.446 73.8227C161.386 74.0575 161.389 74.2516 161.457 74.4052C161.538 74.5549 161.651 74.6737 161.796 74.7617C161.95 74.8541 162.126 74.9154 162.323 74.9456C162.529 74.9803 162.727 74.9894 162.918 74.973C163.124 74.9655 163.326 74.9178 163.522 74.8298C163.727 74.7463 163.892 74.6365 164.018 74.5004C164.148 74.3559 164.226 74.1891 164.252 73.9999C164.286 73.8151 164.234 73.6113 164.096 73.3885C163.994 73.2383 163.861 73.0979 163.695 72.9672C163.53 72.8365 163.359 72.7458 163.183 72.6951Z" fill="white"/>
<path d="M177.365 64.2992C177.76 64.8897 177.427 66.2626 178.038 66.0468C179.003 65.5502 178.534 63.9833 178.085 63.5087C177.871 63.4679 177.651 63.5401 177.503 63.6997C177.355 63.8593 177.299 64.0838 177.355 64.2943L177.365 64.2992ZM179.067 63.0932C179.43 63.7134 179.664 64.4004 179.756 65.1132C179.795 65.2428 179.906 65.3383 180.039 65.3591C180.173 65.3799 180.307 65.3225 180.385 65.2111C180.733 64.4264 180.645 63.5168 180.153 62.8132C180.016 62.6144 179.773 62.517 179.536 62.566C179.3 62.615 179.115 62.8009 179.068 63.0379C179.066 63.0588 179.065 63.08 179.067 63.1011L179.067 63.0932Z" fill="#979797"/>
<path d="M124.999 38.1951C124.656 38.3638 124.242 38.2833 123.987 37.9983L110.956 23.3714C109.945 28.1329 107.099 41.5191 106.811 42.8896C108.471 43.2402 136.742 49.2756 138.402 49.6264C138.7 48.2049 141.769 33.7786 142.659 29.5823L124.999 38.1951Z" fill="#FEFEFE"/>
<path d="M141.732 28.1379C136.168 26.962 116.332 22.7777 112.209 21.9093C116.482 26.7331 120.752 31.5591 125.02 36.3873C125.916 35.9408 137.432 30.2583 141.732 28.1379Z" fill="#FEFEFE"/>
<path d="M144.324 26.7037L110.84 19.6363C110.602 19.5837 110.352 19.6298 110.147 19.7643C109.942 19.8987 109.799 20.1102 109.75 20.3509L104.783 43.4367C104.685 43.937 105.002 44.4225 105.497 44.5309L138.973 51.6018C139.466 51.7092 139.966 51.3813 140.077 50.8799L145.026 27.7915C145.08 27.5527 145.036 27.3025 144.904 27.0977C144.772 26.8929 144.563 26.7508 144.324 26.7037Z" fill="#231916"/>
<path d="M106.815 42.8911C107.1 41.5258 109.948 28.1448 110.954 23.375L123.986 38.0032C124.247 38.2875 124.661 38.3669 124.999 38.2025L142.661 29.5835C141.766 33.7851 138.699 48.2067 138.399 49.6322C136.743 49.2787 108.469 43.2483 106.814 42.8911" fill="#F7CECC"/>
<path d="M141.732 28.1379C137.433 30.2612 125.913 35.9512 125.026 36.3903C124.337 35.6142 115.042 25.1173 112.205 21.9169C116.327 22.7868 136.167 26.9637 141.732 28.1379Z" fill="#F7CECC"/>
<path d="M128.953 37.5073C128.953 37.5073 129.059 37.6461 128.953 37.5073V37.5073ZM125.742 28.5821C124.96 28.575 124.223 28.877 123.655 29.4226C123.237 29.844 122.947 30.3718 122.832 30.9279C122.805 31.0209 122.815 31.1257 122.807 31.2211C122.423 31.0406 122.02 30.9265 121.583 30.9252C120.809 30.9106 120.058 31.216 119.506 31.7703C119.086 32.1733 118.795 32.6939 118.673 33.2631C118.633 33.4562 118.605 33.6455 118.606 33.8427C118.591 34.6247 118.882 35.3775 119.416 35.9382C119.627 36.1489 119.868 36.3267 120.132 36.4659C120.11 36.4897 120.082 36.4986 120.062 36.5216C119.648 36.9295 119.36 37.4497 119.235 38.0175C119.034 38.9552 119.279 39.9599 119.984 40.6856C121.095 41.8438 122.948 41.8668 124.116 40.7254C124.142 40.6891 124.158 40.6474 124.185 40.622C124.314 40.8993 124.459 41.1637 124.681 41.3886C125.216 41.9532 125.945 42.2643 126.726 42.2691C127.499 42.2761 128.24 41.9692 128.807 41.4225C129.22 41.0122 129.508 40.4915 129.637 39.9232C129.783 39.2363 129.682 38.5221 129.352 37.9097C129.912 37.8017 130.441 37.5508 130.867 37.1312C131.279 36.7226 131.567 36.2042 131.696 35.6383C131.895 34.6965 131.653 33.6895 130.951 32.9625C130.307 32.2995 129.406 32.0349 128.534 32.1392L128.541 32.1261C128.734 31.1936 128.486 30.1779 127.791 29.4547C127.255 28.8974 126.517 28.583 125.742 28.5821Z" fill="#231916"/>
<path d="M123.722 32.9005C123.931 32.7798 124.03 32.529 123.96 32.2992C123.718 31.628 123.892 30.8687 124.405 30.3625C124.752 30.0254 125.213 29.8364 125.69 29.8357C126.168 29.8379 126.622 30.0321 126.953 30.3756C127.573 31.0203 127.624 32.0561 127.055 32.7701C126.902 32.9702 126.908 33.2479 127.075 33.4369C127.242 33.6162 127.513 33.6493 127.722 33.5159C128.446 33.038 129.394 33.1391 129.985 33.7571C130.675 34.4696 130.643 35.6291 129.927 36.3339C129.471 36.7831 128.82 36.9605 128.211 36.8008C127.99 36.7503 127.771 36.8679 127.659 37.0797C127.546 37.2918 127.609 37.5565 127.778 37.7132L127.993 37.9021C128.407 38.337 128.579 38.9539 128.453 39.5513C128.376 39.9035 128.196 40.2259 127.937 40.4765C127.584 40.8189 127.134 41.0096 126.651 41.0034C126.166 41.0009 125.728 40.8085 125.39 40.4644C125.055 40.1118 124.876 39.635 124.894 39.1414C124.902 38.8849 124.718 38.6664 124.467 38.6333C124.216 38.5879 123.975 38.7507 123.903 38.9966C123.817 39.3076 123.65 39.5907 123.419 39.8153C122.705 40.5166 121.556 40.5099 120.878 39.7938C120.548 39.4505 120.369 38.9862 120.381 38.5036C120.393 38.021 120.594 37.5597 120.94 37.2216C121.163 36.9973 121.44 36.8366 121.743 36.7563C122.002 36.6837 122.16 36.448 122.134 36.1933C122.107 35.9408 121.891 35.7493 121.634 35.7487C121.141 35.7565 120.688 35.5585 120.344 35.211C120.019 34.8649 119.841 34.402 119.85 33.9204C119.86 33.4366 120.061 32.974 120.408 32.6353C120.75 32.2946 121.21 32.1051 121.686 32.1095C122.164 32.1086 122.619 32.3021 122.948 32.6466L123.076 32.798C123.233 32.9815 123.515 33.0314 123.722 32.9005Z" fill="#FFF696"/>
<path d="M123.484 34.0595C123.161 34.3792 122.928 34.7822 122.837 35.2252C122.808 35.3774 122.794 35.5258 122.789 35.6841C122.781 36.2963 123.016 36.8867 123.443 37.3262C123.871 37.7705 124.443 38.0091 125.066 38.0168C125.678 38.0287 126.269 37.7965 126.709 37.3714C127.146 36.943 127.397 36.3605 127.408 35.749C127.416 35.1342 127.18 34.5413 126.751 34.1002C125.866 33.1917 124.396 33.1724 123.485 34.0597" fill="#231916"/>
<path d="M124.281 36.877C124.048 36.639 123.92 36.3175 123.925 35.9842C123.928 35.648 124.065 35.3266 124.306 35.0918C124.803 34.6144 125.61 34.6256 126.09 35.1199C126.323 35.36 126.451 35.682 126.449 36.0163C126.441 36.3504 126.302 36.668 126.061 36.9006C125.825 37.1352 125.503 37.2633 125.17 37.2551C124.834 37.2553 124.513 37.1186 124.281 36.8767" fill="#FFF696"/>
</g>
<defs>
<filter id="filter0_f_1_350" x="36.5568" y="66.1261" width="156.344" height="156.344" filterUnits="userSpaceOnUse" color-interpolation-filters="sRGB">
<feFlood flood-opacity="0" result="BackgroundImageFix"/>
<feBlend mode="normal" in="SourceGraphic" in2="BackgroundImageFix" result="shape"/>
<feGaussianBlur stdDeviation="6.36589" result="effect1_foregroundBlur_1_350"/>
</filter>
<filter id="filter1_d_1_350" x="98.2674" y="56.1345" width="25.4643" height="41.1265" filterUnits="userSpaceOnUse" color-interpolation-filters="sRGB">
<feFlood flood-opacity="0" result="BackgroundImageFix"/>
<feColorMatrix in="SourceAlpha" type="matrix" values="0 0 0 0 0 0 0 0 0 0 0 0 0 0 0 0 0 0 127 0" result="hardAlpha"/>
<feOffset/>
<feGaussianBlur stdDeviation="3.18295"/>
<feColorMatrix type="matrix" values="0 0 0 0 1 0 0 0 0 1 0 0 0 0 1 0 0 0 0.5 0"/>
<feBlend mode="normal" in2="BackgroundImageFix" result="effect1_dropShadow_1_350"/>
<feBlend mode="normal" in="SourceGraphic" in2="effect1_dropShadow_1_350" result="shape"/>
</filter>
<filter id="filter2_d_1_350" x="154.091" y="92.1799" width="37.4712" height="35.0992" filterUnits="userSpaceOnUse" color-interpolation-filters="sRGB">
<feFlood flood-opacity="0" result="BackgroundImageFix"/>
<feColorMatrix in="SourceAlpha" type="matrix" values="0 0 0 0 0 0 0 0 0 0 0 0 0 0 0 0 0 0 127 0" result="hardAlpha"/>
<feOffset/>
<feGaussianBlur stdDeviation="3.18295"/>
<feColorMatrix type="matrix" values="0 0 0 0 1 0 0 0 0 1 0 0 0 0 1 0 0 0 0.5 0"/>
<feBlend mode="normal" in2="BackgroundImageFix" result="effect1_dropShadow_1_350"/>
<feBlend mode="normal" in="SourceGraphic" in2="effect1_dropShadow_1_350" result="shape"/>
</filter>
<linearGradient id="paint0_linear_1_350" x1="179" y1="70.5" x2="115" y2="155.5" gradientUnits="userSpaceOnUse">
<stop stop-color="#FFE1DF" stop-opacity="0.42"/>
<stop offset="1" stop-color="#F5ACB3" stop-opacity="0"/>
</linearGradient>
<linearGradient id="paint1_linear_1_350" x1="145.431" y1="86.522" x2="84.0264" y2="202.074" gradientUnits="userSpaceOnUse">
<stop stop-color="#F8D5D1"/>
<stop offset="1" stop-color="#F296A2"/>
</linearGradient>
<linearGradient id="paint2_linear_1_350" x1="143.127" y1="90.1036" x2="85.7052" y2="198.161" gradientUnits="userSpaceOnUse">
<stop stop-color="#F8D5D1"/>
<stop offset="1" stop-color="#F296A2"/>
</linearGradient>
<clipPath id="clip0_1_350">
<rect width="169.05" height="202.294" fill="white" transform="translate(95.3525 0.636658) rotate(27.9864)"/>
</clipPath>
</defs>
</svg>
