<svg width="16" height="18" viewBox="0 0 16 18" fill="none" xmlns="http://www.w3.org/2000/svg">
<path d="M11.1654 13.167C11.5126 13.167 11.8077 13.0455 12.0508 12.8024C12.2938 12.5594 12.4154 12.2642 12.4154 11.917C12.4154 11.5698 12.2938 11.2746 12.0508 11.0316C11.8077 10.7885 11.5126 10.667 11.1654 10.667C10.8181 10.667 10.523 10.7885 10.2799 11.0316C10.0369 11.2746 9.91536 11.5698 9.91536 11.917C9.91536 12.2642 10.0369 12.5594 10.2799 12.8024C10.523 13.0455 10.8181 13.167 11.1654 13.167ZM11.1654 15.667C11.5959 15.667 11.9918 15.5663 12.3529 15.3649C12.714 15.1635 13.0056 14.8962 13.2279 14.5628C12.9223 14.3823 12.5959 14.2434 12.2487 14.1462C11.9015 14.0489 11.5404 14.0003 11.1654 14.0003C10.7904 14.0003 10.4293 14.0489 10.082 14.1462C9.73481 14.2434 9.40842 14.3823 9.10287 14.5628C9.32509 14.8962 9.61675 15.1635 9.97786 15.3649C10.339 15.5663 10.7348 15.667 11.1654 15.667ZM6.9987 17.3337C5.06814 16.8475 3.47439 15.7399 2.21745 14.0107C0.960503 12.2816 0.332031 10.3614 0.332031 8.25033V3.16699L6.9987 0.666992L13.6654 3.16699V7.89616C13.4015 7.78505 13.1306 7.68435 12.8529 7.59408C12.5751 7.5038 12.2904 7.43783 11.9987 7.39616V4.33366L6.9987 2.45866L1.9987 4.33366V8.25033C1.9987 8.9031 2.0855 9.55588 2.25911 10.2087C2.43273 10.8614 2.67578 11.483 2.98828 12.0732C3.30078 12.6635 3.67925 13.2087 4.1237 13.7087C4.56814 14.2087 5.0612 14.6253 5.60286 14.9587C5.75564 15.4031 5.95703 15.8267 6.20703 16.2295C6.45703 16.6323 6.74175 16.9934 7.0612 17.3128C7.04731 17.3128 7.03689 17.3163 7.02995 17.3232C7.023 17.3302 7.01259 17.3337 6.9987 17.3337ZM11.1654 17.3337C10.0126 17.3337 9.02995 16.9274 8.21745 16.1149C7.40495 15.3024 6.9987 14.3198 6.9987 13.167C6.9987 12.0142 7.40495 11.0316 8.21745 10.2191C9.02995 9.40658 10.0126 9.00033 11.1654 9.00033C12.3181 9.00033 13.3008 9.40658 14.1133 10.2191C14.9258 11.0316 15.332 12.0142 15.332 13.167C15.332 14.3198 14.9258 15.3024 14.1133 16.1149C13.3008 16.9274 12.3181 17.3337 11.1654 17.3337Z" fill="white"/>
</svg>
