<svg width="20" height="20" viewBox="0 0 20 20" fill="none" xmlns="http://www.w3.org/2000/svg">
<mask id="mask0_848_11521" style="mask-type:alpha" maskUnits="userSpaceOnUse" x="0" y="0" width="20" height="20">
<rect width="20" height="20" fill="#D9D9D9"/>
</mask>
<g mask="url(#mask0_848_11521)">
<path d="M6.16698 14.375C5.58365 14.8611 4.97601 15.0833 4.34406 15.0417C3.71212 15 3.16004 14.7847 2.68781 14.3958C2.21559 14.0069 1.89267 13.4965 1.71906 12.8646C1.54545 12.2326 1.66004 11.5833 2.06281 10.9167L3.62531 8.33333C3.27809 8.02778 3.00379 7.65972 2.8024 7.22917C2.60101 6.79861 2.50031 6.33333 2.50031 5.83333C2.50031 4.91667 2.8267 4.13194 3.47948 3.47917C4.13226 2.82639 4.91698 2.5 5.83365 2.5C6.75031 2.5 7.53504 2.82639 8.18781 3.47917C8.84059 4.13194 9.16698 4.91667 9.16698 5.83333C9.16698 6.75 8.84059 7.53472 8.18781 8.1875C7.53504 8.84028 6.75031 9.16667 5.83365 9.16667C5.70865 9.16667 5.58365 9.15972 5.45865 9.14583C5.33365 9.13194 5.21559 9.11111 5.10448 9.08333L3.50031 11.7917C3.34754 12.0417 3.29893 12.2882 3.35448 12.5312C3.41004 12.7743 3.52809 12.9722 3.70865 13.125C3.8892 13.2778 4.10448 13.3646 4.35448 13.3854C4.60448 13.4062 4.84754 13.3194 5.08365 13.125L13.8336 5.60417C14.417 5.11806 15.0281 4.89931 15.667 4.94792C16.3059 4.99653 16.8614 5.21528 17.3336 5.60417C17.8059 5.99306 18.1253 6.50347 18.292 7.13542C18.4586 7.76736 18.3406 8.41667 17.9378 9.08333L16.3753 11.6667C16.7225 11.9722 16.9968 12.3403 17.1982 12.7708C17.3996 13.2014 17.5003 13.6667 17.5003 14.1667C17.5003 15.0833 17.1739 15.8681 16.5211 16.5208C15.8684 17.1736 15.0836 17.5 14.167 17.5C13.2503 17.5 12.4656 17.1736 11.8128 16.5208C11.16 15.8681 10.8336 15.0833 10.8336 14.1667C10.8336 13.25 11.16 12.4653 11.8128 11.8125C12.4656 11.1597 13.2503 10.8333 14.167 10.8333C14.292 10.8333 14.4135 10.8403 14.5316 10.8542C14.6496 10.8681 14.7642 10.8889 14.8753 10.9167L16.5003 8.20833C16.6531 7.95833 16.7017 7.71181 16.6461 7.46875C16.5906 7.22569 16.4725 7.02778 16.292 6.875C16.1114 6.72222 15.8961 6.63542 15.6461 6.61458C15.3961 6.59375 15.1531 6.68056 14.917 6.875L6.16698 14.375ZM5.83365 7.5C6.29198 7.5 6.68434 7.33681 7.01073 7.01042C7.33712 6.68403 7.50031 6.29167 7.50031 5.83333C7.50031 5.375 7.33712 4.98264 7.01073 4.65625C6.68434 4.32986 6.29198 4.16667 5.83365 4.16667C5.37531 4.16667 4.98295 4.32986 4.65656 4.65625C4.33017 4.98264 4.16698 5.375 4.16698 5.83333C4.16698 6.29167 4.33017 6.68403 4.65656 7.01042C4.98295 7.33681 5.37531 7.5 5.83365 7.5ZM14.167 15.8333C14.6253 15.8333 15.0177 15.6701 15.3441 15.3438C15.6705 15.0174 15.8336 14.625 15.8336 14.1667C15.8336 13.7083 15.6705 13.316 15.3441 12.9896C15.0177 12.6632 14.6253 12.5 14.167 12.5C13.7086 12.5 13.3163 12.6632 12.9899 12.9896C12.6635 13.316 12.5003 13.7083 12.5003 14.1667C12.5003 14.625 12.6635 15.0174 12.9899 15.3438C13.3163 15.6701 13.7086 15.8333 14.167 15.8333Z" fill="#999999"/>
</g>
</svg>
