<svg width="20" height="20" viewBox="0 0 20 20" fill="none" xmlns="http://www.w3.org/2000/svg">
<mask id="mask0_848_11477" style="mask-type:alpha" maskUnits="userSpaceOnUse" x="0" y="0" width="20" height="20">
<rect width="20" height="20" fill="#D9D9D9"/>
</mask>
<g mask="url(#mask0_848_11477)">
<path d="M10 16.667C10.7083 16.667 11.3889 16.5594 12.0417 16.3441C12.6944 16.1288 13.3056 15.8198 13.875 15.417C13.3056 15.0142 12.6944 14.7052 12.0417 14.4899C11.3889 14.2746 10.7083 14.167 10 14.167C9.29167 14.167 8.61111 14.2746 7.95833 14.4899C7.30556 14.7052 6.69444 15.0142 6.125 15.417C6.69444 15.8198 7.30556 16.1288 7.95833 16.3441C8.61111 16.5594 9.29167 16.667 10 16.667ZM12.2083 9.83366L11.0208 8.64616C11.0903 8.53505 11.1458 8.41699 11.1875 8.29199C11.2292 8.16699 11.25 8.04199 11.25 7.91699C11.25 7.56977 11.1285 7.27463 10.8854 7.03158C10.6424 6.78852 10.3472 6.66699 10 6.66699C9.875 6.66699 9.75 6.68783 9.625 6.72949C9.5 6.77116 9.38194 6.82671 9.27083 6.89616L8.08333 5.70866C8.34722 5.47255 8.64236 5.29546 8.96875 5.17741C9.29514 5.05935 9.63889 5.00033 10 5.00033C10.8056 5.00033 11.4931 5.28505 12.0625 5.85449C12.6319 6.42394 12.9167 7.11144 12.9167 7.91699C12.9167 8.2781 12.8576 8.62185 12.7396 8.94824C12.6215 9.27463 12.4444 9.56977 12.2083 9.83366ZM16.9583 14.5837L15.75 13.3753C16.0556 12.8614 16.2847 12.3198 16.4375 11.7503C16.5903 11.1809 16.6667 10.5975 16.6667 10.0003C16.6667 8.13921 16.0208 6.56283 14.7292 5.27116C13.4375 3.97949 11.8611 3.33366 10 3.33366C9.40278 3.33366 8.81944 3.41005 8.25 3.56283C7.68056 3.7156 7.13889 3.94477 6.625 4.25033L5.41667 3.04199C6.09722 2.59755 6.82639 2.25727 7.60417 2.02116C8.38194 1.78505 9.18056 1.66699 10 1.66699C11.1528 1.66699 12.2361 1.88574 13.25 2.32324C14.2639 2.76074 15.1458 3.35449 15.8958 4.10449C16.6458 4.85449 17.2396 5.73644 17.6771 6.75033C18.1146 7.76421 18.3333 8.84755 18.3333 10.0003C18.3333 10.8198 18.2153 11.6184 17.9792 12.3962C17.7431 13.1739 17.4028 13.9031 16.9583 14.5837ZM10 18.3337C8.84722 18.3337 7.76389 18.1149 6.75 17.6774C5.73611 17.2399 4.85417 16.6462 4.10417 15.8962C3.35417 15.1462 2.76042 14.2642 2.32292 13.2503C1.88542 12.2364 1.66667 11.1531 1.66667 10.0003C1.66667 9.18088 1.78125 8.38227 2.01042 7.60449C2.23958 6.82671 2.57639 6.0906 3.02083 5.39616L0.5625 2.91699L1.75 1.72949L18.25 18.2295L17.0625 19.417L4.25 6.62533C3.94444 7.13921 3.71528 7.68088 3.5625 8.25033C3.40972 8.81977 3.33333 9.4031 3.33333 10.0003C3.33333 10.792 3.46528 11.5489 3.72917 12.2712C3.99306 12.9934 4.375 13.6531 4.875 14.2503C5.625 13.6809 6.43403 13.2469 7.30208 12.9482C8.17014 12.6496 9.06944 12.5003 10 12.5003C10.5278 12.5003 11.0556 12.5559 11.5833 12.667C12.1111 12.7781 12.625 12.9309 13.125 13.1253L15.8958 15.8962C15.1042 16.6878 14.2014 17.292 13.1875 17.7087C12.1736 18.1253 11.1111 18.3337 10 18.3337Z" fill="#999999"/>
</g>
</svg>
