<svg width="20" height="20" viewBox="0 0 20 20" fill="none" xmlns="http://www.w3.org/2000/svg">
<mask id="mask0_848_11511" style="mask-type:alpha" maskUnits="userSpaceOnUse" x="0" y="0" width="20" height="20">
<rect width="20" height="20" fill="#D9D9D9"/>
</mask>
<g mask="url(#mask0_848_11511)">
<path d="M9.89505 16.667C9.95061 16.667 10.0062 16.6531 10.0617 16.6253C10.1173 16.5975 10.1589 16.5698 10.1867 16.542L17.0201 9.70866C17.1867 9.54199 17.3082 9.35449 17.3846 9.14616C17.461 8.93783 17.4992 8.72949 17.4992 8.52116C17.4992 8.29894 17.461 8.08713 17.3846 7.88574C17.3082 7.68435 17.1867 7.50727 17.0201 7.35449L13.4784 3.81283C13.3256 3.64616 13.1485 3.52463 12.9471 3.44824C12.7457 3.37185 12.5339 3.33366 12.3117 3.33366C12.1034 3.33366 11.8951 3.37185 11.6867 3.44824C11.4784 3.52463 11.2909 3.64616 11.1242 3.81283L10.8951 4.04199L12.4367 5.60449C12.6451 5.79894 12.7978 6.02116 12.8951 6.27116C12.9923 6.52116 13.0409 6.78505 13.0409 7.06283C13.0409 7.64616 12.843 8.13574 12.4471 8.53158C12.0513 8.92741 11.5617 9.12533 10.9784 9.12533C10.7006 9.12533 10.4332 9.07671 10.1763 8.97949C9.91936 8.88227 9.69366 8.73644 9.49922 8.54199L7.93672 7.00033L4.29089 10.6462C4.24922 10.6878 4.21797 10.733 4.19714 10.7816C4.1763 10.8302 4.16589 10.8823 4.16589 10.9378C4.16589 11.0489 4.20755 11.1496 4.29089 11.2399C4.37422 11.3302 4.47144 11.3753 4.58255 11.3753C4.63811 11.3753 4.69366 11.3614 4.74922 11.3337C4.80477 11.3059 4.84644 11.2781 4.87422 11.2503L7.70755 8.41699L8.87422 9.58366L6.06172 12.417C6.02005 12.4587 5.9888 12.5038 5.96797 12.5524C5.94714 12.601 5.93672 12.6531 5.93672 12.7087C5.93672 12.8198 5.97839 12.917 6.06172 13.0003C6.14505 13.0837 6.24227 13.1253 6.35339 13.1253C6.40894 13.1253 6.4645 13.1114 6.52005 13.0837C6.57561 13.0559 6.61727 13.0281 6.64505 13.0003L9.47839 10.1878L10.6451 11.3545L7.83255 14.1878C7.79089 14.2156 7.75964 14.2573 7.7388 14.3128C7.71797 14.3684 7.70755 14.4239 7.70755 14.4795C7.70755 14.5906 7.74922 14.6878 7.83255 14.7712C7.91589 14.8545 8.01311 14.8962 8.12422 14.8962C8.17977 14.8962 8.23186 14.8857 8.28047 14.8649C8.32908 14.8441 8.37422 14.8128 8.41589 14.7712L11.2492 11.9587L12.4159 13.1253L9.58255 15.9587C9.54089 16.0003 9.50964 16.0455 9.4888 16.0941C9.46797 16.1427 9.45755 16.1948 9.45755 16.2503C9.45755 16.3614 9.50269 16.4587 9.59297 16.542C9.68325 16.6253 9.78394 16.667 9.89505 16.667ZM9.87422 18.3337C9.36033 18.3337 8.90547 18.1635 8.50964 17.8232C8.1138 17.483 7.88116 17.0559 7.81172 16.542C7.3395 16.4725 6.94366 16.2781 6.62422 15.9587C6.30477 15.6392 6.11033 15.2434 6.04089 14.7712C5.56866 14.7017 5.1763 14.5038 4.8638 14.1774C4.5513 13.851 4.36033 13.4587 4.29089 13.0003C3.76311 12.9309 3.33255 12.7017 2.99922 12.3128C2.66589 11.9239 2.49922 11.4656 2.49922 10.9378C2.49922 10.66 2.5513 10.3927 2.65547 10.1357C2.75964 9.8788 2.90894 9.6531 3.10339 9.45866L7.93672 4.64616L10.6659 7.37533C10.6937 7.41699 10.7353 7.44824 10.7909 7.46908C10.8464 7.48991 10.902 7.50033 10.9576 7.50033C11.0826 7.50033 11.1867 7.46213 11.2701 7.38574C11.3534 7.30935 11.3951 7.20866 11.3951 7.08366C11.3951 7.0281 11.3846 6.97255 11.3638 6.91699C11.343 6.86144 11.3117 6.81977 11.2701 6.79199L8.29089 3.81283C8.13811 3.64616 7.96102 3.52463 7.75964 3.44824C7.55825 3.37185 7.34644 3.33366 7.12422 3.33366C6.91589 3.33366 6.70755 3.37185 6.49922 3.44824C6.29089 3.52463 6.10339 3.64616 5.93672 3.81283L2.99922 6.77116C2.87422 6.89616 2.77005 7.04199 2.68672 7.20866C2.60339 7.37533 2.54783 7.54199 2.52005 7.70866C2.49227 7.87533 2.49227 8.04546 2.52005 8.21908C2.54783 8.39269 2.60339 8.55588 2.68672 8.70866L1.47839 9.91699C1.24227 9.59755 1.06866 9.24685 0.957552 8.86491C0.846441 8.48296 0.804774 8.09755 0.832552 7.70866C0.86033 7.31977 0.957552 6.9413 1.12422 6.57324C1.29089 6.20519 1.52005 5.87533 1.81172 5.58366L4.74922 2.64616C5.08255 2.32671 5.45408 2.08366 5.8638 1.91699C6.27352 1.75033 6.69366 1.66699 7.12422 1.66699C7.55477 1.66699 7.97491 1.75033 8.38464 1.91699C8.79436 2.08366 9.15894 2.32671 9.47839 2.64616L9.70755 2.87533L9.93672 2.64616C10.2701 2.32671 10.6416 2.08366 11.0513 1.91699C11.461 1.75033 11.8812 1.66699 12.3117 1.66699C12.7423 1.66699 13.1624 1.75033 13.5721 1.91699C13.9819 2.08366 14.3464 2.32671 14.6659 2.64616L18.1867 6.16699C18.5062 6.48644 18.7492 6.85449 18.9159 7.27116C19.0826 7.68783 19.1659 8.11144 19.1659 8.54199C19.1659 8.97255 19.0826 9.39269 18.9159 9.80241C18.7492 10.2121 18.5062 10.5767 18.1867 10.8962L11.3534 17.7087C11.1589 17.9031 10.9332 18.0559 10.6763 18.167C10.4194 18.2781 10.152 18.3337 9.87422 18.3337Z" fill="#999999"/>
</g>
</svg>
