<svg width="23" height="22" viewBox="0 0 23 22" fill="none" xmlns="http://www.w3.org/2000/svg">
<circle cx="15.5199" cy="7.48086" r="6.6" fill="#848E9C"/>
<circle cx="11.12" cy="11.0004" r="6.6" fill="#326AD5"/>
<path d="M11.3582 6.75968L11.0046 6.40604L10.651 6.75963L6.76159 10.6491L6.40803 11.0026L6.76159 11.3562L10.651 15.2456L11.0046 15.5992L11.3582 15.2455L15.2467 11.3561L15.6001 11.0026L15.2467 10.6491L11.3582 6.75968ZM11.0046 19.6693C6.21795 19.6693 2.33789 15.7892 2.33789 11.0026C2.33789 6.216 6.21795 2.33594 11.0046 2.33594C15.7912 2.33594 19.6712 6.216 19.6712 11.0026C19.6712 15.7892 15.7912 19.6693 11.0046 19.6693Z" fill="#326AD5" stroke="#2E2D2D"/>
</svg>
