<svg width="15" height="14" viewBox="0 0 15 14" fill="none" xmlns="http://www.w3.org/2000/svg">
<path fill-rule="evenodd" clip-rule="evenodd" d="M7.46256 1.75C6.3796 1.75 5.34099 2.18021 4.57521 2.94598C3.80944 3.71175 3.37923 4.75037 3.37923 5.83333V7.58333L2.7959 8.16667V9.33333H12.1292V8.16667L11.5459 7.58333V5.83333C11.5459 4.75037 11.1157 3.71175 10.3499 2.94598C9.58414 2.18021 8.54553 1.75 7.46256 1.75ZM7.46256 12.25C6.89492 12.2501 6.33959 12.0846 5.86462 11.7737C5.38965 11.4629 5.01569 11.0202 4.78856 10.5H10.1366C9.90944 11.0202 9.53548 11.4629 9.06051 11.7737C8.58554 12.0846 8.03021 12.2501 7.46256 12.25Z" fill="#848E9C"/>
</svg>
