<svg width="22" height="22" viewBox="0 0 22 22" fill="none" xmlns="http://www.w3.org/2000/svg">
<path d="M12.4717 2.7956C13.3884 2.1356 14.4517 1.8056 15.6526 1.8056C16.3126 1.8056 17.0367 1.97977 17.8251 2.34643C18.6134 2.70393 19.2367 3.1256 19.6951 3.61143C20.6392 4.78477 21.0334 6.1506 20.8959 7.70893C20.7492 9.26727 20.2359 10.4864 19.3467 11.3481L12.3892 18.3056C12.2151 18.4798 11.9951 18.5623 11.7384 18.5623C11.4817 18.5623 11.2709 18.4798 11.0967 18.3056C11.0121 18.2221 10.9456 18.122 10.9014 18.0116C10.8573 17.9011 10.8364 17.7828 10.8401 17.6639C10.8401 17.4073 10.9226 17.1873 11.0967 17.0131L15.3042 12.8056C15.5334 12.6039 15.5334 12.3931 15.3042 12.1639C15.0751 11.9348 14.8642 11.9348 14.6626 12.1639L10.4551 16.3714C10.3702 16.4569 10.2686 16.5238 10.1566 16.568C10.0445 16.6122 9.92458 16.6326 9.80424 16.6281C9.54758 16.6281 9.33674 16.5456 9.16258 16.3714C9.07792 16.2879 9.01142 16.1878 8.96725 16.0774C8.92308 15.967 8.9022 15.8486 8.90591 15.7298C8.90591 15.4731 8.98841 15.2531 9.16258 15.0789L13.3701 10.8714C13.6176 10.6423 13.6176 10.4131 13.3701 10.1839C13.1592 9.95477 12.9576 9.95477 12.7284 10.1839L8.52091 14.4373C8.43511 14.5214 8.3333 14.5875 8.22151 14.6316C8.10971 14.6756 7.99021 14.6969 7.87008 14.6939C7.61341 14.6939 7.39341 14.6114 7.20091 14.4373C7.01758 14.2631 6.92591 14.0523 6.92591 13.7956C6.92591 13.5389 7.02674 13.3098 7.22841 13.1081L11.4451 8.89143C11.6742 8.66227 11.6742 8.45143 11.4451 8.24977C11.2159 8.0481 10.9959 8.0481 10.7942 8.24977L6.54091 12.4756C6.33924 12.6589 6.12841 12.7598 5.89924 12.7598C5.64258 12.7598 5.42258 12.6681 5.25758 12.4756C5.08341 12.2923 4.99174 12.0723 4.99174 11.8156C4.99174 11.5589 5.08341 11.3481 5.25758 11.1739C8.06258 8.3506 9.79508 6.6456 10.4551 6.0131L13.7184 9.23977C14.0759 9.57893 14.4884 9.7531 14.9926 9.7531C15.6342 9.7531 16.1384 9.49643 16.5142 8.9831C16.7709 8.60727 16.8626 8.19477 16.7892 7.73643C16.7159 7.2781 16.5234 6.8931 16.2117 6.57227L12.4717 2.7956ZM14.3601 8.5981L10.4551 4.68393L3.96508 11.1739C3.19508 10.3948 2.75508 9.2031 2.65424 7.5806C2.55341 5.96727 2.99341 4.56477 3.96508 3.39143C5.05591 2.30977 6.35758 1.75977 7.87008 1.75977C9.39174 1.75977 10.6842 2.30977 11.7384 3.39143L15.6526 7.3056C15.8267 7.47977 15.9092 7.6906 15.9092 7.94727C15.9092 8.20393 15.8267 8.42393 15.6526 8.5981C15.4784 8.7631 15.2676 8.85477 14.9926 8.85477C14.7451 8.85477 14.5342 8.7631 14.3601 8.5981Z" fill="#326AD5"/>
</svg>
