<svg width="30" height="30" viewBox="0 0 30 30" fill="none" xmlns="http://www.w3.org/2000/svg">
<g clip-path="url(#clip0_2504_22038)">
<path fill-rule="evenodd" clip-rule="evenodd" d="M15.0003 8.33301C15.7128 8.33301 16.4437 8.35134 17.152 8.38134L17.9887 8.42134L18.7895 8.46884L19.5395 8.51967L20.2245 8.57301C20.9679 8.62991 21.6674 8.94713 22.1999 9.46887C22.7325 9.99062 23.064 10.6835 23.1362 11.4255L23.1695 11.7797L23.232 12.538C23.2903 13.3238 23.3337 14.1805 23.3337 14.9997C23.3337 15.8188 23.2903 16.6755 23.232 17.4613L23.1695 18.2197C23.1587 18.3413 23.1478 18.4588 23.1362 18.5738C23.064 19.316 22.7323 20.009 22.1996 20.5307C21.6669 21.0525 20.9672 21.3696 20.2237 21.4263L19.5403 21.4788L18.7903 21.5305L17.9887 21.578L17.152 21.618C16.4352 21.6492 15.7178 21.6653 15.0003 21.6663C14.2828 21.6653 13.5655 21.6492 12.8487 21.618L12.012 21.578L11.2112 21.5305L10.4612 21.4788L9.77616 21.4263C9.03278 21.3694 8.33329 21.0522 7.80072 20.5305C7.26815 20.0087 6.93664 19.3159 6.86449 18.5738L6.83116 18.2197L6.76866 17.4613C6.70494 16.6423 6.67103 15.8212 6.66699 14.9997C6.66699 14.1805 6.71033 13.3238 6.76866 12.538L6.83116 11.7797C6.84199 11.658 6.85283 11.5405 6.86449 11.4255C6.93661 10.6836 7.26801 9.99085 7.8004 9.46913C8.3328 8.9474 9.0321 8.63009 9.77533 8.57301L10.4595 8.51967L11.2095 8.46884L12.0112 8.42134L12.8478 8.38134C13.5649 8.3502 14.2826 8.33409 15.0003 8.33301ZM13.3337 12.9788V17.0205C13.3337 17.4055 13.7503 17.6455 14.0837 17.4538L17.5837 15.433C17.6598 15.3892 17.7231 15.326 17.7671 15.25C17.8111 15.1739 17.8342 15.0876 17.8342 14.9997C17.8342 14.9118 17.8111 14.8255 17.7671 14.7494C17.7231 14.6733 17.6598 14.6102 17.5837 14.5663L14.0837 12.5463C14.0076 12.5024 13.9214 12.4793 13.8336 12.4794C13.7458 12.4794 13.6595 12.5025 13.5835 12.5464C13.5075 12.5903 13.4444 12.6535 13.4005 12.7296C13.3567 12.8056 13.3336 12.8919 13.3337 12.9797" fill="white"/>
</g>
<circle cx="15" cy="15" r="15" fill="#1058DE"/>
<g clip-path="url(#clip1_2504_22038)">
<path d="M11.667 10C12.9931 10 14.2648 10.5268 15.2025 11.4645C16.1402 12.4021 16.667 13.6739 16.667 15C16.667 16.3261 16.1402 17.5979 15.2025 18.5355C14.2648 19.4732 12.9931 20 11.667 20C10.3409 20 9.06914 19.4732 8.13146 18.5355C7.19378 17.5979 6.66699 16.3261 6.66699 15C6.66699 13.6739 7.19378 12.4021 8.13146 11.4645C9.06914 10.5268 10.3409 10 11.667 10ZM19.167 10.8333C20.417 10.8333 21.2503 12.6992 21.2503 15C21.2503 17.3008 20.417 19.1667 19.167 19.1667C17.917 19.1667 17.0837 17.3008 17.0837 15C17.0837 12.6992 17.917 10.8333 19.167 10.8333ZM22.5003 11.25C22.817 11.25 23.0937 11.9392 23.2337 13.1217L23.2728 13.4908L23.2887 13.6867L23.3137 14.0983L23.322 14.3142L23.332 14.765L23.3337 15L23.332 15.235L23.322 15.6858L23.3137 15.9025L23.2887 16.3133L23.272 16.5092L23.2345 16.8783C23.0937 18.0617 22.8178 18.75 22.5003 18.75C22.1837 18.75 21.907 18.0608 21.767 16.8783L21.7278 16.5092C21.7221 16.4439 21.7168 16.3786 21.712 16.3133L21.687 15.9017C21.6838 15.8297 21.681 15.7578 21.6787 15.6858L21.6687 15.235V14.765L21.6787 14.3142L21.687 14.0975L21.712 13.6867L21.7287 13.4908L21.7662 13.1217C21.907 11.9383 22.1828 11.25 22.5003 11.25Z" fill="white"/>
</g>
<defs>
<clipPath id="clip0_2504_22038">
<rect width="20" height="20" fill="white" transform="translate(5 5)"/>
</clipPath>
<clipPath id="clip1_2504_22038">
<rect width="20" height="20" fill="white" transform="translate(5 5)"/>
</clipPath>
</defs>
</svg>
