<svg width="15" height="14" viewBox="0 0 15 14" fill="none" xmlns="http://www.w3.org/2000/svg">
<path fill-rule="evenodd" clip-rule="evenodd" d="M2.95996 9.33398V2.33398H12.2933V9.33398L7.62663 12.2507L2.95996 9.33398ZM8.79329 5.69398C8.79329 5.89877 8.73938 6.09995 8.63698 6.2773C8.53459 6.45465 8.38731 6.60192 8.20996 6.70432V8.16615H7.04329V6.70432C6.86594 6.60192 6.71866 6.45464 6.61626 6.27728C6.51387 6.09993 6.45996 5.89874 6.45996 5.69395C6.45996 5.48915 6.51387 5.28797 6.61627 5.11061C6.71867 4.93326 6.86595 4.78598 7.04331 4.68358C7.22066 4.58119 7.42185 4.52728 7.62665 4.52729C7.83144 4.52729 8.03263 4.5812 8.20998 4.6836C8.38734 4.786 8.53461 4.93328 8.637 5.11064C8.7394 5.288 8.7933 5.48919 8.79329 5.69398Z" fill="#848E9C"/>
</svg>
