<svg width="31" height="31" viewBox="0 0 31 31" fill="none" xmlns="http://www.w3.org/2000/svg">
<g id="icon-appStore.9156e94b.svg">
<path id="Vector" fill-rule="evenodd" clip-rule="evenodd" d="M20.1961 1.82001C20.3167 3.38764 19.8181 4.94031 18.806 6.14827C17.8243 7.36237 16.3367 8.06167 14.77 8.04561C14.6705 6.52341 15.1835 5.02432 16.1962 3.87844C17.2217 2.71654 18.6499 1.98157 20.1961 1.82001ZM25.1533 11.0301C23.3513 12.132 22.2424 14.0749 22.2152 16.1783C22.2175 18.5582 23.6497 20.7061 25.8539 21.6332C25.4303 23.0027 24.7915 24.2969 23.9614 25.468C22.8458 27.1262 21.6766 28.7464 19.8211 28.7773C18.9382 28.7974 18.3424 28.5451 17.7215 28.2823C17.0738 28.0081 16.3988 27.7223 15.3422 27.7223C14.2222 27.7223 13.5171 28.0172 12.837 28.3015C12.2495 28.5472 11.6806 28.7849 10.879 28.8182C9.11228 28.8829 7.76039 27.0482 6.60458 25.4044C4.29503 22.0489 2.49629 15.9473 4.90802 11.7956C6.04037 9.77175 8.15792 8.48737 10.4858 8.41243C11.488 8.39208 12.4498 8.77624 13.293 9.11307C13.9381 9.37074 14.5138 9.6007 14.9852 9.6007C15.3995 9.6007 15.9589 9.37995 16.6108 9.12265C17.6378 8.71731 18.8945 8.22126 20.1761 8.35497C22.1665 8.41672 24.011 9.40813 25.1533 11.0301Z" fill="white"/>
</g>
</svg>
