<svg width="22" height="22" viewBox="0 0 22 22" fill="none" xmlns="http://www.w3.org/2000/svg">
<path d="M8.24984 10.9993C8.73607 10.9993 9.20238 10.8062 9.5462 10.4624C9.89002 10.1186 10.0832 9.65225 10.0832 9.16602C10.0832 8.67979 9.89002 8.21347 9.5462 7.86965C9.20238 7.52584 8.73607 7.33268 8.24984 7.33268C7.76361 7.33268 7.29729 7.52584 6.95347 7.86965C6.60966 8.21347 6.4165 8.67979 6.4165 9.16602C6.4165 9.65225 6.60966 10.1186 6.95347 10.4624C7.29729 10.8062 7.76361 10.9993 8.24984 10.9993ZM19.7082 5.95768L10.9998 0.916016L2.2915 5.95768V16.041L10.9998 21.0827L19.7082 16.041V5.95768ZM10.9998 3.03443L17.8748 7.0146V13.3213L13.693 10.8133L6.38625 16.2931L4.12484 14.9841V7.0146L10.9998 3.03443ZM10.9998 18.9643L8.1105 17.2913L13.8067 13.0197L17.4715 15.2178L10.9998 18.9643Z" fill="#326AD5"/>
</svg>
