<svg width="17" height="17" viewBox="0 0 17 17" fill="none" xmlns="http://www.w3.org/2000/svg">
<path fill-rule="evenodd" clip-rule="evenodd" d="M14.9316 4.50072H9.73831C9.53927 4.00777 9.19747 3.58554 8.75678 3.28821C8.31608 2.99089 7.79659 2.83203 7.26497 2.83203C6.73336 2.83203 6.21387 2.99089 5.77317 3.28821C5.33247 3.58554 4.99068 4.00777 4.79164 4.50072H2.93164V6.50072H4.79164C4.99068 6.99367 5.33247 7.4159 5.77317 7.71323C6.21387 8.01055 6.73336 8.16941 7.26497 8.16941C7.79659 8.16941 8.31608 8.01055 8.75678 7.71323C9.19747 7.4159 9.53927 6.99367 9.73831 6.50072H14.9316V4.50072ZM8.12497 10.5007H2.93164V12.5007H8.12497C8.32401 12.9937 8.66581 13.4159 9.1065 13.7132C9.5472 14.0106 10.0667 14.1694 10.5983 14.1694C11.1299 14.1694 11.6494 14.0106 12.0901 13.7132C12.5308 13.4159 12.8726 12.9937 13.0716 12.5007H14.9316V10.5007H13.0716C12.8726 10.0078 12.5308 9.58554 12.0901 9.28821C11.6494 8.99089 11.1299 8.83203 10.5983 8.83203C10.0667 8.83203 9.5472 8.99089 9.1065 9.28821C8.66581 9.58554 8.32401 10.0078 8.12497 10.5007Z" fill="#848E9C"/>
</svg>
