<svg xmlns="http://www.w3.org/2000/svg" viewBox="0 0 186.47 186.47"><defs><style>.cls-1{fill:#304ffe;}.cls-2{fill:#4928f4;}.cls-3{fill:#6200ea;}.cls-4{fill:#673ab7;}.cls-5{fill:#8e24aa;}.cls-6{fill:#c2185b;}.cls-7{fill:#d81b60;}.cls-8{fill:#f50057;}.cls-9{fill:#ff1744;}.cls-10{fill:#ff5722;}.cls-11{fill:#ff6f00;}.cls-12{fill:#ff9800;}.cls-13{fill:#ffc107;}.cls-14{fill:#ffd54f;}.cls-15{fill:#ffe082;}.cls-16{fill:#ffecb3;}.cls-17{fill:none;stroke:#fff;stroke-linecap:round;stroke-linejoin:round;stroke-width:10.36px;}.cls-18{fill:#fff;}</style></defs><g id="Layer_2" data-name="Layer 2"><g id="Layer_1-2" data-name="Layer 1"><path class="cls-1" d="M184.76,38.74c-2.07,1.35-5,2.59-6.27,4a1.71,1.71,0,0,0-.62,1.5v5.34l-1.55,5.23L174.76,60l-1.71,5.7-3.52,11.65-3.42,11.5-2.59,8.65c0,1.35-.05,2.69-.15,4a51.5,51.5,0,0,1-3.06,14.19,46.48,46.48,0,0,1-3.63,7.87,32.15,32.15,0,0,1-1.76,2.91,48.23,48.23,0,0,1-7.3,8.9,43,43,0,0,1-7,5.75h0a6.47,6.47,0,0,1-1.4.94,37.67,37.67,0,0,1-5.08,2.84,31.45,31.45,0,0,1-3.62,1.61,5,5,0,0,1-.83.36,34,34,0,0,1-9.79,2.8c-.21.05-.37.05-.57.1a58.93,58.93,0,0,1-6.17.83,24.63,24.63,0,0,1-2.85.16l-3.67-.21-17.72-.93c0-.05,0,0,0,0l-8.91-.47c-.67,0-1.4,0-2.07-.05a47.25,47.25,0,0,1-8.18-1h-.06A54.64,54.64,0,0,1,48.53,139c-.93-.67-1.81-1.4-2.69-2.17a69.54,69.54,0,0,1-6.79-6.58,11.39,11.39,0,0,1-.82-.93,13,13,0,0,1-.88-1,44.05,44.05,0,0,1-5-7.72,39.61,39.61,0,0,1-3-7.71,28.56,28.56,0,0,1-.78-3,.39.39,0,0,1-.1-.26,54.44,54.44,0,0,1-1.25-6.57A28.84,28.84,0,0,1,26.78,98a14.42,14.42,0,0,1-.1-2.07L36.57,80.6l9.68-14.92,4.41-6.79,4-6.11L56,50.66V45.32a26.87,26.87,0,0,0,.11-3.57,33.18,33.18,0,0,0-2-10.52,60.85,60.85,0,0,0-4.41-10c-2-3.57-4-6.78-5.74-9.68-2.54-4.25-4.3-7.72-3.84-10.15A51,51,0,0,1,51.8,0h82.87a52,52,0,0,1,48,32.42A44.49,44.49,0,0,1,184.76,38.74Z"/><path class="cls-2" d="M186.47,51.8v1.39l-7.15,4.15L174.76,60l-5,2.9-10.05,5.85-9.84,5.7-10,5.8-4,2.33a14,14,0,0,1-1.76,6.84A21,21,0,0,1,126.33,97a46.32,46.32,0,0,1-12.48,5.08s0,0,0,0c-18.44,4.77-43.62,2.59-55.84-6.53a17.77,17.77,0,0,1-6.84-9.22,15.11,15.11,0,0,1-.46-3.78V45.32A3,3,0,0,0,49.26,43c-2.8-2.23-9.38-4.35-16.73-6.47-5.75-1.61-11.92-3.21-17.09-4.77A50.83,50.83,0,0,1,5.8,28.07,55.29,55.29,0,0,1,9,22.74,52,52,0,0,1,40.14,1.35,51,51,0,0,1,51.8,0h55.94a174.54,174.54,0,0,1,75,32.42,44.49,44.49,0,0,1,2.07,6.32,48.23,48.23,0,0,1,1.66,10.62C186.47,50.14,186.47,51,186.47,51.8Z"/><path class="cls-3" d="M186.47,51.8V74.64l-1.14,3.52-3.89,12.07-4,12.43-2.12,6.63-2,6.16-1.92,5.86-1.86,5.8-1,3-1.3,4c0,3.94-.1,7.41-.36,10.36a6,6,0,0,0-.11.94,34.09,34.09,0,0,1-1.39,7,5.35,5.35,0,0,1-.26.88,13,13,0,0,1-6.37,7.67,15.56,15.56,0,0,1-2.44,1,40.94,40.94,0,0,1-10.46,1.66c-3.11.21-6.68.26-10.72.26h-3.58l-6.16-.26-1.09-.05-11.24-.47-11.39-.46-37.56-1.56-9.73-.41H53a83.82,83.82,0,0,1-10.52-.73,25,25,0,0,1-10.25-3.52c-3.63-2.33-5.75-5.75-7-10.51a25.6,25.6,0,0,1-.73-3.63,80.27,80.27,0,0,1-.93-10.36c0-.78,0-1.55-.05-2.38-.05,0,0,0,0,0v-3c-.05-1.5-.05-3-.05-4.66l.25-8.34.16-6,.21-6.94v-1L24.5,87l.36-12.74.36-12,.32-11.76.1-3.1c0-1.61-5.44-2.54-11.5-3.32C9.32,43.51,4,42.94.88,42.21c.26-1.19.52-2.38.83-3.52A47.93,47.93,0,0,1,5.8,28.07,55.29,55.29,0,0,1,9,22.74,172.84,172.84,0,0,1,44,11.5,164.84,164.84,0,0,1,178.49,42.73c2.69,2.07,5.34,4.3,7.93,6.63C186.47,50.14,186.47,51,186.47,51.8Z"/><path class="cls-4" d="M186.47,64.07V87.59l-2.85,5.49-5.44,10.62-2.9,5.59-2.64,5.13-1.14,2.23c0,1.6,0,3.16-.11,4.66,0,2.22-.1,4.35-.25,6.32-.21,2.33-.52,4.45-.83,6.42a37.07,37.07,0,0,1-3.42,10.51c-.21.37-.42.73-.62,1a20.12,20.12,0,0,1-2,2.64,15.22,15.22,0,0,1-3.16,2.95,22,22,0,0,1-6.22,3.27,42.77,42.77,0,0,1-10.41,2.22c-2.64.26-5.54.42-8.7.42l-2.18.1-10.77.62h0l-11.45.68-11.65.67-16.06.93-19.53,1.14-2.84.16a58.14,58.14,0,0,1-7.52-.47,3.47,3.47,0,0,0-.72-.1,38.49,38.49,0,0,1-9.63-2.8,31.29,31.29,0,0,1-9.17-6.11,34.05,34.05,0,0,1-5.86-7.62c-.36-.67-.72-1.29-1-2a47.76,47.76,0,0,1-3.73-10.2c-.16-.62-.31-1.29-.42-2a28.64,28.64,0,0,1-.72-3.73,83.69,83.69,0,0,1-1-10.51v-.05c-.05-1.51-.1-3-.1-4.51l-2.54-6.06-.36-.93-.31-.78-3.89-9.27-.62-1.5-3.73-9-4.14-10h0L1.5,63.71,0,60V51.8a53.2,53.2,0,0,1,.88-9.59c.26-1.19.52-2.38.83-3.52a140,140,0,0,1,13.73-6.94A149.81,149.81,0,0,1,49.72,21.18,156.42,156.42,0,0,1,77.28,18.7a154,154,0,0,1,99,36.1c1,.83,2,1.66,3,2.54C181.75,59.46,184.14,61.69,186.47,64.07Z"/><path class="cls-5" d="M186.47,79.51v26.62l-3,6.16L177.92,124l0,.15c0,2.23-.1,4.25-.26,6.06-.52,6-2,9.74-4.35,12.07a11.75,11.75,0,0,1-6.48,3.27c-.15.05-.36.05-.51.1a13.9,13.9,0,0,1-2.64.26,71.42,71.42,0,0,1-11.35-.21c-.46,0-1-.05-1.5-.1-3.16-.21-6.53-.42-10.26-.57-2,0-4.14-.11-6.32-.11h-.1l-5.23.42h-.05l-11.76.83-13.42,1-2,.16L86,148.45l-8.13.62-8,.57c-1.4,0-2.74,0-4.09,0,0,0,0-.05,0,0a95.67,95.67,0,0,1-15.75-1.35,36.88,36.88,0,0,1-11.29-3.57,23.07,23.07,0,0,1-8.29-6.79,28.43,28.43,0,0,1-4.66-10.72v0A59.72,59.72,0,0,1,24.55,115l-.78-1.4-4.61-8.23-.67-1.14-.36-.73L13.31,95,10.93,90.7l-3-5.34L2.75,76.09,0,71.22V52.16a125.88,125.88,0,0,1,14.14-8,127.74,127.74,0,0,1,18.39-7.61,142.22,142.22,0,0,1,44.75-7.15,143.39,143.39,0,0,1,92.46,33.51c1.14.88,2.22,1.87,3.31,2.8a132.68,132.68,0,0,1,12.28,12.48A13.63,13.63,0,0,1,186.47,79.51Z"/><path class="cls-6" d="M186.47,96.91v37.45a50.53,50.53,0,0,0-5.08-2.54c-1.14-.57-2.43-1.14-3.78-1.66-2-.88-4.09-1.7-6.47-2.53a13.18,13.18,0,0,0-1.61-.52c-.93-.36-1.92-.67-2.9-1-3.06-.93-6.42-1.81-9.95-2.59-1.34-.25-2.74-.51-4.14-.72a90.68,90.68,0,0,0-14.35-1.3,11.13,11.13,0,0,0-1.29-.05l-13.31.11-18.13.1h0l-38.8.31c-12.33,0-19.89,3-24.45,4.14a.05.05,0,0,0,0,.06c-4.82,1.24-6.32.46-6.73-8-.11-2.33-.16-5.34-.16-9L32.32,107l-5.08-3.83-3.1-2.39-.62-.46-8.6-6.53-1.3-1L10.93,90.7,6,87,0,82.41V64.8a12.89,12.89,0,0,1,1.5-1.09,133.61,133.61,0,0,1,24-13.16A135.74,135.74,0,0,1,49.26,43c2.23-.47,4.5-.93,6.84-1.24A124.4,124.4,0,0,1,77.28,40a132.55,132.55,0,0,1,82.41,28.74,121.85,121.85,0,0,1,9.84,8.6,132.07,132.07,0,0,1,11.91,12.9c.73.93,1.45,1.86,2.18,2.85C184.6,94.32,185.53,95.62,186.47,96.91Z"/><path class="cls-7" d="M186.47,117.68v17a50.9,50.9,0,0,1-5.65,23.46,10.85,10.85,0,0,1-3.88.06c-3.27-.57-7.1-2.28-11.24-4.51a1.87,1.87,0,0,1-.57-.26c-1.3-.67-2.64-1.4-4-2.23-2.75-1.5-5.65-3.16-8.55-4.71-.62-.31-1.24-.62-1.81-.93a79.45,79.45,0,0,0-10.15-4.46h0c-.73-.26-1.51-.51-2.28-.72a33.14,33.14,0,0,0-8.86-1.35l-5.7-1.66-25.22-7.3h0L83,125.55h0l-6.74-2c-19.47,0-31.44,8.28-37.24,5.12-2.28-1.19-3.62-4.19-4.09-10.1-.16-1.65-.21-3.52-.21-5.69l-6.06-3-.26-.1h0l-4.35-2.18-4.77-2.27-.36-.16-.88-.47L7.77,99.86,0,96.08V78.32c.88-.78,1.81-1.51,2.75-2.23s2-1.5,3-2.28h0a120.62,120.62,0,0,1,19.47-11.5,116.47,116.47,0,0,1,25.44-8.7c1.29-.31,2.64-.62,4-.83a122.48,122.48,0,0,1,95.2,21.65,126.82,126.82,0,0,1,16.26,14.4,121,121,0,0,1,11.29,13.83c.26.36.52.73.78,1,1.92,2.79,3.68,5.64,5.33,8.59C184.6,114.06,185.53,115.87,186.47,117.68Z"/><path class="cls-8" d="M185.53,144.56a51,51,0,0,1-4.71,13.57,53,53,0,0,1-3.26,5.5c-.73,1.08-1.5,2.12-2.28,3.1-1.87-.72-4.61-1.76-8-2.9v-.05c-2.54-.88-5.44-1.81-8.54-2.69-.88-.26-1.76-.52-2.7-.78a95.23,95.23,0,0,0-11.24-2.38,55.2,55.2,0,0,0-9-.83l-2.38-.67h-.05l-12.54-3.63-7.72-2.23-8.59-2.48h-.06l-2.79-.78-33.83-9.74-9.73-2.8-7.26-1.7-11.81-2.8-1.45-.36h-.05l-11.86-2.75v0l-2.12-.47-1.09-.26-8.65-2-1-.26L5.49,118,0,113.43V92.3C1.92,90.44,3.88,88.68,6,87c.62-.57,1.29-1.09,2-1.61s1.3-1,2-1.55a104.19,104.19,0,0,1,15-9.53,102.46,102.46,0,0,1,21.39-8.6,40.92,40.92,0,0,1,4.41-1.19,109.22,109.22,0,0,1,26.62-3.21,111.73,111.73,0,0,1,86.09,40.19,104.5,104.5,0,0,1,9.27,13,12,12,0,0,1,.67,1c1.66,2.75,3.21,5.6,4.61,8.5a85.86,85.86,0,0,1,3.47,7.87A105.81,105.81,0,0,1,185.53,144.56Z"/><path class="cls-9" d="M177.56,163.63c-.73,1.08-1.5,2.12-2.28,3.1a51.14,51.14,0,0,1-7.56,7.72,54.4,54.4,0,0,1-7.77,5.39,26.55,26.55,0,0,1-3.16-1,53.81,53.81,0,0,1-10.31-5.23,125.73,125.73,0,0,1-11.19-8.13l-1.09-.93-8.8-.78-1.09-.1-11.39-1-11.81-1L83.65,160.1,56,157.67l-.1,0-9.74-4.72-9.84-4.76-7.93-3.83-1.7-.83-2.13-1-7.35-3.57-9.79-4.72-3.06-1.5L0,131.3V108.15a106.47,106.47,0,0,1,7.77-8.29c1.76-1.65,3.63-3.31,5.54-4.87.31-.25.62-.51.93-.72a2.06,2.06,0,0,1,.68-.52A86,86,0,0,1,24.5,87,85.48,85.48,0,0,1,36.57,80.6a93.12,93.12,0,0,1,14.09-5A98.11,98.11,0,0,1,77.28,72a100.22,100.22,0,0,1,83,43.71,98.47,98.47,0,0,1,6.32,10.46c.67,1.35,1.35,2.7,1.92,4s1.19,2.59,1.76,3.89c1.08,2.69,2.07,5.39,2.95,8.18a96.62,96.62,0,0,1,3.68,16C177.2,160,177.4,161.81,177.56,163.63Z"/><path class="cls-10" d="M167.77,173.1a12.64,12.64,0,0,1-.05,1.35,54.4,54.4,0,0,1-7.77,5.39c-1.14.62-2.28,1.24-3.47,1.76s-2.39,1.09-3.63,1.55c-1.76-.93-4.14-2.07-6.68-3.16a45.66,45.66,0,0,0-10.46-3.52,10,10,0,0,0-2-.21l-8.5-1.08h-.1l-10.57-1.4-10.67-1.4-5-.62-39.16-5.08a61.27,61.27,0,0,1-8-.52,99,99,0,0,1-10.56-1.55c-3.53-.62-7.1-1.45-10.52-2.33s-7.09-1.81-10.36-2.75c-3.78-1.14-7.3-2.22-10.25-3.21-2.44-.78-4.51-1.5-6.12-2.07a45.78,45.78,0,0,1-2.27-6.94A48.51,48.51,0,0,1,0,134.67V126a76.36,76.36,0,0,1,5.49-8,86.86,86.86,0,0,1,12.43-13.26,2.15,2.15,0,0,1,.52-.46l0,0a52.1,52.1,0,0,1,5-4,4.88,4.88,0,0,1,.62-.52c.83-.62,1.71-1.24,2.64-1.81A89.46,89.46,0,0,1,51.12,86.34,91.11,91.11,0,0,1,126.33,97a89.63,89.63,0,0,1,26.21,25.8c.83,1.19,1.61,2.38,2.38,3.63a94.87,94.87,0,0,1,8.71,19.42c.25.78.46,1.55.67,2.38.41,1.4.78,2.85,1.09,4.3l.31,1.14a91.65,91.65,0,0,1,1.6,10.1v.05A92.21,92.21,0,0,1,167.77,173.1Z"/><path class="cls-11" d="M157.1,173.1a54.83,54.83,0,0,1-.31,5.75c-.11.94-.21,1.87-.31,2.75-1.19.57-2.39,1.09-3.63,1.55a49.36,49.36,0,0,1-7.15,2.13,40.58,40.58,0,0,1-5.07.82h0c-1.61-1-3.47-2.17-5.39-3.52-3.47-2.43-7.1-5.18-10-7.4l-.1-.11c-3.06-2.33-5.23-4.09-5.23-4.09l-5.49.21-10.57.36-4.92.21-19.79.72-16.73.62c-1.08.06-2.38.06-4,0h0c-2.17,0-4.76-.2-7.61-.46-3.32-.26-6.94-.57-10.62-.93s-7.2-.83-10.67-1.25c-3.83-.41-7.46-.88-10.57-1.29l-6.26-.78a50.09,50.09,0,0,1-4-5.23,47.44,47.44,0,0,1-4.72-8.91,45.78,45.78,0,0,1-2.27-6.94,74.72,74.72,0,0,1,5.8-13.16,75.65,75.65,0,0,1,6.42-9.79,70.88,70.88,0,0,1,7.61-8.49v-.05c.78-.78,1.56-1.51,2.33-2.18,1.45-1.35,3-2.59,4.51-3.78h0c.05-.1.11-.1.16-.16,1.24-1,2.54-1.86,3.83-2.74A78.6,78.6,0,0,1,58,95.56a81.64,81.64,0,0,1,19.32-2.33,78.73,78.73,0,0,1,36.52,8.86h0a78.84,78.84,0,0,1,24.34,19.42,73.32,73.32,0,0,1,9.43,13.83,76.82,76.82,0,0,1,4.66,10.31c.11.31.21.57.31.83.88,2.59,1.66,5.28,2.33,8,.47,1.91.83,3.88,1.14,5.85.11.62.21,1.19.26,1.81A76.4,76.4,0,0,1,157.1,173.1Z"/><path class="cls-12" d="M146.48,173.1v.52c0,1.76-.15,4-.31,6.37-.16,1.76-.31,3.58-.47,5.29a40.58,40.58,0,0,1-5.07.82h0a44.56,44.56,0,0,1-5.91.37h-9.06l-2-.57-10.21-3.11-10.35-3.11-24-7.2-10.36-3.11s-4.3,1.71-10.36,3.73h0c-2.33.78-4.87,1.61-7.56,2.44-3.37,1-6.94,2-10.46,2.74A75,75,0,0,1,29.89,180a26.2,26.2,0,0,1-2.85.16,52.73,52.73,0,0,1-8.24-5.65,51.91,51.91,0,0,1-6.21-6.11,50.09,50.09,0,0,1-4-5.23,59.18,59.18,0,0,1,1.4-6.84,65.18,65.18,0,0,1,7.2-17.45,63.17,63.17,0,0,1,6-8.76,1,1,0,0,1,.37-.41c-.05,0,0,0,0,0,.67-.88,1.4-1.71,2.12-2.49v0a78.6,78.6,0,0,1,6.68-6.48c.83-.67,1.61-1.34,2.49-2a5,5,0,0,1,.52-.41A68.95,68.95,0,0,1,138.3,140.37a17.42,17.42,0,0,1,.88,1.66c.46.93.93,1.91,1.34,2.95a60.92,60.92,0,0,1,4,11.7l.31,1.25c.42,1.91.78,3.88,1,5.85A70,70,0,0,1,146.48,173.1Z"/><path class="cls-13" d="M135.81,173.1c0,1-.05,2.18-.1,3.37-.11,1.92-.26,4-.52,6.11-.1,1.3-.31,2.59-.52,3.89H106.29l-5.49-.88-21.45-3.42-3-.47-7-1.14c-3,0-9.68,1.35-16.67,2.64-3.68.68-7.41,1.4-10.78,1.87l-1.19.15h0a47.88,47.88,0,0,1-10.46-3.52c-1-.46-2.08-1-3.11-1.55a52.73,52.73,0,0,1-8.24-5.65c-.05-.62-.1-1.14-.1-1.4,0-1.34.05-2.64.15-3.93a59.23,59.23,0,0,1,1.4-9.64,57.43,57.43,0,0,1,5-13.46,24,24,0,0,1,1.4-2.59c.2-.42.46-.78.67-1.2.93-1.5,2-2.95,3-4.4a65.75,65.75,0,0,1,7.2-8h.05a5.41,5.41,0,0,1,.63-.57,6.91,6.91,0,0,1,.72-.63,35,35,0,0,1,3.16-2.53.05.05,0,0,1,0-.06,58.94,58.94,0,0,1,63.25-4.45h0a58.64,58.64,0,0,1,18.28,15.69,52.62,52.62,0,0,1,5.08,7.93h.05l.78,1.55a53.38,53.38,0,0,1,3.73,9.59h.05c0,.25.15.51.2.77a59.43,59.43,0,0,1,1.51,6.84c.05.47.1,1,.15,1.45A53.06,53.06,0,0,1,135.81,173.1Z"/><path class="cls-14" d="M125.19,172.53a21.57,21.57,0,0,1-.1,2.54v.11a50.88,50.88,0,0,1-1.45,10.72,1.15,1.15,0,0,1-.16.57H99.29l-19.94-4.3-2.64-.57-.41.1-22.12,4.56-1,.21H51.8a49.8,49.8,0,0,1-9.74-.94l-1.4-.31h0a47.88,47.88,0,0,1-10.46-3.52,16.82,16.82,0,0,1-.26-1.71,42.25,42.25,0,0,1-.52-6.89c0-.88,0-1.76.05-2.64a47.86,47.86,0,0,1,1.19-8.18,41.31,41.31,0,0,1,1.66-5.7,45.83,45.83,0,0,1,2-4.66c.62-1.3,1.34-2.54,2.07-3.78s1.5-2.33,2.33-3.47a46.75,46.75,0,0,1,7.2-7.82,43.63,43.63,0,0,1,5-3.78,47.86,47.86,0,0,1,26.42-7.88,40.81,40.81,0,0,1,5.59.36H83a47.3,47.3,0,0,1,15.49,4.51h0a47.94,47.94,0,0,1,18.54,16.06c.78,1.14,1.55,2.38,2.23,3.62a32.51,32.51,0,0,1,1.55,3.06,52.3,52.3,0,0,1,2,5h0a53.35,53.35,0,0,1,1.45,5.86v0A44.9,44.9,0,0,1,125.19,172.53Z"/><path class="cls-15" d="M114.52,173.62v.16a37.41,37.41,0,0,1-1.09,9,22.78,22.78,0,0,1-1.08,3.68H89.14L77.28,183.2l-11.86,3.27H51.8a49.8,49.8,0,0,1-9.74-.94,1.88,1.88,0,0,1-.21-.46,34.44,34.44,0,0,1-1.55-6.79,33.56,33.56,0,0,1-.31-4.66,12.23,12.23,0,0,1,.1-1.91,28.86,28.86,0,0,1,1-7.1,22.86,22.86,0,0,1,1.39-4.51,10.18,10.18,0,0,1,.89-2.07,39.58,39.58,0,0,1,2.74-5.13,36.66,36.66,0,0,1,3.78-4.66,28.9,28.9,0,0,1,5.65-5,34.68,34.68,0,0,1,12.27-5.7,35.4,35.4,0,0,1,9.43-1.24,37.21,37.21,0,0,1,26.36,10.82,7.2,7.2,0,0,1,.83.94h.06c.72.77,1.39,1.55,2.07,2.43a35.64,35.64,0,0,1,4.76,8,29.55,29.55,0,0,1,1.56,4.19c0,.21.1.37.15.57a33.45,33.45,0,0,1,1.3,7.93A19.1,19.1,0,0,1,114.52,173.62Z"/><path class="cls-16" d="M103.9,173.62a21.08,21.08,0,0,1-.83,6.06,26.27,26.27,0,0,1-2.27,5.91c-.16.31-.52.88-.52.88h-46a.41.41,0,0,1-.1-.21,16.59,16.59,0,0,1-1.55-3.06,23.72,23.72,0,0,1-1.87-7.66,12.36,12.36,0,0,1-.1-1.92,6.44,6.44,0,0,1,.05-1,23.87,23.87,0,0,1,1-6.48,25.9,25.9,0,0,1,2.07-5.23s.06-.05.06-.1a29.15,29.15,0,0,1,2.07-3.21,25.83,25.83,0,0,1,9.79-8h0a20.76,20.76,0,0,1,3.88-1.5h.06A26.08,26.08,0,0,1,77.28,147a25.18,25.18,0,0,1,8.7,1.45,14.5,14.5,0,0,1,2.85,1.14h0a25.84,25.84,0,0,1,10.83,9.58,20,20,0,0,1,1.4,2.49c.2.36.41.77.57,1.14a25.89,25.89,0,0,1,2.12,8.75,4.36,4.36,0,0,1,0,.83A10.29,10.29,0,0,1,103.9,173.62Z"/><path class="cls-17" d="M124.31,25.9H62.16A36,36,0,0,0,25.9,62.16v62.15a36,36,0,0,0,36.26,36.26h62.15a36,36,0,0,0,36.26-36.26V62.16A36,36,0,0,0,124.31,25.9Z"/><circle class="cls-18" cx="129.49" cy="51.8" r="5.18"/><circle class="cls-17" cx="93.23" cy="93.23" r="31.08"/></g></g></svg>