<svg xmlns="http://www.w3.org/2000/svg" viewBox="0 0 185.28 185.28"><defs><style>.cls-1{fill:#0288d1;}.cls-2{fill:#fff;}</style></defs><g id="Layer_2" data-name="Layer 2"><g id="Layer_1-2" data-name="Layer 1"><path class="cls-1" d="M185.28,159.54a25.73,25.73,0,0,1-25.74,25.74H25.73A25.73,25.73,0,0,1,0,159.54V25.73A25.73,25.73,0,0,1,25.73,0H159.54a25.73,25.73,0,0,1,25.74,25.73Z"/><path class="cls-2" d="M30.88,66.91H56.61V154.4H30.88Zm12.79-10.3h-.15c-7.67,0-12.64-5.72-12.64-12.87,0-7.3,5.12-12.86,12.94-12.86s12.65,5.56,12.79,12.86C56.61,50.88,51.65,56.61,43.67,56.61ZM154.4,154.4H128.66V107.57c0-11.31-6.3-19-16.42-19-7.73,0-11.91,5.2-13.94,10.24-.74,1.8-.52,6.78-.52,9.3V154.4H72.05V66.91H97.78V80.37c3.72-5.75,9.53-13.46,24.39-13.46,18.41,0,32.22,11.57,32.22,37.43V154.4Z"/></g></g></svg>