<svg width="24" height="28" viewBox="0 0 24 28" fill="none" xmlns="http://www.w3.org/2000/svg">
<path d="M12 15.5635L15.5417 19.0705C16.0139 19.5494 16.375 20.0846 16.625 20.6762C16.875 21.2677 17 21.9015 17 22.5776C17 23.9578 16.5139 25.1339 15.5417 26.1057C14.5694 27.0776 13.3889 27.5635 12 27.5635C10.6111 27.5635 9.43055 27.0776 8.45833 26.1057C7.48611 25.1339 7 23.9578 7 22.5776C7 21.9297 7.125 21.3029 7.375 20.6973C7.625 20.0916 7.98611 19.5494 8.45833 19.0705L12 15.5635Z" fill="white"/>
<path d="M0.445312 16.3249C0.445312 13.7971 1.04717 11.5462 2.25087 9.57215C3.45457 7.59807 4.77865 5.93696 6.22309 4.58881C7.66753 3.24066 8.99161 2.2115 10.1953 1.50131L12.0009 0.436035V5.2027C12.0009 6.09344 12.3018 6.79761 12.9036 7.3152C13.5055 7.83279 14.1796 8.09159 14.9259 8.09159C15.3351 8.09159 15.7263 8.00733 16.0995 7.83881C16.4726 7.67029 16.8157 7.39344 17.1286 7.00826L17.7786 6.21381C19.512 7.22492 20.9083 8.62724 21.9675 10.4208C23.0268 12.2143 23.5564 14.1823 23.5564 16.3249C23.5564 18.4434 23.0388 20.3754 22.0036 22.1208C20.9685 23.8661 19.6083 25.2444 17.9231 26.2555C18.3323 25.6777 18.6513 25.0458 18.88 24.3596C19.1087 23.6735 19.2231 22.9453 19.2231 22.1749C19.2231 21.212 19.0425 20.3032 18.6814 19.4485C18.3203 18.5939 17.8027 17.8296 17.1286 17.1555L12.0009 12.136L6.9092 17.1555C6.21105 17.8536 5.68142 18.624 5.32031 19.4666C4.9592 20.3092 4.77865 21.212 4.77865 22.1749C4.77865 22.9453 4.893 23.6735 5.1217 24.3596C5.3504 25.0458 5.66939 25.6777 6.07865 26.2555C4.39346 25.2444 3.03327 23.8661 1.99809 22.1208C0.962905 20.3754 0.445312 18.4434 0.445312 16.3249Z" fill="#6A60FF"/>
</svg>
