<svg width="28" height="24" viewBox="0 0 28 24" fill="none" xmlns="http://www.w3.org/2000/svg">
<path d="M5.9939 24L8.04414 15.1263L1.16797 9.15789L10.2521 8.36842L13.7848 0L17.3175 8.36842L26.4016 9.15789L19.5254 15.1263L21.5757 24L13.7848 19.2947L5.9939 24Z" fill="#6A60FF"/>
<path d="M25.4016 21.7158L21.6166 17.9263L23.3829 16.1579L27.168 19.9474L25.4016 21.7158ZM20.8596 6.5579L19.0932 4.78947L22.8783 1L24.6446 2.76842L20.8596 6.5579ZM6.47638 6.5579L2.69133 2.76842L4.45769 1L8.24274 4.78947L6.47638 6.5579ZM1.93432 21.7158L0.167969 19.9474L3.95302 16.1579L5.71937 17.9263L1.93432 21.7158Z" fill="white"/>
</svg>
