<svg width="20" height="21" viewBox="0 0 20 21" fill="none" xmlns="http://www.w3.org/2000/svg">
<path d="M10.1 20.2676C8.7 20.2676 7.3875 20.0009 6.1625 19.4676C4.9375 18.9342 3.87083 18.2134 2.9625 17.3051C2.05417 16.3967 1.33333 15.3301 0.8 14.1051C0.266667 12.8801 0 11.5676 0 10.1676C0 7.73425 0.775 5.58841 2.325 3.73008C3.875 1.87174 5.85 0.717578 8.25 0.267578C7.95 1.91758 8.04167 3.53008 8.525 5.10508C9.00833 6.68008 9.84167 8.05925 11.025 9.24258C12.2083 10.4259 13.5875 11.2592 15.1625 11.7426C16.7375 12.2259 18.35 12.3176 20 12.0176C19.5667 14.4176 18.4167 16.3926 16.55 17.9426C14.6833 19.4926 12.5333 20.2676 10.1 20.2676ZM10.1 18.2676C11.5667 18.2676 12.925 17.9009 14.175 17.1676C15.425 16.4342 16.4083 15.4259 17.125 14.1426C15.6917 14.0092 14.3333 13.6467 13.05 13.0551C11.7667 12.4634 10.6167 11.6592 9.6 10.6426C8.58333 9.62591 7.775 8.47591 7.175 7.19258C6.575 5.90925 6.21667 4.55091 6.1 3.11758C4.81667 3.83424 3.8125 4.82174 3.0875 6.08008C2.3625 7.33841 2 8.70091 2 10.1676C2 12.4176 2.7875 14.3301 4.3625 15.9051C5.9375 17.4801 7.85 18.2676 10.1 18.2676Z" fill="white"/>
</svg>
