<svg width="14" height="14" viewBox="0 0 14 14" fill="none" xmlns="http://www.w3.org/2000/svg">
<path d="M7 14C5.77932 14 4.65857 13.7164 3.63773 13.1493C2.6169 12.5822 1.79321 11.8233 1.16667 10.8727V12.8333H0V8.94444H3.88889V10.1111H2.05787C2.57639 10.9321 3.26775 11.5911 4.13194 12.088C4.99614 12.5849 5.95216 12.8333 7 12.8333C7.81019 12.8333 8.56906 12.6794 9.27662 12.3715C9.98418 12.0637 10.5999 11.6478 11.1238 11.1238C11.6478 10.5999 12.0637 9.98418 12.3715 9.27662C12.6794 8.56906 12.8333 7.81019 12.8333 7H14C14 7.97222 13.8164 8.88233 13.4491 9.73032C13.0818 10.5783 12.5822 11.3183 11.9502 11.9502C11.3183 12.5822 10.5783 13.0818 9.73032 13.4491C8.88233 13.8164 7.97222 14 7 14ZM6.46528 11.2778V10.5C6.23843 10.446 5.92245 10.3002 5.51736 10.0625C5.11227 9.82485 4.8125 9.36574 4.61806 8.68519L5.63889 8.26389C5.66049 8.3287 5.76852 8.55826 5.96296 8.95255C6.15741 9.34684 6.53549 9.54398 7.09722 9.54398C7.37809 9.54398 7.65085 9.46566 7.91551 9.30903C8.18017 9.15239 8.3125 8.90123 8.3125 8.55556C8.3125 8.26389 8.20178 8.02894 7.98032 7.85069C7.75887 7.67245 7.40509 7.49691 6.91898 7.32407C6.58411 7.20525 6.16011 7.0135 5.64699 6.74884C5.13387 6.48418 4.87732 6.00077 4.87732 5.29861C4.87732 5.2662 4.94753 5.00154 5.08796 4.50463C5.2284 4.00772 5.6929 3.67284 6.48148 3.5V2.72222H7.55093V3.4838C8.12346 3.58102 8.52585 3.79707 8.7581 4.13194C8.99036 4.46682 9.12809 4.70448 9.1713 4.84491L8.21528 5.25C8.18287 5.14198 8.08025 4.97994 7.90741 4.76389C7.73457 4.54784 7.4483 4.43982 7.04861 4.43982C6.83256 4.43982 6.59491 4.50193 6.33565 4.62616C6.07639 4.75039 5.94676 4.96914 5.94676 5.28241C5.94676 5.57407 6.07909 5.79553 6.34375 5.94676C6.60841 6.09799 7.0162 6.26543 7.56713 6.44907C8.2909 6.69753 8.77431 7.0027 9.01736 7.36458C9.26042 7.72647 9.38194 8.12346 9.38194 8.55556C9.38194 8.95525 9.30093 9.27932 9.13889 9.52778C8.97685 9.77623 8.79051 9.97338 8.57986 10.1192C8.36921 10.265 8.16397 10.365 7.96412 10.419C7.76428 10.473 7.62114 10.5054 7.53472 10.5162V11.2778H6.46528ZM0 7C0 6.02778 0.183642 5.11767 0.550926 4.26968C0.91821 3.42168 1.41782 2.68171 2.04977 2.04977C2.68171 1.41782 3.42168 0.91821 4.26968 0.550926C5.11767 0.183642 6.02778 0 7 0C8.22068 0 9.34144 0.283565 10.3623 0.850694C11.3831 1.41782 12.2068 2.1767 12.8333 3.12732V1.16667H14V5.05556H10.1111V3.88889H11.9421C11.4236 3.0679 10.7323 2.40895 9.86806 1.91204C9.00386 1.41512 8.04784 1.16667 7 1.16667C6.18982 1.16667 5.43094 1.3206 4.72338 1.62847C4.01582 1.93634 3.40008 2.35224 2.87616 2.87616C2.35224 3.40008 1.93634 4.01582 1.62847 4.72338C1.3206 5.43094 1.16667 6.18982 1.16667 7H0Z" fill="#ffffff"/>
</svg>
