<svg width="12" height="15" viewBox="0 0 12 15" fill="none" xmlns="http://www.w3.org/2000/svg">
<path d="M6 15L0.538462 10.7255C0.358974 10.5817 0.224359 10.415 0.134615 10.2255C0.0448718 10.0359 0 9.83007 0 9.60784V1.41176C0 1.02353 0.135577 0.691177 0.406731 0.414706C0.677885 0.138236 1.00385 0 1.38462 0H10.6154C10.9962 0 11.3221 0.138236 11.5933 0.414706C11.8644 0.691177 12 1.02353 12 1.41176V9.60784C12 9.83007 11.9551 10.0359 11.8654 10.2255C11.7756 10.415 11.641 10.5817 11.4615 10.7255L6 15ZM6 13.2157L10.6154 9.58824V1.41176H1.38462V9.58824L6 13.2157ZM5.19231 9.41177L9.42308 5.07843L8.44231 4.07843L5.19231 7.41177L3.55769 5.7451L2.57692 6.7451L5.19231 9.41177Z" fill="#ffffff"/>
</svg>
