<svg width="12" height="15" viewBox="0 0 12 15" fill="none" xmlns="http://www.w3.org/2000/svg">
<path d="M1.49417 15C1.08139 15 0.729167 14.8531 0.4375 14.5594C0.145833 14.2656 0 13.9125 0 13.5V5.5C0 5.0875 0.146875 4.73438 0.440625 4.44063C0.734375 4.14688 1.0875 4 1.5 4H2C2 2.89333 2.39049 1.95 3.17146 1.17C3.95229 0.39 4.89674 0 6.00479 0C7.11271 0 8.05556 0.39 8.83333 1.17C9.61111 1.95 10 2.89333 10 4H10.5C10.9125 4 11.2656 4.14688 11.5594 4.44063C11.8531 4.73438 12 5.0875 12 5.5V13.5C12 13.9125 11.8531 14.2656 11.5592 14.5594C11.2653 14.8531 10.9119 15 10.4992 15H1.49417ZM1.5 13.5H10.5V5.5H1.5V13.5ZM6.00437 11C6.41813 11 6.77083 10.8527 7.0625 10.5581C7.35417 10.2635 7.5 9.90938 7.5 9.49563C7.5 9.08188 7.35271 8.72917 7.05812 8.4375C6.76354 8.14583 6.40938 8 5.99563 8C5.58188 8 5.22917 8.14729 4.9375 8.44188C4.64583 8.73646 4.5 9.09062 4.5 9.50437C4.5 9.91812 4.64729 10.2708 4.94187 10.5625C5.23646 10.8542 5.59062 11 6.00437 11ZM3.5 4H8.5C8.5 3.30556 8.25694 2.71528 7.77083 2.22917C7.28472 1.74306 6.69444 1.5 6 1.5C5.30556 1.5 4.71528 1.74306 4.22917 2.22917C3.74306 2.71528 3.5 3.30556 3.5 4Z" fill="#ffffff"/>
</svg>
