<svg width="20" height="20" viewBox="0 0 20 20" fill="none" xmlns="http://www.w3.org/2000/svg">
<mask id="mask0_848_11483" style="mask-type:alpha" maskUnits="userSpaceOnUse" x="0" y="0" width="20" height="20">
<rect width="20" height="20" fill="#D9D9D9"/>
</mask>
<g mask="url(#mask0_848_11483)">
<path d="M0.832031 16.6663V14.333C0.832031 13.8608 0.953559 13.4268 1.19661 13.0309C1.43967 12.6351 1.76259 12.333 2.16536 12.1247C3.02648 11.6941 3.90148 11.3712 4.79036 11.1559C5.67925 10.9406 6.58203 10.833 7.4987 10.833C8.41536 10.833 9.31814 10.9406 10.207 11.1559C11.0959 11.3712 11.9709 11.6941 12.832 12.1247C13.2348 12.333 13.5577 12.6351 13.8008 13.0309C14.0438 13.4268 14.1654 13.8608 14.1654 14.333V16.6663H0.832031ZM15.832 16.6663V14.1663C15.832 13.5552 15.6619 12.9684 15.3216 12.4059C14.9813 11.8434 14.4987 11.3608 13.8737 10.958C14.582 11.0413 15.2487 11.1837 15.8737 11.3851C16.4987 11.5865 17.082 11.833 17.6237 12.1247C18.1237 12.4025 18.5056 12.7115 18.7695 13.0518C19.0334 13.392 19.1654 13.7636 19.1654 14.1663V16.6663H15.832ZM7.4987 9.99967C6.58203 9.99967 5.79731 9.67329 5.14453 9.02051C4.49175 8.36773 4.16536 7.58301 4.16536 6.66634C4.16536 5.74967 4.49175 4.96495 5.14453 4.31217C5.79731 3.6594 6.58203 3.33301 7.4987 3.33301C8.41536 3.33301 9.20009 3.6594 9.85287 4.31217C10.5056 4.96495 10.832 5.74967 10.832 6.66634C10.832 7.58301 10.5056 8.36773 9.85287 9.02051C9.20009 9.67329 8.41536 9.99967 7.4987 9.99967ZM15.832 6.66634C15.832 7.58301 15.5056 8.36773 14.8529 9.02051C14.2001 9.67329 13.4154 9.99967 12.4987 9.99967C12.3459 9.99967 12.1515 9.98231 11.9154 9.94759C11.6793 9.91287 11.4848 9.87467 11.332 9.83301C11.707 9.38856 11.9952 8.89551 12.1966 8.35384C12.398 7.81217 12.4987 7.24967 12.4987 6.66634C12.4987 6.08301 12.398 5.52051 12.1966 4.97884C11.9952 4.43717 11.707 3.94412 11.332 3.49967C11.5265 3.43023 11.7209 3.38509 11.9154 3.36426C12.1098 3.34342 12.3043 3.33301 12.4987 3.33301C13.4154 3.33301 14.2001 3.6594 14.8529 4.31217C15.5056 4.96495 15.832 5.74967 15.832 6.66634ZM2.4987 14.9997H12.4987V14.333C12.4987 14.1802 12.4605 14.0413 12.3841 13.9163C12.3077 13.7913 12.207 13.6941 12.082 13.6247C11.332 13.2497 10.5751 12.9684 9.8112 12.7809C9.04731 12.5934 8.27648 12.4997 7.4987 12.4997C6.72092 12.4997 5.95009 12.5934 5.1862 12.7809C4.42231 12.9684 3.66536 13.2497 2.91536 13.6247C2.79036 13.6941 2.68967 13.7913 2.61328 13.9163C2.53689 14.0413 2.4987 14.1802 2.4987 14.333V14.9997ZM7.4987 8.33301C7.95703 8.33301 8.34939 8.16981 8.67578 7.84342C9.00217 7.51704 9.16537 7.12467 9.16537 6.66634C9.16537 6.20801 9.00217 5.81565 8.67578 5.48926C8.34939 5.16287 7.95703 4.99967 7.4987 4.99967C7.04036 4.99967 6.648 5.16287 6.32161 5.48926C5.99523 5.81565 5.83203 6.20801 5.83203 6.66634C5.83203 7.12467 5.99523 7.51704 6.32161 7.84342C6.648 8.16981 7.04036 8.33301 7.4987 8.33301Z" fill="#999999"/>
</g>
</svg>
