<svg width="20" height="20" viewBox="0 0 20 20" fill="none" xmlns="http://www.w3.org/2000/svg">
<mask id="mask0_848_11504" style="mask-type:alpha" maskUnits="userSpaceOnUse" x="0" y="0" width="20" height="20">
<rect width="20" height="20" fill="#D9D9D9"/>
</mask>
<g mask="url(#mask0_848_11504)">
<path d="M7.66536 13.0003L9.9987 11.2503L12.2904 13.0003L11.4154 10.167L13.7487 8.33366H10.9154L9.9987 5.50033L9.08203 8.33366H6.2487L8.54036 10.167L7.66536 13.0003ZM9.9987 18.3337C8.06814 17.8475 6.47439 16.7399 5.21745 15.0107C3.9605 13.2816 3.33203 11.3614 3.33203 9.25033V4.16699L9.9987 1.66699L16.6654 4.16699V9.25033C16.6654 11.3614 16.0369 13.2816 14.7799 15.0107C13.523 16.7399 11.9293 17.8475 9.9987 18.3337ZM9.9987 16.5837C11.4431 16.1253 12.6376 15.2087 13.582 13.8337C14.5265 12.4587 14.9987 10.9309 14.9987 9.25033V5.31283L9.9987 3.43783L4.9987 5.31283V9.25033C4.9987 10.9309 5.47092 12.4587 6.41536 13.8337C7.35981 15.2087 8.55425 16.1253 9.9987 16.5837Z" fill="#999999"/>
</g>
</svg>
