<svg width="29" height="28" viewBox="0 0 29 28" fill="none" xmlns="http://www.w3.org/2000/svg">
<path d="M15.8806 11.1125C15.8964 11.1125 15.9119 11.1142 15.927 11.1168C16.0164 11.1224 16.1014 11.1719 16.1495 11.2564L23.9381 24.95C24.0144 25.0841 23.9692 25.2556 23.8371 25.333L19.3503 27.9624C19.2182 28.0398 19.0492 27.9939 18.973 27.8599L14.4267 19.8669L9.88114 27.8588C9.80487 27.9929 9.63592 28.0389 9.50382 27.9614L5.01703 25.3319C4.88499 25.2545 4.83977 25.0831 4.91603 24.949L9.34131 17.1688H0.276184C0.123655 17.1688 4.64307e-06 17.0432 0 16.8884V11.3929C1.00754e-05 11.2381 0.123658 11.1125 0.276184 11.1125H15.8806Z" fill="#6A60FF"/>
<path d="M9.6495 0.337568C9.7816 0.260175 9.95056 0.306157 10.0268 0.440245L14.5731 8.4331L19.1191 0.440382C19.1953 0.306285 19.3643 0.260287 19.4964 0.337704L23.9832 2.96722C24.1152 3.04466 24.1604 3.21608 24.0842 3.35014L19.5437 11.3331H28.7238C28.8762 11.3332 28.9999 11.4587 28.9999 11.6135V16.8724C28.9999 17.0272 28.8762 17.1528 28.7238 17.1528H20.5609L16.7857 10.5153C16.7734 10.4938 16.7598 10.4735 16.7453 10.4544C16.6453 10.3111 16.4808 10.2174 16.2946 10.2174H8.96767L5.06171 3.35C4.98545 3.21592 5.03067 3.04452 5.16272 2.96708L9.6495 0.337568Z" fill="#222222"/>
</svg>
