<svg width="22" height="23" viewBox="0 0 22 23" fill="none" xmlns="http://www.w3.org/2000/svg">
<path d="M10 4.26758V0.267578H12V4.26758H10ZM16.65 7.01758L15.275 5.64258L18.075 2.76758L19.475 4.19258L16.65 7.01758ZM18 12.2676V10.2676H22V12.2676H18ZM10 22.2676V18.2676H12V22.2676H10ZM5.35 6.96758L2.5 4.19258L3.925 2.79258L6.75 5.61758L5.35 6.96758ZM18.05 19.7676L15.275 16.8926L16.625 15.5426L19.475 18.2926L18.05 19.7676ZM0 12.2676V10.2676H4V12.2676H0ZM3.925 19.7676L2.525 18.3426L5.325 15.5426L6.05 16.2176L6.775 16.9176L3.925 19.7676ZM11 17.2676C9.33333 17.2676 7.91667 16.6842 6.75 15.5176C5.58333 14.3509 5 12.9342 5 11.2676C5 9.60091 5.58333 8.18425 6.75 7.01758C7.91667 5.85091 9.33333 5.26758 11 5.26758C12.6667 5.26758 14.0833 5.85091 15.25 7.01758C16.4167 8.18425 17 9.60091 17 11.2676C17 12.9342 16.4167 14.3509 15.25 15.5176C14.0833 16.6842 12.6667 17.2676 11 17.2676ZM11 15.2676C12.1 15.2676 13.0417 14.8759 13.825 14.0926C14.6083 13.3092 15 12.3676 15 11.2676C15 10.1676 14.6083 9.22591 13.825 8.44258C13.0417 7.65925 12.1 7.26758 11 7.26758C9.9 7.26758 8.95833 7.65925 8.175 8.44258C7.39167 9.22591 7 10.1676 7 11.2676C7 12.3676 7.39167 13.3092 8.175 14.0926C8.95833 14.8759 9.9 15.2676 11 15.2676Z" fill="white"/>
</svg>
