<svg xmlns="http://www.w3.org/2000/svg" viewBox="0 0 173.33 173.33"><defs><style>.cls-1{fill:#29b6f6;}.cls-2{fill:#fff;}.cls-3{fill:#b0bec5;}.cls-4{fill:#cfd8dc;}</style></defs><g id="Layer_2" data-name="Layer 2"><g id="Layer_1-2" data-name="Layer 1"><path class="cls-1" d="M86.66,0a86.67,86.67,0,1,0,86.67,86.66A86.66,86.66,0,0,0,86.66,0Z"/><path class="cls-2" d="M129.78,47.67l-16.23,82.87s-.7,3.79-5.4,3.79a5.8,5.8,0,0,1-3.78-1.19L69.21,104,52,95.3,29.93,89.43S26,88.29,26,85c0-2.71,4-4,4-4l92.37-36.69a17.54,17.54,0,0,1,4.88-1c1.26,0,2.71.54,2.71,2.17A12.6,12.6,0,0,1,129.78,47.67Z"/><path class="cls-3" d="M82.33,114.85,67.49,129.47A2.84,2.84,0,0,1,66,130a2.22,2.22,0,0,1-1-.18L69.21,104Z"/><path class="cls-4" d="M112.22,61.51a2.18,2.18,0,0,0-3-.4L52,95.33s9.12,25.53,10.52,30S65,129.81,65,129.81L69.21,104l42.6-39.41A2.18,2.18,0,0,0,112.22,61.51Z"/></g></g></svg>