<svg xmlns="http://www.w3.org/2000/svg" viewBox="0 0 204.32 152.86"><defs><style>.cls-1{fill:#ff3d00;}.cls-2{fill:#fff;}</style></defs><g id="Layer_2" data-name="Layer 2"><g id="Layer_1-2" data-name="Layer 1"><path class="cls-1" d="M199.74,126.87a25.43,25.43,0,0,1-21.4,20.38,529.91,529.91,0,0,1-76.43,5.61,542.28,542.28,0,0,1-76.43-5.61,25.42,25.42,0,0,1-21.4-20.38A297.92,297.92,0,0,1,0,76.43,297.92,297.92,0,0,1,4.08,26,25.44,25.44,0,0,1,25.48,5.6,531.39,531.39,0,0,1,101.91,0a537.92,537.92,0,0,1,76.43,5.6A25.46,25.46,0,0,1,199.74,26a289.93,289.93,0,0,1,4.58,50.44A351.27,351.27,0,0,1,199.74,126.87Z"/><path class="cls-2" d="M81.52,112.1V40.76l61.15,35.67Z"/></g></g></svg>