<svg width="25" height="25" viewBox="0 0 25 25" fill="none" xmlns="http://www.w3.org/2000/svg">
<g clip-path="url(#clip0_45_1376)">
<path d="M22.5 20.0276C22.5 20.3022 22.4523 20.5587 22.3568 20.7971C22.2614 21.0355 22.1256 21.245 21.9493 21.4256C21.7731 21.6062 21.5675 21.7471 21.3326 21.8483C21.0977 21.9494 20.8407 22 20.5617 22H4.57048C4.29148 22 4.02717 21.9494 3.77753 21.8483C3.5279 21.7471 3.30764 21.6062 3.11674 21.4256C2.92584 21.245 2.77533 21.0355 2.6652 20.7971C2.55507 20.5587 2.5 20.3022 2.5 20.0276V9.2121C2.5 8.66301 2.69457 8.19701 3.0837 7.8141C3.47283 7.43118 3.9464 7.23973 4.50441 7.23973H20.4956C21.0536 7.23973 21.5272 7.43118 21.9163 7.8141C22.3054 8.19701 22.5 8.66301 22.5 9.2121V12.1598H17.5C16.942 12.1598 16.4684 12.3477 16.0793 12.7234C15.6902 13.099 15.4956 13.5614 15.4956 14.1105C15.5103 14.4862 15.591 14.8185 15.7379 15.1075C15.8554 15.3532 16.0499 15.5771 16.3216 15.7794C16.5932 15.9817 16.986 16.0829 17.5 16.0829H22.5V20.0276ZM19.5044 6.2427H9.50441C10.2974 5.83811 11.0463 5.44797 11.7511 5.07228C12.3678 4.75439 12.9772 4.4365 13.5793 4.11861C14.1814 3.80072 14.6512 3.55508 14.989 3.38168C15.5029 3.10714 15.9618 2.9807 16.3656 3.00238C16.7695 3.02405 17.1109 3.09269 17.3899 3.20829C17.7129 3.36723 17.9919 3.57675 18.2269 3.83684L19.5044 6.2427ZM16.5088 14.1105C16.5088 13.836 16.6043 13.6048 16.7952 13.4169C16.986 13.2291 17.221 13.1352 17.5 13.1352C17.779 13.1352 18.014 13.2291 18.2048 13.4169C18.3957 13.6048 18.4912 13.836 18.4912 14.1105C18.4912 14.3851 18.3957 14.6199 18.2048 14.8149C18.014 15.01 17.779 15.1075 17.5 15.1075C17.221 15.1075 16.986 15.01 16.7952 14.8149C16.6043 14.6199 16.5088 14.3851 16.5088 14.1105Z" fill="#226AFD"/>
</g>
<defs>
<clipPath id="clip0_45_1376">
<rect width="24" height="24" fill="white" transform="translate(0.5 0.5)"/>
</clipPath>
</defs>
</svg>
