<svg width="25" height="25" viewBox="0 0 25 25" fill="none" xmlns="http://www.w3.org/2000/svg">
<path d="M22.5 15.8929C22.4798 15.5185 22.3197 15.1647 22.0507 14.8996C21.7816 14.6344 21.4225 14.4767 21.0425 14.4568H20.9237V14.4635H17.8349V3.93625C17.8226 3.55925 17.6651 3.20101 17.3944 2.93429C17.1237 2.66757 16.7601 2.51238 16.3775 2.50022H3.96645C3.77614 2.49688 3.58708 2.53102 3.41034 2.60064C3.23361 2.67025 3.07276 2.77394 2.93724 2.90563C2.8006 3.0362 2.6916 3.19218 2.61655 3.36454C2.5415 3.53689 2.50188 3.7222 2.5 3.90974V20.064C2.51216 20.4422 2.67052 20.8015 2.94271 21.0684C3.21489 21.3354 3.58031 21.4898 3.96421 21.5H19.5413C20.3156 21.4996 21.0588 21.1998 21.6112 20.6653C22.1636 20.1307 22.4811 19.404 22.4955 18.6412V15.8929H22.5ZM3.96421 20.1623H3.95748C3.94569 20.1633 3.93381 20.1621 3.92251 20.1586C3.91122 20.1551 3.90074 20.1495 3.89167 20.142C3.8826 20.1345 3.87513 20.1253 3.86968 20.1149C3.86424 20.1046 3.86093 20.0933 3.85994 20.0816C3.85921 20.0728 3.85921 20.064 3.85994 20.0551V3.95061C3.86202 3.922 3.8745 3.89507 3.8951 3.87479C3.91569 3.8545 3.94301 3.8422 3.97206 3.84015H16.3932C16.4156 3.84007 16.4373 3.84831 16.454 3.86324C16.4706 3.87818 16.4809 3.89872 16.4828 3.92079C16.4836 3.92961 16.4836 3.93848 16.4828 3.9473V18.618C16.4908 19.1643 16.6476 19.6984 16.9369 20.1645L3.96421 20.1623ZM21.1109 15.9437V18.5804C21.0785 19.0121 20.8735 19.4134 20.5409 19.6961C20.2083 19.9789 19.7754 20.1199 19.3373 20.0883C18.9429 20.0581 18.5723 19.8906 18.2919 19.6157C18.0115 19.3408 17.8396 18.9766 17.8069 18.5882V15.8476H21.0134C21.0252 15.8463 21.0371 15.8474 21.0485 15.8508C21.0599 15.8542 21.0704 15.8599 21.0795 15.8674C21.0886 15.8748 21.0962 15.8839 21.1018 15.8941C21.1074 15.9043 21.1109 15.9155 21.112 15.9271C21.1122 15.9326 21.1118 15.9382 21.1109 15.9437Z" fill="#7F829A"/>
<path d="M13.2517 7.76937H6.77151C6.58377 7.78372 6.40843 7.86734 6.28053 8.00352C6.15263 8.1397 6.08158 8.31841 6.08158 8.50395C6.08158 8.68949 6.15263 8.8682 6.28053 9.00438C6.40843 9.14056 6.58377 9.22418 6.77151 9.23853H13.2517C13.4449 9.23116 13.6276 9.15037 13.7617 9.0131C13.8957 8.87584 13.9705 8.69276 13.9705 8.50229C13.9705 8.31182 13.8957 8.12875 13.7617 7.99149C13.6276 7.85422 13.4449 7.77343 13.2517 7.76605V7.76937ZM13.2517 11.2755H6.77151C6.57834 11.2829 6.39557 11.3637 6.26155 11.5009C6.12753 11.6382 6.05266 11.8213 6.05266 12.0117C6.05266 12.2022 6.12753 12.3853 6.26155 12.5225C6.39557 12.6598 6.57834 12.7406 6.77151 12.748H13.2517C13.4449 12.7406 13.6276 12.6598 13.7617 12.5225C13.8957 12.3853 13.9705 12.2022 13.9705 12.0117C13.9705 11.8213 13.8957 11.6382 13.7617 11.5009C13.6276 11.3637 13.4449 11.2829 13.2517 11.2755ZM8.56421 14.7816H6.75021C6.5583 14.7903 6.37698 14.8708 6.24323 15.0067C6.10948 15.1426 6.03338 15.3236 6.03044 15.5129C6.029 15.5368 6.029 15.5608 6.03044 15.5847C6.03044 15.9503 6.35781 16.2475 6.76815 16.2541H8.56533C9.0194 16.2541 9.38825 15.9227 9.38825 15.5173C9.38742 15.4187 9.36541 15.3213 9.32368 15.2316C9.28194 15.142 9.22142 15.062 9.14609 14.997C8.986 14.8565 8.77859 14.7797 8.56421 14.7816Z" fill="#7F829A"/>
</svg>
