<svg width="25" height="25" viewBox="0 0 25 25" fill="none" xmlns="http://www.w3.org/2000/svg">
<g clip-path="url(#clip0_45_983)">
<path d="M12.5 23.5C6.43467 23.5 1.5 18.5654 1.5 12.4999C1.5 6.43434 6.43467 1.5 12.5 1.5C18.5653 1.5 23.5 6.43461 23.5 12.5001C23.5 18.5657 18.5653 23.5 12.5 23.5ZM12.5 3.32506C7.44108 3.32506 3.32509 7.44073 3.32509 12.4999C3.32509 17.559 7.44108 21.6749 12.5 21.6749C17.5589 21.6749 21.6749 17.5593 21.6749 12.5001C21.6749 7.441 17.5589 3.32506 12.5 3.32506Z" fill="#7F829A"/>
<path d="M16.771 11.6123H8.93435C8.43034 11.6123 8.02181 11.2038 8.02181 10.6998C8.02181 10.1958 8.43034 9.78728 8.93435 9.78728H14.3757V9.21712C14.3757 8.84812 14.5979 8.51544 14.9389 8.37397C15.2805 8.23251 15.6729 8.31077 15.9335 8.57192L17.4162 10.0546C17.5439 10.1822 17.6308 10.3447 17.666 10.5217C17.7013 10.6987 17.6832 10.8822 17.6141 11.0489C17.5451 11.2157 17.4281 11.3582 17.278 11.4585C17.128 11.5588 16.9515 11.6124 16.771 11.6123ZM10.4173 16.6954C10.1796 16.6954 9.94641 16.6026 9.77186 16.4281L8.28915 14.9457C8.028 14.6848 7.95 14.2921 8.0912 13.9511C8.16025 13.7843 8.27721 13.6418 8.42729 13.5415C8.57738 13.4412 8.75384 13.3876 8.93435 13.3877H16.771C17.275 13.3877 17.6835 13.7962 17.6835 14.3002C17.6835 14.8042 17.275 15.2127 16.771 15.2127H11.3296V15.7826C11.3296 16.0246 11.2335 16.2567 11.0625 16.4279C10.8914 16.599 10.6593 16.6953 10.4173 16.6954Z" fill="#7F829A"/>
</g>
<defs>
<clipPath id="clip0_45_983">
<rect width="24" height="24" fill="white" transform="translate(0.5 0.5)"/>
</clipPath>
</defs>
</svg>
