<svg width="25" height="25" viewBox="0 0 25 25" fill="none" xmlns="http://www.w3.org/2000/svg">
<g clip-path="url(#clip0_45_1000)">
<path d="M16.7 14.075C16.7 14.3534 16.8106 14.6205 17.0075 14.8174C17.2044 15.0143 17.4715 15.125 17.75 15.125C18.0284 15.125 18.2955 15.0143 18.4924 14.8174C18.6893 14.6205 18.8 14.3534 18.8 14.075C18.8 13.7965 18.6893 13.5294 18.4924 13.3325C18.2955 13.1356 18.0284 13.025 17.75 13.025C17.4715 13.025 17.2044 13.1356 17.0075 13.3325C16.8106 13.5294 16.7 13.7965 16.7 14.075Z" fill="#7F829A"/>
<path d="M20.9001 11.45H17.2251C15.7743 11.45 14.6001 12.6242 14.6001 14.075C14.6001 15.5257 15.7743 16.7 17.2251 16.7H20.9001C22.0603 16.7 23.0001 15.7601 23.0001 14.6V13.55C23.0001 12.3898 22.0603 11.45 20.9001 11.45ZM21.9501 14.6C21.9501 15.1789 21.479 15.65 20.9001 15.65H17.2251C16.3556 15.65 15.6501 14.9445 15.6501 14.075C15.6501 13.2054 16.3556 12.5 17.2251 12.5H20.9001C21.479 12.5 21.9501 12.971 21.9501 13.55V14.6Z" fill="#7F829A" stroke="#7F829A" stroke-width="0.1"/>
<path d="M20.9 18.225C20.6094 18.225 20.375 18.4594 20.375 18.75V18.8C20.375 19.9601 19.4352 20.9 18.275 20.9H5.15C3.98984 20.9 3.05 19.9601 3.05 18.8V9.34999C3.05 8.18983 3.98984 7.24999 5.15 7.24999H18.275C19.4352 7.24999 20.375 8.18983 20.375 9.34999V9.39999C20.375 9.69061 20.6094 9.92499 20.9 9.92499C21.1906 9.92499 21.425 9.69061 21.425 9.39999V9.34999C21.425 7.61796 20.007 6.19999 18.275 6.19999H15.7344L14.7523 4.62264C14.1711 3.61483 13.107 3.04999 12.0148 3.04999C11.4805 3.04999 10.9414 3.18593 10.4492 3.46952L4.98125 6.20936C3.32656 6.29608 2 7.67421 2 9.34999V18.8C2 20.532 3.41797 21.95 5.15 21.95H18.275C20.007 21.95 21.425 20.532 21.425 18.8V18.75C21.425 18.4594 21.1906 18.225 20.9 18.225ZM10.9461 4.3953C10.9555 4.39061 10.9648 4.38593 10.9742 4.37889C11.2906 4.19608 11.6492 4.09999 12.0148 4.09999C12.7695 4.09999 13.4703 4.50077 13.843 5.14764C13.857 5.17342 13.8734 5.19921 13.8922 5.22264L14.4711 6.19999H7.24297L10.9461 4.3953Z" fill="#7F829A" stroke="#7F829A" stroke-width="0.4"/>
</g>
<defs>
<clipPath id="clip0_45_1000">
<rect width="24" height="24" fill="white" transform="translate(0.5 0.5)"/>
</clipPath>
</defs>
</svg>
