<svg width="25" height="25" viewBox="0 0 25 25" fill="none" xmlns="http://www.w3.org/2000/svg">
<g clip-path="url(#clip0_45_1053)">
<line x1="7.52246" y1="21.7499" x2="17.477" y2="21.7499" stroke="#226AFD" stroke-width="1.5" stroke-linecap="round"/>
<mask id="path-2-inside-1_45_1053" fill="white">
<path fill-rule="evenodd" clip-rule="evenodd" d="M7 2.5C4.23858 2.5 2 4.73857 2 7.5V14.6429C2 17.4043 4.23858 19.6429 7 19.6429H18C20.7614 19.6429 23 17.4043 23 14.6429V7.5C23 4.73858 20.7614 2.5 18 2.5H7ZM18.31 9.62593C18.5855 9.31666 18.5582 8.84257 18.2489 8.56703C17.9396 8.2915 17.4655 8.31885 17.19 8.62812L14.148 12.0426L11.1993 9.83606C10.9329 9.63672 10.5671 9.63672 10.3007 9.83606L6.80065 12.4551C6.46901 12.7033 6.40134 13.1733 6.64951 13.5049C6.89768 13.8366 7.3677 13.9043 7.69935 13.6561L10.75 11.3733L13.8007 13.6561C14.1125 13.8894 14.5509 13.8453 14.81 13.5545L18.31 9.62593Z"/>
</mask>
<path fill-rule="evenodd" clip-rule="evenodd" d="M7 2.5C4.23858 2.5 2 4.73857 2 7.5V14.6429C2 17.4043 4.23858 19.6429 7 19.6429H18C20.7614 19.6429 23 17.4043 23 14.6429V7.5C23 4.73858 20.7614 2.5 18 2.5H7ZM18.31 9.62593C18.5855 9.31666 18.5582 8.84257 18.2489 8.56703C17.9396 8.2915 17.4655 8.31885 17.19 8.62812L14.148 12.0426L11.1993 9.83606C10.9329 9.63672 10.5671 9.63672 10.3007 9.83606L6.80065 12.4551C6.46901 12.7033 6.40134 13.1733 6.64951 13.5049C6.89768 13.8366 7.3677 13.9043 7.69935 13.6561L10.75 11.3733L13.8007 13.6561C14.1125 13.8894 14.5509 13.8453 14.81 13.5545L18.31 9.62593Z" fill="#226AFD"/>
<path d="M18.2489 8.56703L19.2467 7.44704V7.44704L18.2489 8.56703ZM18.31 9.62593L17.19 8.62812L17.19 8.62813L18.31 9.62593ZM17.19 8.62812L16.07 7.63032V7.63032L17.19 8.62812ZM14.148 12.0426L13.2494 13.2436C13.8729 13.7102 14.7499 13.6219 15.268 13.0404L14.148 12.0426ZM11.1993 9.83606L12.098 8.63508V8.63508L11.1993 9.83606ZM10.3007 9.83606L9.40196 8.63508L9.40196 8.63508L10.3007 9.83606ZM6.80065 12.4551L7.69935 13.6561L7.69935 13.6561L6.80065 12.4551ZM6.64951 13.5049L5.44853 14.4036L5.44853 14.4036L6.64951 13.5049ZM7.69935 13.6561L6.80065 12.4551H6.80065L7.69935 13.6561ZM10.75 11.3733L11.6487 10.1723C11.1159 9.77361 10.3841 9.77361 9.85131 10.1723L10.75 11.3733ZM13.8007 13.6561L12.902 14.8571V14.8571L13.8007 13.6561ZM14.81 13.5545L13.69 12.5567L13.69 12.5567L14.81 13.5545ZM3.5 7.5C3.5 5.567 5.067 4 7 4V1C3.41015 1 0.5 3.91015 0.5 7.5H3.5ZM3.5 14.6429V7.5H0.5V14.6429H3.5ZM7 18.1429C5.067 18.1429 3.5 16.5759 3.5 14.6429H0.5C0.5 18.2327 3.41015 21.1429 7 21.1429V18.1429ZM18 18.1429H7V21.1429H18V18.1429ZM21.5 14.6429C21.5 16.5759 19.933 18.1429 18 18.1429V21.1429C21.5898 21.1429 24.5 18.2327 24.5 14.6429H21.5ZM21.5 7.5V14.6429H24.5V7.5H21.5ZM18 4C19.933 4 21.5 5.567 21.5 7.5H24.5C24.5 3.91015 21.5898 1 18 1V4ZM7 4H18V1H7V4ZM17.2511 9.68703C16.9418 9.41149 16.9145 8.9374 17.19 8.62812L19.43 10.6237C20.2566 9.69592 20.1745 8.27366 19.2467 7.44704L17.2511 9.68703ZM18.31 9.62593C18.0345 9.93521 17.5604 9.96256 17.2511 9.68703L19.2467 7.44704C18.3189 6.62043 16.8966 6.70248 16.07 7.63032L18.31 9.62593ZM15.268 13.0404L18.31 9.62593L16.07 7.63032L13.0281 11.0448L15.268 13.0404ZM10.3007 11.037L13.2494 13.2436L15.0467 10.8416L12.098 8.63508L10.3007 11.037ZM11.1993 11.037C10.9329 11.2364 10.5671 11.2364 10.3007 11.037L12.098 8.63508C11.2988 8.03704 10.2012 8.03704 9.40196 8.63508L11.1993 11.037ZM7.69935 13.6561L11.1993 11.037L9.40196 8.63508L5.90196 11.2541L7.69935 13.6561ZM7.85049 12.6063C8.09865 12.9379 8.03099 13.4079 7.69935 13.6561L5.90196 11.2541C4.90704 11.9986 4.70403 13.4087 5.44853 14.4036L7.85049 12.6063ZM6.80065 12.4551C7.1323 12.2069 7.60232 12.2746 7.85049 12.6063L5.44853 14.4036C6.19303 15.3986 7.60311 15.6016 8.59804 14.8571L6.80065 12.4551ZM9.85131 10.1723L6.80065 12.4551L8.59804 14.8571L11.6487 12.5743L9.85131 10.1723ZM14.6993 12.4551L11.6487 10.1723L9.85131 12.5743L12.902 14.8571L14.6993 12.4551ZM13.69 12.5567C13.9491 12.2659 14.3876 12.2218 14.6993 12.4551L12.902 14.8571C13.8374 15.557 15.1528 15.4246 15.93 14.5523L13.69 12.5567ZM17.19 8.62813L13.69 12.5567L15.93 14.5523L19.43 10.6237L17.19 8.62813Z" fill="#226AFD" mask="url(#path-2-inside-1_45_1053)"/>
</g>
<defs>
<clipPath id="clip0_45_1053">
<rect width="24" height="24" fill="white" transform="translate(0.5 0.5)"/>
</clipPath>
</defs>
</svg>
