<svg width="25" height="25" viewBox="0 0 25 25" fill="none" xmlns="http://www.w3.org/2000/svg">
<g clip-path="url(#clip0_45_1130)">
<path d="M12.5 23.5C6.43467 23.5 1.5 18.5654 1.5 12.4999C1.5 6.43434 6.43467 1.5 12.5 1.5C18.5653 1.5 23.5 6.43461 23.5 12.5001C23.5 18.5657 18.5653 23.5 12.5 23.5ZM12.5 3.32506C7.44108 3.32506 3.32509 7.44073 3.32509 12.4999C3.32509 17.559 7.44108 21.6749 12.5 21.6749C17.5589 21.6749 21.6749 17.5593 21.6749 12.5001C21.6749 7.441 17.5589 3.32506 12.5 3.32506Z" fill="#226AFD"/>
<path fill-rule="evenodd" clip-rule="evenodd" d="M12.5 22.4C17.9676 22.4 22.4 17.9676 22.4 12.5C22.4 7.03236 17.9676 2.59998 12.5 2.59998C7.03239 2.59998 2.60001 7.03236 2.60001 12.5C2.60001 17.9676 7.03239 22.4 12.5 22.4ZM8.93448 11.6123H16.7711C16.9516 11.6123 17.1281 11.5588 17.2782 11.4585C17.4283 11.3582 17.5452 11.2157 17.6143 11.0489C17.6833 10.8822 17.7014 10.6987 17.6662 10.5217C17.6309 10.3447 17.544 10.1821 17.4163 10.0546L15.9336 8.5719C15.673 8.31075 15.2806 8.23249 14.939 8.37395C14.598 8.51542 14.3759 8.8481 14.3759 9.2171V9.78726H8.93448C8.43047 9.78726 8.02194 10.1958 8.02194 10.6998C8.02194 11.2038 8.43047 11.6123 8.93448 11.6123ZM9.77199 16.4281C9.94654 16.6026 10.1797 16.6954 10.4175 16.6954C10.6595 16.6953 10.8915 16.599 11.0626 16.4279C11.2337 16.2567 11.3297 16.0246 11.3297 15.7826V15.2127H16.7711C17.2751 15.2127 17.6836 14.8042 17.6836 14.3002C17.6836 13.7962 17.2751 13.3876 16.7711 13.3876H8.93448C8.75397 13.3876 8.57751 13.4411 8.42742 13.5414C8.27734 13.6417 8.16037 13.7843 8.09133 13.9511C7.95013 14.2921 8.02813 14.6848 8.28927 14.9456L9.77199 16.4281Z" fill="#226AFD"/>
</g>
<defs>
<clipPath id="clip0_45_1130">
<rect width="24" height="24" fill="white" transform="translate(0.5 0.5)"/>
</clipPath>
</defs>
</svg>
