<svg width="24" height="24" viewBox="0 0 24 24" fill="none" xmlns="http://www.w3.org/2000/svg">
<path d="M11.8944 15.7358C11.4398 15.7358 11.012 15.5595 10.6904 15.2389L5.95077 10.4986C5.77147 10.3193 5.67273 10.0809 5.67273 9.82734C5.67273 9.57382 5.77145 9.33539 5.95077 9.15612C6.13009 8.97685 6.36845 8.87813 6.622 8.87813C6.87552 8.87813 7.11395 8.9768 7.29322 9.15612L11.8941 13.7574L16.496 9.15612C16.6753 8.97682 16.9136 8.87813 17.1672 8.87813C17.4207 8.87813 17.6591 8.9768 17.8384 9.15612C18.2086 9.52629 18.2086 10.1284 17.8384 10.4987L13.0989 15.2378C12.7777 15.559 12.35 15.7358 11.8944 15.7358Z" fill="white"/>
<path d="M11.8945 15.5468C11.3711 15.5468 10.9453 15.1211 10.9453 14.5975V2.54599C10.9453 2.02254 11.371 1.59666 11.8945 1.59666C12.4181 1.59666 12.8439 2.02237 12.8439 2.54599V14.5975C12.8439 15.121 12.4181 15.5468 11.8945 15.5468Z" fill="white"/>
<path d="M4.86445 23.0792C2.67958 23.0792 0.902222 21.3017 0.902222 19.1169V8.06972C0.902222 5.88488 2.67965 4.10749 4.86445 4.10749C5.38783 4.10749 5.81367 4.53319 5.81367 5.05671C5.81367 5.58023 5.38797 6.00593 4.86445 6.00593C3.72642 6.00593 2.80073 6.93171 2.80073 8.06965V19.1169C2.80073 20.2548 3.72649 21.1806 4.86445 21.1806H18.9246C20.0625 21.1806 20.9883 20.2548 20.9883 19.1169V8.06965C20.9883 6.93173 20.0626 6.00593 18.9246 6.00593C18.4012 6.00593 17.9754 5.58023 17.9754 5.05671C17.9754 4.53319 18.4011 4.10749 18.9246 4.10749C21.1095 4.10749 22.8869 5.88492 22.8869 8.06972V19.1169C22.8869 21.3018 21.1094 23.0792 18.9246 23.0792H4.86445Z" fill="white"/>
</svg>
