<svg width="33" height="32" viewBox="0 0 33 32" fill="none" xmlns="http://www.w3.org/2000/svg">
<path d="M11.2498 5.40788C10.4211 5.40788 9.74876 6.08179 9.74876 6.91251V15.1763L10.025 15.2997L16.4986 18.1856L23.1386 15.1796L23.2318 6.92919V6.91251C23.2318 6.08179 22.5595 5.40788 21.7307 5.40788H11.2498ZM5.99774 14.9895V24.2141C5.99774 25.0448 6.67006 25.7187 7.49882 25.7187H25.5017C26.3304 25.7187 27.0028 25.0448 27.0028 24.2141V15.0095L16.8847 19.7402C16.7748 19.8003 16.6517 19.8336 16.5252 19.8336C16.3987 19.8336 16.2756 19.8003 16.1658 19.7402L5.99774 14.9895ZM8.24769 11.4798V7.00592C8.24769 5.34449 9.59233 4 11.2465 4H21.7507C23.4082 4 24.7495 5.34783 24.7495 7.00592V11.4698L28.0678 13.0211C28.3607 13.1579 28.5238 13.4582 28.4972 13.7651C28.5005 13.8051 28.5005 13.8452 28.4972 13.8852V24.1941C28.4972 25.8555 27.1525 27.2 25.4984 27.2H7.49882C5.84131 27.2 4.5 25.8522 4.5 24.1941V13.8418H4.51997C4.51997 13.8151 4.51997 13.7884 4.5233 13.7617C4.5 13.4582 4.66309 13.1579 4.95598 13.0244L8.24769 11.4798ZM8.24769 14.3823V13.8385H7.0861L8.24769 14.3823ZM24.7528 13.1312V13.8418V14.4056L25.9577 13.8418L24.7528 13.1312ZM8.24769 13.1412L6.91969 13.7617L7.08943 13.8418H8.25101V13.1412H8.24769Z" fill="#C1C1C3"/>
<rect x="11.3802" y="8.05032" width="5.1123" height="1.45192" rx="0.725959" fill="#226AFD"/>
<rect x="11.3802" y="12.2665" width="8.5205" height="1.45192" rx="0.725959" fill="#226AFD"/>
</svg>
