<svg width="33" height="32" viewBox="0 0 33 32" fill="none" xmlns="http://www.w3.org/2000/svg">
<path d="M16.4912 14.9923L21.632 11.9798C21.9513 11.7927 22.3597 11.9037 22.5441 12.2279C22.7284 12.552 22.619 12.9664 22.2997 13.1536L17.1725 16.1582V21.4335C17.1725 21.8077 16.8735 22.1111 16.5048 22.1111C16.1361 22.1111 15.8371 21.8077 15.8371 21.4335V16.174L10.7009 13.1642C10.3816 12.977 10.2721 12.5626 10.4565 12.2384C10.6409 11.9143 11.0492 11.8033 11.3686 11.9904L16.4912 14.9923Z" fill="#226AFD" stroke="#226AFD" stroke-width="0.3"/>
<path d="M5.76208 9.26144L16.0383 3.32369C16.1787 3.24255 16.338 3.19983 16.5002 3.19983C16.6623 3.19983 16.8216 3.24255 16.9621 3.32369L27.2383 9.26144C27.3787 9.34258 27.4953 9.45929 27.5764 9.59984C27.6575 9.74038 27.7002 9.89981 27.7002 10.0621V21.9376C27.7002 22.0999 27.6575 22.2593 27.5764 22.3998C27.4953 22.5404 27.3787 22.6571 27.2383 22.7382L16.9621 28.676C16.8216 28.7571 16.6623 28.7998 16.5002 28.7998C16.338 28.7998 16.1787 28.7571 16.0383 28.676L5.76205 22.7382C5.62162 22.6571 5.50501 22.5404 5.42394 22.3998C5.34286 22.2593 5.30018 22.0999 5.30017 21.9376V10.0621C5.30017 9.89981 5.34285 9.74038 5.42393 9.59984C5.50501 9.45929 5.62165 9.34258 5.76208 9.26144ZM7.26564 10.5306C7.23053 10.5508 7.20138 10.58 7.18111 10.6152C7.16084 10.6503 7.15017 10.6902 7.15017 10.7307V21.269C7.15017 21.3095 7.16084 21.3494 7.18111 21.3845C7.20138 21.4196 7.23053 21.4488 7.26564 21.4691L16.3847 26.7382C16.4198 26.7585 16.4596 26.7692 16.5002 26.7692C16.5407 26.7692 16.5805 26.7585 16.6156 26.7382L25.7347 21.4691C25.7698 21.4488 25.7989 21.4197 25.8192 21.3845C25.8395 21.3494 25.8501 21.3095 25.8501 21.269V10.7307C25.8501 10.6902 25.8395 10.6503 25.8192 10.6152C25.7989 10.58 25.7698 10.5508 25.7347 10.5306L16.6156 5.26147C16.5805 5.24119 16.5407 5.23051 16.5002 5.23051C16.4596 5.23051 16.4198 5.24119 16.3847 5.26147L7.26564 10.5306Z" fill="#C1C1C3"/>
</svg>
