<svg width="33" height="32" viewBox="0 0 33 32" fill="none" xmlns="http://www.w3.org/2000/svg">
<path d="M27.7677 10.7009L26.8585 10.4801V12.8806H28.5734V15.7114H22.3031V12.8806H23.8707V9.54309L17.6005 7.79366V25.6192L19.6116 25.789C20.0873 25.7889 20.5583 25.8733 20.9978 26.0375C21.4374 26.2018 21.8367 26.4426 22.1731 26.7462C22.5096 27.0498 22.7764 27.4103 22.9585 27.8071C23.1406 28.2039 23.2343 28.6291 23.2343 29.0586V29.8654H8.74058V29.0586C8.74058 28.629 8.83435 28.2036 9.01652 27.8068C9.19869 27.4099 9.4657 27.0493 9.80228 26.7457C10.1389 26.442 10.5384 26.2013 10.9781 26.0371C11.4178 25.873 11.889 25.7887 12.3648 25.789L14.4653 25.6192C14.4434 13.4326 14.4434 7.29968 14.4653 7.21901L8.19507 5.80361V8.6344H9.76263V11.5063H3.49238V8.6344H5.11637V5.22188L3.26665 4.7732C2.82142 4.64602 2.44767 4.36868 2.22323 3.99893C1.99878 3.62918 1.94094 3.19551 2.06174 2.78821C2.18254 2.38092 2.47267 2.03139 2.87173 1.8124C3.27079 1.59342 3.74802 1.52185 4.20405 1.61261L28.7019 7.54172C29.1547 7.66266 29.5374 7.93842 29.7684 8.31027C29.9994 8.68213 30.0605 9.12071 29.9387 9.53264C29.8169 9.94458 29.5219 10.2973 29.1164 10.5158C28.7109 10.7343 28.227 10.8012 27.7677 10.7023V10.7009Z" fill="#C1C1C3"/>
<path d="M5.10945 5H8.18747V9H5.10945V5Z" fill="#226AFD"/>
<path d="M9.76244 8.50001L9.76244 11.5L3.50002 11.5L3.50002 8.5L9.76244 8.50001Z" fill="#226AFD"/>
<path d="M26.8553 9.49611H23.7773V12.8711L22.3126 12.875V15.9999L28.575 16V12.8789L26.8553 12.875L26.8553 9.49611Z" fill="#226AFD"/>
<path d="M1.98792 2.79002C2.23924 1.90925 3.14078 1.3837 4.03105 1.59899L28.7716 7.58204C29.7146 7.81008 30.2783 8.77707 30.0121 9.71C29.7608 10.5908 28.8592 11.1163 27.969 10.901L3.22841 4.91798C2.28542 4.68994 1.72172 3.72295 1.98792 2.79002Z" fill="#226AFD"/>
</svg>
