<svg width="33" height="32" viewBox="0 0 33 32" fill="none" xmlns="http://www.w3.org/2000/svg">
<path d="M5.66902 29.4725C5.05643 29.4725 4.5592 29.0326 4.5592 28.4906V22.7147C4.5592 22.1727 5.05643 21.7328 5.66902 21.7328C6.2816 21.7328 6.77883 22.1727 6.77883 22.7147V28.4906C6.77883 29.0326 6.2816 29.4725 5.66902 29.4725ZM13.4096 29.4725C12.797 29.4725 12.2998 29.0326 12.2998 28.4906V17.4078C12.2998 16.8658 12.797 16.4259 13.4096 16.4259C14.0222 16.4259 14.5194 16.8658 14.5194 17.4078V28.4906C14.5194 29.0326 14.0222 29.4725 13.4096 29.4725ZM21.1495 29.4725C20.537 29.4725 20.0397 29.0326 20.0397 28.4906V19.3882C20.0397 18.8462 20.537 18.4063 21.1495 18.4063C21.7621 18.4063 22.2594 18.8462 22.2594 19.3882V28.4906C22.259 29.0326 21.7621 29.4725 21.1495 29.4725ZM28.8901 29.4725C28.2776 29.4725 27.7803 29.0326 27.7803 28.4906V13.1999C27.7803 12.6579 28.2776 12.218 28.8901 12.218C29.5027 12.218 29.9999 12.6579 29.9999 13.1999V28.4906C29.9996 29.0326 29.5027 29.4725 28.8901 29.4725Z" fill="#C1C1C3"/>
<path d="M5.11067 16.2496C4.76826 16.2496 4.43021 16.0915 4.21252 15.7929C3.85206 15.298 3.96107 14.6038 4.45662 14.2423L12.8807 8.10711C13.2997 7.80383 13.8481 7.74598 14.3162 7.95697L18.6076 9.86429L26.2075 4.64359L20.2311 4.21658C19.6191 4.17311 19.159 3.64212 19.2028 3.03087C19.2466 2.41962 19.791 1.96085 20.3886 2.00264L28.5816 2.58781C29.1922 2.63128 29.7101 3.05728 29.8706 3.6468C30.0311 4.23698 29.8004 4.86696 29.2962 5.21371L19.5065 11.9395C19.0938 12.2247 18.5715 12.2748 18.1091 12.0715L13.8233 10.1662L5.76305 16.0373C5.57355 16.1754 5.34512 16.2497 5.11067 16.2496Z" fill="#226AFD"/>
</svg>
