<svg width="33" height="32" viewBox="0 0 33 32" fill="none" xmlns="http://www.w3.org/2000/svg">
<path d="M6.45601 30.0165C5.90234 30.0165 5.45618 29.5703 5.45618 29.0166C5.45618 26.8449 8.02026 25.2753 12.5303 24.6464V24.3454C9.47163 22.0017 9.47163 17.6583 9.47163 15.0136C9.47163 10.6487 12.0411 8.04166 16.3414 8.04166H16.5726C20.8729 8.04166 23.4424 10.6487 23.4424 15.0136C23.4424 15.3361 23.437 15.6587 23.4317 15.9919C23.4155 16.5456 22.964 16.981 22.4049 16.9649C21.8513 16.9488 21.4159 16.4918 21.432 15.9382C21.4427 15.6264 21.4427 15.32 21.4427 15.0136C21.4427 11.7131 19.8032 10.0413 16.5726 10.0413H16.3414C13.1108 10.0413 11.4713 11.7131 11.4713 15.0136C11.4713 18.2066 11.6702 21.4588 14.0676 22.9854C14.3579 23.1681 14.5299 23.4853 14.5299 23.8293V25.5333C14.5299 26.044 14.1429 26.474 13.6376 26.5278C9.62214 26.9525 7.45584 28.1297 7.45584 29.0166C7.45584 29.5649 7.0043 30.0165 6.45601 30.0165Z" fill="#C1C1C3"/>
<path d="M26.5548 30.0165C26.0011 30.0165 25.5549 29.5703 25.5549 29.0166C25.5549 28.1243 23.3886 26.9525 19.3732 26.5278C18.8625 26.4741 18.4755 26.044 18.4755 25.5333V23.824C18.4755 23.2703 18.9216 22.8241 19.4753 22.8241C20.029 22.8241 20.4751 23.2703 20.4751 23.824V24.6464C24.9851 25.27 27.5492 26.845 27.5492 29.0166C27.5546 29.5649 27.1084 30.0165 26.5548 30.0165Z" fill="#C1C1C3"/>
<path d="M19.6312 21.0449C18.2551 21.0449 17.2284 20.9051 17.2015 20.8997C16.707 20.7492 16.4113 20.2493 16.5188 19.7386C16.621 19.2333 17.094 18.9001 17.6101 18.9484C20.1043 19.2226 23.9101 18.9861 24.5766 17.5992C24.8131 17.1047 25.4098 16.8896 25.9097 17.1315C26.4097 17.3681 26.6193 17.9701 26.3774 18.4647C25.3346 20.6363 21.9803 21.0449 19.6312 21.0449Z" fill="#226AFD"/>
<path d="M28.5006 19.9966C27.9469 19.9966 27.5008 19.5505 27.5008 18.9968V15.5028L26.1623 15.0244C25.7645 14.8846 25.4957 14.5029 25.4957 14.0836C25.4957 9.06836 21.4588 4.98303 16.4973 4.98303C11.5357 4.98303 7.49876 9.06836 7.49876 14.0836C7.49876 14.4062 7.34288 14.7072 7.07948 14.8953L6.49893 15.3092V18.9968C6.49893 19.5505 6.05277 19.9966 5.4991 19.9966C4.94543 19.9966 4.49927 19.5505 4.49927 18.9968V14.7986C4.49927 14.4761 4.65516 14.175 4.91855 13.9869L5.50985 13.5622C5.784 7.68687 10.6058 2.98874 16.4973 2.98874C22.3242 2.98874 27.1084 7.58474 27.4739 13.3741L28.8339 13.8579C29.2317 13.9976 29.5004 14.3793 29.5004 14.7986V18.9968C29.5004 19.5505 29.0543 19.9966 28.5006 19.9966Z" fill="#226AFD"/>
</svg>
