<svg width="33" height="32" viewBox="0 0 33 32" fill="none" xmlns="http://www.w3.org/2000/svg">
<path d="M24.4351 16.0681C24.4439 17.2686 24.113 18.4502 23.4753 19.4947C22.8376 20.5392 21.9156 21.41 20.8015 22.02C20.6633 22.0844 20.5152 22.1286 20.3625 22.1511C20.3047 22.1571 20.3047 22.1571 20.2426 22.1571C19.9397 22.1529 19.651 22.0373 19.4398 21.8358C19.2287 21.6342 19.1123 21.3631 19.1163 21.082C19.1163 20.7044 19.3197 20.3586 19.6645 20.1559C20.4346 19.7414 21.0727 19.145 21.5139 18.4273C21.9551 17.7096 22.1836 16.8963 22.1761 16.0701C22.1761 14.3769 21.234 12.8468 19.7394 12.026C19.5679 11.9279 19.4265 11.7904 19.329 11.6268C19.2315 11.4632 19.1811 11.279 19.1827 11.092C19.1827 10.4978 19.6837 10.0129 20.309 10.0129C20.5017 10.0129 20.7372 10.0924 20.9299 10.1918C23.084 11.404 24.4351 13.6238 24.4351 16.0681ZM22.705 6.03641C22.9363 6.03641 23.1225 6.10397 23.3516 6.23713C26.9425 8.27208 29.1929 11.9823 29.1929 16.0721C29.1929 20.1658 26.9318 23.884 23.3303 25.917C23.1422 26.0408 22.9184 26.1093 22.6879 26.1137C22.5383 26.1117 22.3906 26.0823 22.2532 26.0272C22.1159 25.9722 21.9916 25.8925 21.8874 25.7929C21.7832 25.6932 21.7012 25.5755 21.646 25.4464C21.5908 25.3173 21.5636 25.1794 21.5659 25.0406C21.5659 24.6332 21.8292 24.2735 22.1997 24.0768C25.1246 22.4273 26.9597 19.4047 26.9597 16.0721C26.9597 12.7335 25.1203 9.71285 22.2018 8.0654C22.016 7.97245 21.8606 7.83487 21.7517 7.66706C21.6429 7.49926 21.5846 7.30738 21.583 7.11151C21.583 6.51931 22.0819 6.03839 22.705 6.03839V6.03641Z" fill="#226AFD"/>
<path d="M14.9128 4.99653C15.0548 4.89088 15.2286 4.82447 15.4129 4.80556C15.5971 4.78666 15.7835 4.81609 15.949 4.8902C16.1169 4.9667 16.2574 5.08307 16.3547 5.22627C16.4521 5.36946 16.5025 5.53383 16.5003 5.70094V26.2976C16.502 26.4689 16.4487 26.6372 16.3466 26.7828C16.2444 26.9283 16.0976 27.0452 15.9232 27.1197C15.7523 27.1917 15.5607 27.2161 15.3738 27.1896C15.1869 27.1632 15.0134 27.0872 14.8764 26.9716C14.8635 26.9602 13.5893 25.9179 12.1692 24.8527C9.73008 23.0205 8.97495 22.6977 8.81623 22.6446H4.60947C4.50186 22.6426 4.39573 22.6219 4.29716 22.5836C4.19859 22.5453 4.10951 22.4902 4.03501 22.4214C3.9605 22.3527 3.90204 22.2716 3.86295 22.1828C3.82386 22.094 3.80491 21.9993 3.80719 21.9041V10.0963C3.80719 9.68813 4.16758 9.35585 4.6095 9.35585H8.17481C8.33783 9.30458 9.14014 8.99322 11.8881 7.12683C12.9097 6.43168 13.9181 5.72148 14.9128 4.99653ZM5.9524 11.2545V20.7478H9.2045L9.57132 20.8693C10.2814 21.1066 11.4655 21.8357 13.5549 23.4059C13.8209 23.6034 14.0912 23.8084 14.353 24.0135V7.83313C13.9604 8.10654 13.5592 8.38375 13.1945 8.63246C10.8649 10.2122 9.59063 10.9298 8.87415 11.1482L8.5352 11.2507H5.9524V11.2545Z" fill="#C1C1C3"/>
</svg>
