<svg width="33" height="32" viewBox="0 0 33 32" fill="none" xmlns="http://www.w3.org/2000/svg">
<path d="M13.321 15.012H7.84799C6.40499 15.012 5.22198 13.829 5.22198 12.386V6.92599C5.23498 5.48299 6.40499 4.29999 7.84799 4.29999H13.321C14.764 4.29999 15.947 5.48299 15.947 6.92599V12.399C15.947 13.842 14.764 15.012 13.321 15.012ZM7.84799 5.66499C7.15899 5.66499 6.58698 6.22399 6.58698 6.92599V12.399C6.58698 13.088 7.14599 13.66 7.84799 13.66H13.321C14.01 13.66 14.582 13.101 14.582 12.399V6.92599C14.582 6.23699 14.023 5.66499 13.321 5.66499H7.84799ZM26.204 15.012H20.731C19.288 15.012 18.105 13.829 18.105 12.386V6.92599C18.105 5.48299 19.288 4.29999 20.731 4.29999H26.204C27.647 4.29999 28.83 5.48299 28.83 6.92599V12.399C28.83 13.842 27.647 15.012 26.204 15.012ZM20.731 5.66499C20.042 5.66499 19.47 6.22399 19.47 6.92599V12.399C19.47 13.088 20.029 13.66 20.731 13.66H26.204C26.893 13.66 27.465 13.101 27.465 12.399V6.92599C27.465 6.23699 26.906 5.66499 26.204 5.66499H20.731ZM13.321 27.765H7.84799C6.40499 27.765 5.22198 26.582 5.22198 25.139V19.666C5.22198 18.223 6.40499 17.04 7.84799 17.04H13.321C14.764 17.04 15.947 18.223 15.947 19.666V25.139C15.947 26.595 14.764 27.765 13.321 27.765ZM7.84799 18.418C7.15899 18.418 6.58698 18.977 6.58698 19.679V25.152C6.58698 25.841 7.14599 26.413 7.84799 26.413H13.321C14.01 26.413 14.582 25.854 14.582 25.152V19.679C14.582 18.99 14.023 18.418 13.321 18.418H7.84799ZM23.474 27.765C20.523 27.765 18.118 25.36 18.118 22.409C18.118 19.458 20.523 17.053 23.474 17.053C26.425 17.053 28.83 19.458 28.83 22.409C28.83 25.36 26.425 27.765 23.474 27.765ZM23.474 18.418C21.277 18.418 19.483 20.212 19.483 22.409C19.483 24.606 21.277 26.4 23.474 26.4C25.671 26.4 27.465 24.606 27.465 22.409C27.465 20.212 25.671 18.418 23.474 18.418Z" fill="#C1C1C3" stroke="#C1C1C3" stroke-width="0.4"/>
<path d="M13.3209 15.012H7.84792C6.40492 15.012 5.22192 13.829 5.22192 12.386V6.92599C5.23492 5.48299 6.40492 4.29999 7.84792 4.29999H13.3209C14.7639 4.29999 15.9469 5.48299 15.9469 6.92599V12.399C15.9469 13.842 14.7639 15.012 13.3209 15.012ZM7.84792 5.66499C7.15892 5.66499 6.58692 6.22399 6.58692 6.92599V12.399C6.58692 13.088 7.14592 13.66 7.84792 13.66H13.3209C14.0099 13.66 14.5819 13.101 14.5819 12.399V6.92599C14.5819 6.23699 14.0229 5.66499 13.3209 5.66499H7.84792ZM23.4739 27.765C20.5229 27.765 18.1179 25.36 18.1179 22.409C18.1179 19.458 20.5229 17.053 23.4739 17.053C26.4249 17.053 28.8299 19.458 28.8299 22.409C28.8299 25.36 26.4249 27.765 23.4739 27.765ZM23.4739 18.418C21.2769 18.418 19.4829 20.212 19.4829 22.409C19.4829 24.606 21.2769 26.4 23.4739 26.4C25.6709 26.4 27.4649 24.606 27.4649 22.409C27.4649 20.212 25.6709 18.418 23.4739 18.418Z" fill="#226AFD" stroke="#226AFD" stroke-width="0.4"/>
</svg>
