<svg width="33" height="32" viewBox="0 0 33 32" fill="none" xmlns="http://www.w3.org/2000/svg">
<path d="M30 21.4107C29.9737 20.924 29.7657 20.4641 29.4159 20.1194C29.0661 19.7748 28.5993 19.5698 28.1053 19.5439H27.9508V19.5525H23.9354V5.86716C23.9194 5.37706 23.7146 4.91134 23.3627 4.56461C23.0108 4.21788 22.5381 4.01612 22.0407 4.00032H5.90638C5.65899 3.99598 5.4132 4.04036 5.18345 4.13086C4.95369 4.22136 4.74459 4.35616 4.56842 4.52734C4.39078 4.69709 4.24908 4.89986 4.15151 5.12393C4.05395 5.34799 4.00245 5.58889 4 5.83269V26.8332C4.0158 27.3248 4.22168 27.792 4.57552 28.139C4.92935 28.486 5.4044 28.6867 5.90347 28.7H26.1537C27.1603 28.6994 28.1264 28.3098 28.8446 27.6149C29.5627 26.9199 29.9755 25.9752 29.9942 24.9836V21.4107H30ZM5.90347 26.961H5.89472C5.8794 26.9624 5.86395 26.9608 5.84927 26.9562C5.83459 26.9517 5.82096 26.9443 5.80917 26.9346C5.79738 26.9249 5.78767 26.9129 5.78059 26.8994C5.77351 26.886 5.76921 26.8713 5.76792 26.8562C5.76697 26.8447 5.76697 26.8332 5.76792 26.8217V5.88583C5.77063 5.84862 5.78686 5.81363 5.81362 5.78725C5.84039 5.76088 5.87591 5.74489 5.91367 5.74223H22.0611C22.0903 5.74211 22.1185 5.75283 22.1401 5.77224C22.1617 5.79166 22.1751 5.81836 22.1777 5.84706C22.1787 5.85852 22.1787 5.87005 22.1777 5.88152V24.9534C22.188 25.6636 22.3919 26.358 22.768 26.9639L5.90347 26.961ZM28.1942 21.4768V24.9046C28.152 25.4657 27.8855 25.9874 27.4531 26.355C27.0208 26.7225 26.458 26.9059 25.8884 26.8648C25.3758 26.8256 24.894 26.6078 24.5295 26.2505C24.1649 25.8931 23.9414 25.4196 23.899 24.9147V21.3519H28.0674C28.0827 21.3502 28.0983 21.3516 28.1131 21.3561C28.1279 21.3605 28.1416 21.3679 28.1534 21.3777C28.1652 21.3873 28.1751 21.399 28.1823 21.4123C28.1896 21.4256 28.1941 21.4402 28.1956 21.4553C28.1958 21.4625 28.1953 21.4697 28.1942 21.4768Z" fill="#C1C1C3"/>
<path d="M17.9772 10.8502H9.55294C9.30886 10.8688 9.08093 10.9775 8.91465 11.1546C8.74838 11.3316 8.65602 11.5639 8.65602 11.8051C8.65602 12.0463 8.74838 12.2786 8.91465 12.4557C9.08093 12.6327 9.30886 12.7414 9.55294 12.7601H17.9772C18.2283 12.7505 18.4659 12.6455 18.6401 12.467C18.8144 12.2886 18.9117 12.0506 18.9117 11.803C18.9117 11.5554 18.8144 11.3174 18.6401 11.1389C18.4659 10.9605 18.2283 10.8554 17.9772 10.8459V10.8502ZM17.9772 15.4081H9.55294C9.30181 15.4177 9.06421 15.5227 8.88998 15.7012C8.71575 15.8796 8.61843 16.1176 8.61843 16.3652C8.61843 16.6128 8.71575 16.8508 8.88998 17.0293C9.06421 17.2077 9.30181 17.3128 9.55294 17.3223H17.9772C18.2283 17.3128 18.4659 17.2077 18.6401 17.0293C18.8144 16.8508 18.9117 16.6128 18.9117 16.3652C18.9117 16.1176 18.8144 15.8796 18.6401 15.7012C18.4659 15.5227 18.2283 15.4177 17.9772 15.4081ZM11.8834 19.9661H9.52524C9.27575 19.9774 9.04004 20.082 8.86617 20.2587C8.69229 20.4353 8.59336 20.6707 8.58954 20.9167C8.58767 20.9478 8.58767 20.979 8.58954 21.0101C8.58954 21.4854 9.01513 21.8717 9.54856 21.8803H11.8849C12.4752 21.8803 12.9547 21.4495 12.9547 20.9225C12.9536 20.7942 12.925 20.6677 12.8707 20.5511C12.8165 20.4345 12.7378 20.3306 12.6399 20.2461C12.4318 20.0635 12.1621 19.9636 11.8834 19.9661Z" fill="#226AFD"/>
</svg>
