<svg width="24" height="24" viewBox="0 0 24 24" fill="none" xmlns="http://www.w3.org/2000/svg">
<path d="M20.6154 4.03848C20.9418 4.03848 21.2549 4.17221 21.4857 4.41024C21.7165 4.64827 21.8462 4.97111 21.8462 5.30773V18.0002C21.8462 18.3369 21.7165 18.6597 21.4857 18.8977C21.2549 19.1358 20.9418 19.2695 20.6154 19.2695H14.9711L14.6105 19.6376L12.8702 21.4399C12.6383 21.6757 12.3257 21.8079 12 21.8079C11.6744 21.8079 11.3618 21.6757 11.1299 21.4399L9.38956 19.6376L9.02894 19.2695H3.38463C3.05821 19.2695 2.74516 19.1358 2.51435 18.8977C2.28354 18.6597 2.15386 18.3369 2.15386 18.0002V5.30773C2.15386 4.97111 2.28354 4.64827 2.51435 4.41024C2.74516 4.17221 3.05821 4.03848 3.38463 4.03848H20.6154ZM20.6154 2.76923H3.38463C2.73179 2.76923 2.10569 3.03668 1.64406 3.51274C1.18244 3.9888 0.923096 4.63448 0.923096 5.30773L0.923096 18.0002C0.923096 18.6735 1.18244 19.3192 1.64406 19.7952C2.10569 20.2713 2.73179 20.5387 3.38463 20.5387H8.51817L10.2585 22.3284C10.4862 22.5655 10.7573 22.7538 11.056 22.8823C11.3547 23.0108 11.6751 23.0769 11.9988 23.0769C12.3224 23.0769 12.6429 23.0108 12.9416 22.8823C13.2403 22.7538 13.5114 22.5655 13.7391 22.3284L15.4794 20.5387H20.6154C21.2682 20.5387 21.8943 20.2713 22.356 19.7952C22.8176 19.3192 23.0769 18.6735 23.0769 18.0002V5.30773C23.0769 4.63448 22.8176 3.9888 22.356 3.51274C21.8943 3.03668 21.2682 2.76923 20.6154 2.76923ZM8.30771 11.654C8.30771 11.905 8.23553 12.1504 8.10029 12.3591C7.96505 12.5679 7.77283 12.7306 7.54794 12.8266C7.32304 12.9227 7.07558 12.9478 6.83683 12.8988C6.59808 12.8499 6.37878 12.729 6.20666 12.5515C6.03453 12.374 5.91731 12.1478 5.86982 11.9016C5.82233 11.6554 5.84671 11.4002 5.93986 11.1683C6.03301 10.9363 6.19076 10.7381 6.39316 10.5986C6.59556 10.4592 6.83352 10.3847 7.07694 10.3847C7.40336 10.3847 7.71641 10.5185 7.94723 10.7565C8.17804 10.9945 8.30771 11.3174 8.30771 11.654ZM13.2308 11.654C13.2308 11.905 13.1586 12.1504 13.0234 12.3591C12.8881 12.5679 12.6959 12.7306 12.471 12.8266C12.2461 12.9227 11.9987 12.9478 11.7599 12.8988C11.5212 12.8499 11.3019 12.729 11.1297 12.5515C10.9576 12.374 10.8404 12.1478 10.7929 11.9016C10.7454 11.6554 10.7698 11.4002 10.8629 11.1683C10.9561 10.9363 11.1138 10.7381 11.3162 10.5986C11.5186 10.4592 11.7566 10.3847 12 10.3847C12.3264 10.3847 12.6395 10.5185 12.8703 10.7565C13.1011 10.9945 13.2308 11.3174 13.2308 11.654ZM18.1539 11.654C18.1539 11.905 18.0817 12.1504 17.9464 12.3591C17.8112 12.5679 17.619 12.7306 17.3941 12.8266C17.1692 12.9227 16.9217 12.9478 16.683 12.8988C16.4442 12.8499 16.2249 12.729 16.0528 12.5515C15.8807 12.374 15.7635 12.1478 15.716 11.9016C15.6685 11.6554 15.6929 11.4002 15.786 11.1683C15.8792 10.9363 16.0369 10.7381 16.2393 10.5986C16.4417 10.4592 16.6797 10.3847 16.9231 10.3847C17.2495 10.3847 17.5626 10.5185 17.7934 10.7565C18.0242 10.9945 18.1539 11.3174 18.1539 11.654Z" fill="white"/>
<path d="M20.6154 4.03848C20.9418 4.03848 21.2549 4.17221 21.4857 4.41024C21.7165 4.64827 21.8462 4.97111 21.8462 5.30773V18.0002C21.8462 18.3369 21.7165 18.6597 21.4857 18.8977C21.2549 19.1358 20.9418 19.2695 20.6154 19.2695H14.9711L14.6105 19.6376L12.8702 21.4399C12.6383 21.6757 12.3257 21.8079 12 21.8079C11.6744 21.8079 11.3618 21.6757 11.1299 21.4399L9.38956 19.6376L9.02894 19.2695H3.38463C3.05821 19.2695 2.74516 19.1358 2.51435 18.8977C2.28353 18.6597 2.15386 18.3369 2.15386 18.0002V5.30773C2.15386 4.97111 2.28353 4.64827 2.51435 4.41024C2.74516 4.17221 3.05821 4.03848 3.38463 4.03848H20.6154M20.6154 2.76923H3.38463C2.73179 2.76923 2.10569 3.03668 1.64406 3.51274C1.18244 3.9888 0.923096 4.63448 0.923096 5.30773L0.923096 18.0002C0.923096 18.6735 1.18244 19.3192 1.64406 19.7952C2.10569 20.2713 2.73179 20.5387 3.38463 20.5387H8.51817L10.2585 22.3284C10.4862 22.5655 10.7573 22.7538 11.056 22.8823C11.3547 23.0108 11.6751 23.0769 11.9988 23.0769C12.3224 23.0769 12.6429 23.0108 12.9416 22.8823C13.2403 22.7538 13.5114 22.5655 13.7391 22.3284L15.4794 20.5387H20.6154C21.2682 20.5387 21.8943 20.2713 22.356 19.7952C22.8176 19.3192 23.0769 18.6735 23.0769 18.0002V5.30773C23.0769 4.63448 22.8176 3.9888 22.356 3.51274C21.8943 3.03668 21.2682 2.76923 20.6154 2.76923V2.76923ZM8.30771 11.654C8.30771 11.905 8.23553 12.1504 8.10029 12.3591C7.96505 12.5679 7.77283 12.7306 7.54794 12.8266C7.32304 12.9227 7.07558 12.9478 6.83683 12.8988C6.59809 12.8499 6.37878 12.729 6.20666 12.5515C6.03453 12.374 5.91731 12.1478 5.86982 11.9016C5.82233 11.6554 5.84671 11.4002 5.93986 11.1683C6.03301 10.9363 6.19076 10.7381 6.39316 10.5986C6.59556 10.4592 6.83352 10.3847 7.07694 10.3847C7.40336 10.3847 7.71641 10.5185 7.94723 10.7565C8.17804 10.9945 8.30771 11.3174 8.30771 11.654V11.654ZM13.2308 11.654C13.2308 11.905 13.1586 12.1504 13.0234 12.3591C12.8881 12.5679 12.6959 12.7306 12.471 12.8266C12.2461 12.9227 11.9987 12.9478 11.7599 12.8988C11.5212 12.8499 11.3019 12.729 11.1297 12.5515C10.9576 12.374 10.8404 12.1478 10.7929 11.9016C10.7454 11.6554 10.7698 11.4002 10.8629 11.1683C10.9561 10.9363 11.1138 10.7381 11.3162 10.5986C11.5186 10.4592 11.7566 10.3847 12 10.3847C12.3264 10.3847 12.6395 10.5185 12.8703 10.7565C13.1011 10.9945 13.2308 11.3174 13.2308 11.654ZM18.1539 11.654C18.1539 11.905 18.0817 12.1504 17.9464 12.3591C17.8112 12.5679 17.619 12.7306 17.3941 12.8266C17.1692 12.9227 16.9217 12.9478 16.683 12.8988C16.4442 12.8499 16.2249 12.729 16.0528 12.5515C15.8807 12.374 15.7635 12.1478 15.716 11.9016C15.6685 11.6554 15.6929 11.4002 15.786 11.1683C15.8792 10.9363 16.0369 10.7381 16.2393 10.5986C16.4417 10.4592 16.6797 10.3847 16.9231 10.3847C17.2495 10.3847 17.5626 10.5185 17.7934 10.7565C18.0242 10.9945 18.1539 11.3174 18.1539 11.654Z" stroke="white" stroke-width="0.5"/>
</svg>
