<svg width="32" height="32" viewBox="0 0 32 32" fill="none" xmlns="http://www.w3.org/2000/svg">
<rect width="32" height="32" rx="16" fill="#226AFD"/>
<path d="M11.8066 11.5684C11.8066 13.9277 13.7188 15.8398 16.0781 15.8398C18.4375 15.8398 20.3496 13.9277 20.3496 11.5684C20.3496 9.20898 18.4375 7.29687 16.0781 7.29687C13.7188 7.29492 11.8066 9.20898 11.8066 11.5684Z" fill="#212029"/>
<path d="M24.2657 19.9023C23.9746 17.709 22.4532 15.7012 20.4551 15.3945H19.5743C18.834 16.5996 17.5137 17.4102 15.9942 17.4102C14.4746 17.4102 13.1543 16.5996 12.4121 15.3945H11.5391C9.77934 15.7012 8.03715 17.6074 7.74613 19.8027C7.70902 19.9902 7.42582 22.1328 7.42973 22.2266C7.4434 23.127 7.98051 23.8984 8.73832 24.3262C9.1309 24.5527 9.57817 24.6914 10.0469 24.6914H21.9454C22.4141 24.6914 22.8614 24.5508 23.2539 24.3262C24.0118 23.8965 24.5508 23.125 24.5625 22.2266C24.5684 22.1309 24.3028 20.0879 24.2657 19.9023Z" fill="#212029"/>
</svg>
