<svg width="216" height="228" viewBox="0 0 216 228" fill="none" xmlns="http://www.w3.org/2000/svg">
<g clip-path="url(#clip0_102_1760)">
<circle cx="87.0276" cy="132.108" r="66" transform="rotate(40.3577 87.0276 132.108)" fill="url(#paint0_linear_102_1760)"/>
<g filter="url(#filter0_d_102_1760)">
<path d="M56.8631 73.4265L52.6577 75.2115L59.5431 91.4324L63.7485 89.6473L56.8631 73.4265Z" fill="white"/>
<path d="M56.336 77.1952C59.3222 75.9277 60.7154 72.4793 59.4479 69.4932C58.1803 66.507 54.732 65.1138 51.7458 66.3813C48.7596 67.6489 47.3664 71.0972 48.634 74.0834C49.9015 77.0696 53.3499 78.4628 56.336 77.1952Z" fill="white"/>
</g>
<g filter="url(#filter1_d_102_1760)">
<path d="M122.095 73.4263L126.3 75.2114L119.415 91.4323L115.209 89.6472L122.095 73.4263Z" fill="white"/>
<path d="M122.622 77.1952C119.636 75.9276 118.242 72.4793 119.51 69.4931C120.777 66.5069 124.226 65.1137 127.212 66.3813C130.198 67.6488 131.591 71.0972 130.324 74.0833C129.056 77.0695 125.608 78.4627 122.622 77.1952Z" fill="white"/>
</g>
<g filter="url(#filter2_f_102_1760)">
<path d="M89.7404 200.491C124.164 200.491 152.069 172.586 152.069 138.163C152.069 103.74 124.164 75.8342 89.7404 75.8342C55.3173 75.8342 27.4119 103.74 27.4119 138.163C27.4119 172.586 55.3173 200.491 89.7404 200.491Z" fill="url(#paint1_linear_102_1760)" fill-opacity="0.6"/>
</g>
<mask id="mask0_102_1760" style="mask-type:alpha" maskUnits="userSpaceOnUse" x="17" y="81" width="145" height="114">
<path d="M89.7403 81.7081C113.666 81.7081 134.115 96.591 142.335 117.604L156.637 117.604C159.161 117.604 161.206 119.65 161.206 122.173C161.206 124.696 159.161 126.741 156.637 126.741L145.039 126.741C145.391 128.455 145.665 130.196 145.858 131.962L156.637 131.963C159.161 131.963 161.206 134.008 161.206 136.531C161.206 139.054 159.161 141.1 156.637 141.1L146.12 141.1C144.592 170.914 119.934 194.617 89.7403 194.617C59.5465 194.617 34.889 170.914 33.3608 141.1L22.1905 141.1C19.6674 141.1 17.6219 139.054 17.6219 136.531C17.6219 134.008 19.6674 131.963 22.1905 131.963L33.6223 131.962C33.8152 130.196 34.0896 128.455 34.4417 126.741L22.1905 126.741C19.6674 126.741 17.6219 124.696 17.6219 122.173C17.6219 119.65 19.6674 117.604 22.1905 117.604L37.146 117.604C45.366 96.591 65.8151 81.7081 89.7403 81.7081Z" fill="white"/>
</mask>
<g mask="url(#mask0_102_1760)">
<path d="M89.7403 81.7081C113.666 81.7081 134.115 96.591 142.335 117.604L156.637 117.604C159.161 117.604 161.206 119.65 161.206 122.173C161.206 124.696 159.161 126.741 156.637 126.741L145.039 126.741C145.391 128.455 145.665 130.196 145.858 131.962L156.637 131.963C159.161 131.963 161.206 134.008 161.206 136.531C161.206 139.054 159.161 141.1 156.637 141.1L146.12 141.1C144.592 170.914 119.934 194.617 89.7403 194.617C59.5465 194.617 34.889 170.914 33.3608 141.1L22.1905 141.1C19.6674 141.1 17.6219 139.054 17.6219 136.531C17.6219 134.008 19.6674 131.963 22.1905 131.963L33.6223 131.962C33.8152 130.196 34.0896 128.455 34.4417 126.741L22.1905 126.741C19.6674 126.741 17.6219 124.696 17.6219 122.173C17.6219 119.65 19.6674 117.604 22.1905 117.604L37.146 117.604C45.366 96.591 65.8151 81.7081 89.7403 81.7081Z" fill="url(#paint2_linear_102_1760)"/>
<path d="M91.372 238.998C114.801 238.998 133.795 220.005 133.795 196.575C133.795 173.146 114.801 154.153 91.372 154.153C67.9427 154.153 48.9495 173.146 48.9495 196.575C48.9495 220.005 67.9427 238.998 91.372 238.998Z" fill="#BBE4FC"/>
</g>
<path d="M89.0876 145.016C111.255 145.016 129.226 135.081 129.226 122.825C129.226 110.57 111.255 100.635 89.0876 100.635C66.9199 100.635 48.9493 110.57 48.9493 122.825C48.9493 135.081 66.9199 145.016 89.0876 145.016Z" fill="white"/>
<path d="M118.283 119.734L108.003 124.813L118.297 129.746" stroke="black" stroke-width="3.91593" stroke-linecap="round" stroke-linejoin="round"/>
<path d="M61.1973 119.734L71.4779 124.813L61.1835 129.746" stroke="black" stroke-width="3.91593" stroke-linecap="round" stroke-linejoin="round"/>
<path d="M165.877 138.09L154.216 134.081C153.345 133.782 152.882 132.834 153.181 131.963L161.327 108.266C161.626 107.396 162.574 106.933 163.445 107.232L175.105 111.24C175.523 111.383 175.867 111.687 176.061 112.085C176.255 112.482 176.283 112.94 176.14 113.358L167.995 137.054C167.851 137.473 167.547 137.817 167.15 138.011C166.753 138.205 166.295 138.233 165.877 138.09Z" fill="#D6BBF1"/>
<path d="M159.453 133.293C159.283 133.79 159.39 134.339 159.734 134.735C160.079 135.131 160.608 135.313 161.123 135.212C161.638 135.112 162.06 134.744 162.231 134.248C162.494 133.481 162.086 132.646 161.319 132.382C160.552 132.118 159.717 132.526 159.453 133.293Z" fill="white"/>
<path d="M168.639 111.088L166.787 110.451C166.531 110.363 166.395 110.085 166.483 109.829C166.571 109.573 166.85 109.437 167.105 109.525L168.957 110.162C169.122 110.219 169.245 110.359 169.278 110.531C169.312 110.703 169.251 110.879 169.119 110.994C168.987 111.109 168.804 111.144 168.639 111.088ZM170.49 111.724L170.027 111.565C169.772 111.477 169.636 111.199 169.724 110.943C169.812 110.687 170.09 110.551 170.346 110.639L170.809 110.798C170.974 110.855 171.096 110.996 171.13 111.167C171.163 111.339 171.103 111.516 170.971 111.63C170.839 111.745 170.656 111.781 170.49 111.724Z" fill="#424A60"/>
<path d="M178.047 122.728C177.859 122.664 177.729 122.493 177.716 122.296C177.704 122.098 177.813 121.912 177.991 121.826C180.315 120.691 181.282 117.876 180.147 115.552C180.07 115.395 180.083 115.209 180.181 115.064C180.279 114.919 180.446 114.837 180.621 114.849C180.795 114.861 180.95 114.965 181.027 115.122C182.399 117.932 181.23 121.333 178.42 122.705C178.304 122.763 178.169 122.771 178.047 122.728Z" fill="#7383BF"/>
<path d="M176.415 121.132C176.228 121.068 176.097 120.897 176.085 120.7C176.073 120.502 176.181 120.316 176.36 120.23C177.129 119.854 177.706 119.2 177.986 118.388C178.265 117.576 178.211 116.705 177.836 115.935C177.759 115.778 177.772 115.592 177.87 115.447C177.967 115.302 178.135 115.22 178.309 115.232C178.484 115.244 178.639 115.348 178.715 115.506C179.206 116.51 179.275 117.647 178.911 118.706C178.547 119.765 177.794 120.619 176.789 121.109C176.673 121.167 176.538 121.175 176.415 121.132ZM154.062 114.484C153.939 114.442 153.838 114.353 153.782 114.236C152.41 111.427 153.579 108.026 156.388 106.654C156.545 106.577 156.731 106.59 156.876 106.687C157.021 106.785 157.103 106.953 157.091 107.127C157.079 107.302 156.975 107.456 156.818 107.533C154.494 108.668 153.526 111.482 154.661 113.807C154.749 113.985 154.72 114.198 154.589 114.346C154.458 114.495 154.25 114.549 154.062 114.484Z" fill="#7383BF"/>
<path d="M156.374 114.101C156.251 114.059 156.15 113.97 156.093 113.853C155.602 112.849 155.533 111.712 155.897 110.653C156.261 109.593 157.015 108.74 158.019 108.249C158.176 108.173 158.362 108.186 158.507 108.283C158.653 108.381 158.734 108.549 158.722 108.723C158.71 108.898 158.606 109.052 158.449 109.129C157.68 109.504 157.102 110.159 156.823 110.971C156.544 111.783 156.597 112.654 156.973 113.424C157.06 113.601 157.031 113.814 156.9 113.963C156.769 114.111 156.561 114.166 156.374 114.101Z" fill="#7383BF"/>
<path d="M160.914 109.468L175.727 114.559L169.044 134.002L154.231 128.91L160.914 109.468Z" fill="#EBE3FC"/>
<path d="M173.901 103.383C173.885 103.398 173.878 103.421 173.883 103.442C173.888 103.463 173.905 103.48 173.926 103.486C175.233 103.908 175.671 105.483 174.582 106.351C174.399 106.485 174.191 106.581 173.971 106.634C172.189 106.983 170.901 105.737 170.076 104.501C169.963 104.331 169.941 104.116 170.017 103.927C170.035 103.417 170.16 102.916 170.384 102.457C170.497 102.225 170.633 102.005 170.791 101.802C170.95 101.597 171.13 101.409 171.329 101.244C171.601 101.022 171.903 100.839 172.226 100.702C172.918 100.341 173.768 100.522 174.253 101.133C174.548 101.632 174.589 102.241 174.364 102.775C174.238 102.998 174.082 103.203 173.901 103.383Z" fill="#E6A6B3"/>
</g>
<path d="M112.764 38.3202C112.41 38.436 112.023 38.3061 111.811 38.0009L101.073 22.1597C99.4655 26.6458 94.9711 39.2358 94.508 40.5217C96.0747 41.0786 122.72 50.5573 124.279 51.1132C124.752 49.7729 129.603 36.2028 131.019 32.2488L112.764 38.3202Z" fill="#FEFEFE"/>
<path d="M129.893 30.7936C124.707 28.9488 106.219 22.3916 102.376 21.0234C104.696 24.432 112.302 35.6202 112.867 36.4453C113.768 36.1457 125.508 32.2454 129.893 30.7936Z" fill="#FEFEFE"/>
<path d="M132.587 29.6549L101.295 18.532C101.071 18.4524 100.825 18.4652 100.611 18.5674C100.397 18.6697 100.233 18.853 100.156 19.0764L92.5006 40.4592C92.3429 40.925 92.5816 41.4383 93.0491 41.6016L124.338 52.7179C124.799 52.8828 125.313 52.6392 125.48 52.1738L133.128 30.7902C133.292 30.328 133.051 29.8203 132.587 29.6545" fill="#231916"/>
<path d="M94.5083 40.5176C94.9653 39.2325 99.4645 26.641 101.062 22.159L111.808 37.9972C112.018 38.3056 112.409 38.437 112.763 38.3187L131.019 32.2511C129.609 36.1968 124.759 49.773 124.278 51.1132C122.71 50.5648 96.0677 41.0777 94.5083 40.5173" fill="#7ECAF8"/>
<path d="M129.921 30.3922C125.534 31.8456 113.797 35.7432 112.887 36.0383C112.322 35.2192 104.723 24.0329 102.404 20.6168C106.249 21.9869 124.733 28.5514 129.921 30.3922Z" fill="#7ECAF8"/>
<path d="M113.925 32.8658C113.53 32.0901 112.696 30.9083 111.226 30.6442C110.118 30.4529 109.2 30.6135 108.505 31.1244C107.824 31.6237 107.41 32.4207 107.253 33.485C106.981 35.4003 108.117 38.0589 110.628 41.3844C110.777 41.5826 111.034 41.6787 111.277 41.6168C115.292 40.5718 117.812 39.203 118.776 37.5173C118.89 37.3164 118.989 37.1246 119.074 36.9295C119.362 36.211 119.423 35.5267 119.24 34.8894C119.007 34.0485 118.389 33.3548 117.395 32.8133C116.084 32.0928 114.708 32.5016 113.925 32.8658Z" fill="#231916"/>
<path d="M113.217 34.2234C113.395 34.2869 113.592 34.2603 113.748 34.1516C113.766 34.1382 115.257 33.143 116.483 33.818C117.142 34.1877 117.536 34.6123 117.674 35.0964C117.768 35.4439 117.729 35.8368 117.549 36.2722C117.488 36.4206 117.419 36.5653 117.342 36.7055C116.63 37.9558 114.461 39.1209 111.239 40.0104C109.26 37.2879 108.266 35.003 108.47 33.5659C108.51 33.2794 108.574 33.0257 108.66 32.8068C108.787 32.4909 108.969 32.2513 109.192 32.0834C109.586 31.7939 110.162 31.7104 110.894 31.8416C112.268 32.0855 112.834 33.8122 112.839 33.8269C112.897 34.0123 113.038 34.161 113.217 34.2234Z" fill="#E6A6B3"/>
<path d="M151.539 48.4695C151.565 48.6276 151.473 48.7777 151.327 48.8295L151.27 48.8442L146.586 49.6082L150.299 50.9665C153.629 52.4048 156.874 54.2967 160.032 56.6415C160.177 56.749 160.207 56.9534 160.1 57.0981C159.992 57.2428 159.788 57.273 159.643 57.1655C156.708 54.9863 153.7 53.2047 150.633 51.8263L150.057 51.5726L146.362 50.2208L149.448 53.8266C149.552 53.9483 149.551 54.1246 149.453 54.2445L149.412 54.2867C149.29 54.3908 149.114 54.3897 148.994 54.292L148.952 54.2509L145.057 49.6994L144.68 49.2586L145.252 49.1652L151.165 48.2001C151.343 48.171 151.51 48.2917 151.539 48.4695Z" fill="#C5C5C5"/>
<path d="M161.56 74.3391C161.529 74.4962 161.39 74.6042 161.235 74.6015L161.176 74.5951L156.523 73.6649L159.522 76.241C162.134 78.7577 164.507 81.6689 166.64 84.9739C166.738 85.1254 166.695 85.3274 166.543 85.4251C166.392 85.5228 166.19 85.4793 166.092 85.3279C164.11 82.2562 161.919 79.5314 159.532 77.1634L159.083 76.7235L156.098 74.1597L157.72 78.6197C157.775 78.7703 157.712 78.9349 157.578 79.0129L157.525 79.0379C157.374 79.0927 157.21 79.0297 157.132 78.8961L157.107 78.8428L155.059 73.213L154.861 72.6678L155.43 72.7814L161.304 73.9551C161.481 73.9904 161.596 74.1623 161.56 74.3391Z" fill="#C5C5C5"/>
<defs>
<filter id="filter0_d_102_1760" x="42.2916" y="60.039" width="27.3307" height="37.2673" filterUnits="userSpaceOnUse" color-interpolation-filters="sRGB">
<feFlood flood-opacity="0" result="BackgroundImageFix"/>
<feColorMatrix in="SourceAlpha" type="matrix" values="0 0 0 0 0 0 0 0 0 0 0 0 0 0 0 0 0 0 127 0" result="hardAlpha"/>
<feOffset/>
<feGaussianBlur stdDeviation="2.93695"/>
<feColorMatrix type="matrix" values="0 0 0 0 1 0 0 0 0 1 0 0 0 0 1 0 0 0 0.5 0"/>
<feBlend mode="normal" in2="BackgroundImageFix" result="effect1_dropShadow_102_1760"/>
<feBlend mode="normal" in="SourceGraphic" in2="effect1_dropShadow_102_1760" result="shape"/>
</filter>
<filter id="filter1_d_102_1760" x="109.335" y="60.0389" width="27.3308" height="37.2672" filterUnits="userSpaceOnUse" color-interpolation-filters="sRGB">
<feFlood flood-opacity="0" result="BackgroundImageFix"/>
<feColorMatrix in="SourceAlpha" type="matrix" values="0 0 0 0 0 0 0 0 0 0 0 0 0 0 0 0 0 0 127 0" result="hardAlpha"/>
<feOffset/>
<feGaussianBlur stdDeviation="2.93695"/>
<feColorMatrix type="matrix" values="0 0 0 0 1 0 0 0 0 1 0 0 0 0 1 0 0 0 0.5 0"/>
<feBlend mode="normal" in2="BackgroundImageFix" result="effect1_dropShadow_102_1760"/>
<feBlend mode="normal" in="SourceGraphic" in2="effect1_dropShadow_102_1760" result="shape"/>
</filter>
<filter id="filter2_f_102_1760" x="18.2747" y="66.697" width="142.931" height="142.931" filterUnits="userSpaceOnUse" color-interpolation-filters="sRGB">
<feFlood flood-opacity="0" result="BackgroundImageFix"/>
<feBlend mode="normal" in="SourceGraphic" in2="BackgroundImageFix" result="shape"/>
<feGaussianBlur stdDeviation="4.56859" result="effect1_foregroundBlur_102_1760"/>
</filter>
<linearGradient id="paint0_linear_102_1760" x1="28.5276" y1="70.608" x2="122.028" y2="180.608" gradientUnits="userSpaceOnUse">
<stop stop-color="#AFD9FF" stop-opacity="0.4"/>
<stop offset="1" stop-color="#8FC9FF" stop-opacity="0"/>
</linearGradient>
<linearGradient id="paint1_linear_102_1760" x1="89.7404" y1="75.8342" x2="89.7404" y2="200.491" gradientUnits="userSpaceOnUse">
<stop stop-color="#86D3F8"/>
<stop offset="1" stop-color="#4D92F7"/>
</linearGradient>
<linearGradient id="paint2_linear_102_1760" x1="89.414" y1="81.7081" x2="89.414" y2="194.617" gradientUnits="userSpaceOnUse">
<stop stop-color="#86D3F8"/>
<stop offset="1" stop-color="#4D92F7"/>
</linearGradient>
<clipPath id="clip0_102_1760">
<rect width="179.48" height="221.903" fill="white" transform="translate(0 6)"/>
</clipPath>
</defs>
</svg>
