<svg width="174" height="202" viewBox="0 0 174 202" fill="none" xmlns="http://www.w3.org/2000/svg">
<ellipse cx="85.6465" cy="120.403" rx="60.6688" ry="60.6688" transform="rotate(-22.0107 85.6465 120.403)" fill="url(#paint0_linear_58_12989)"/>
<g filter="url(#filter0_f_58_12989)">
<path d="M79.6694 185.387C112.705 188.845 142.288 164.868 145.746 131.833C149.204 98.7973 125.227 69.2138 92.1918 65.7558C59.1566 62.2979 29.5731 86.2749 26.1151 119.31C22.6572 152.345 46.6342 181.929 79.6694 185.387Z" fill="url(#paint1_linear_58_12989)" fill-opacity="0.5"/>
</g>
<g filter="url(#filter1_d_58_12989)">
<path d="M59.3921 64.4872L55.0403 65.8197L60.18 82.6055L64.5319 81.273L59.3921 64.4872Z" fill="white"/>
<path d="M58.479 68.1667C61.5691 67.2205 63.3072 63.9484 62.361 60.8582C61.4148 57.7681 58.1427 56.03 55.0525 56.9762C51.9623 57.9224 50.2243 61.1945 51.1705 64.2847C52.1167 67.3749 55.3888 69.1129 58.479 68.1667Z" fill="white"/>
</g>
<g filter="url(#filter2_d_58_12989)">
<path d="M124.024 71.2524L128.005 73.4573L119.501 88.8149L115.519 86.6101L124.024 71.2524Z" fill="white"/>
<path d="M124.155 75.0414C121.328 73.4758 120.305 69.9147 121.871 67.0874C123.437 64.2601 126.998 63.2374 129.825 64.803C132.652 66.3686 133.675 69.9297 132.109 72.757C130.544 75.5842 126.983 76.607 124.155 75.0414Z" fill="white"/>
</g>
<mask id="mask0_58_12989" style="mask-type:alpha" maskUnits="userSpaceOnUse" x="14" y="69" width="145" height="113">
<path d="M91.7854 69.6358C115.491 72.1171 134.208 88.984 140.173 110.656L154.345 112.14C156.844 112.402 158.659 114.64 158.397 117.14C158.136 119.64 155.897 121.455 153.397 121.193L141.905 119.99C142.076 121.724 142.167 123.478 142.175 125.248L152.855 126.366C155.355 126.628 157.17 128.867 156.908 131.367C156.646 133.867 154.408 135.681 151.908 135.419L141.487 134.329C136.881 163.71 109.991 184.638 80.0752 181.507C50.159 178.375 28.1865 152.333 29.7645 122.634L18.697 121.476C16.197 121.214 14.3826 118.975 14.6442 116.475C14.9059 113.975 17.1447 112.161 19.6446 112.422L30.9712 113.608C31.3456 111.878 31.7981 110.181 32.3246 108.52L20.1861 107.249C17.6862 106.987 15.8717 104.749 16.1334 102.249C16.3951 99.7488 18.6338 97.9343 21.1338 98.196L35.9517 99.7467C46.2755 79.7796 68.0801 67.1544 91.7854 69.6358Z" fill="white"/>
</mask>
<g mask="url(#mask0_58_12989)">
<path d="M91.7854 69.6358C115.491 72.1171 134.208 88.984 140.173 110.656L154.345 112.14C156.844 112.402 158.659 114.64 158.397 117.14C158.136 119.64 155.897 121.455 153.397 121.193L141.905 119.99C142.076 121.724 142.167 123.478 142.175 125.248L152.855 126.366C155.355 126.628 157.17 128.867 156.908 131.367C156.646 133.867 154.408 135.681 151.908 135.419L141.487 134.329C136.881 163.71 109.991 184.638 80.0752 181.507C50.159 178.375 28.1865 152.333 29.7645 122.634L18.697 121.476C16.197 121.214 14.3826 118.975 14.6442 116.475C14.9059 113.975 17.1447 112.161 19.6446 112.422L30.9712 113.608C31.3456 111.878 31.7981 110.181 32.3246 108.52L20.1861 107.249C17.6862 106.987 15.8717 104.749 16.1334 102.249C16.3951 99.7488 18.6338 97.9343 21.1338 98.196L35.9517 99.7467C46.2755 79.7796 68.0801 67.1544 91.7854 69.6358Z" fill="url(#paint2_linear_58_12989)"/>
<path d="M77.0893 225.649C100.303 228.079 121.092 211.23 123.522 188.016C125.951 164.802 109.103 144.014 85.8888 141.584C62.6749 139.154 41.8864 156.002 39.4565 179.216C37.0266 202.43 53.8753 223.219 77.0893 225.649Z" fill="#F7CBCA"/>
</g>
<path d="M84.5733 132.293C106.537 134.593 125.373 126.613 126.644 114.47C127.915 102.327 111.14 90.6201 89.1761 88.321C67.2122 86.0219 48.3765 94.0017 47.1055 106.144C45.8344 118.287 62.6093 129.994 84.5733 132.293Z" fill="white"/>
<path d="M116.122 110.273L105.409 114.238L115.097 120.193" stroke="black" stroke-width="4.24393" stroke-linecap="round" stroke-linejoin="round"/>
<path d="M59.5607 104.352L69.22 110.45L58.5086 114.27" stroke="black" stroke-width="4.24393" stroke-linecap="round" stroke-linejoin="round"/>
<path d="M103.376 23.2985C105.828 23.2907 108.298 23.4165 110.757 23.6745C112.919 23.9917 115.065 24.3785 117.186 24.8336C118.281 25.0718 119.373 25.3312 120.478 25.6046C131.21 27.6064 141.079 34.1828 139.542 41.3904C139.371 42.2238 139.06 43.0346 138.614 43.8092C138.28 47.45 133.283 50.3382 127.573 51.5912C126.579 51.7633 125.567 51.9022 124.541 52.0073C123.504 52.1162 122.448 52.2146 121.392 52.2575C120.139 52.2415 118.931 52.179 117.793 52.094C115.225 51.9004 112.667 51.5626 110.148 51.0848C109.452 50.9519 108.728 51.0077 108.155 51.2387L102.777 53.3835C102.47 53.5061 102.067 53.5047 101.724 53.38C101.381 53.2553 101.155 53.0271 101.133 52.785L100.683 49.3479C100.623 48.7213 99.968 48.145 99.0342 47.896C98.4825 47.753 97.8143 47.5637 97.0712 47.3153C95.9435 46.944 94.86 46.5124 93.8334 46.0255C86.5208 42.032 85.8994 35.1443 89.2616 29.8974C89.7385 29.2476 90.2839 28.6224 90.8943 28.0258C91.5032 27.429 92.1777 26.8629 92.9133 26.331C93.5844 25.9396 94.2981 25.5785 95.0502 25.2498C96.5378 24.5889 98.1611 24.0517 99.8857 23.6495C101.022 23.4682 102.19 23.3508 103.376 23.2985Z" fill="black" stroke="#979797" stroke-width="0.922737"/>
<path d="M146.889 28.9657C146.881 28.9931 146.888 29.0229 146.908 29.0435C146.928 29.064 146.957 29.0722 146.985 29.0647C148.729 28.684 150.25 30.167 149.595 31.8536C149.477 32.1238 149.306 32.3678 149.093 32.5713C147.319 34.1281 145.059 33.5713 143.323 32.7217C143.086 32.6042 142.921 32.3777 142.883 32.1156C142.569 31.531 142.382 30.8865 142.334 30.2245C142.309 29.8904 142.319 29.5546 142.363 29.2224C142.407 28.8886 142.487 28.5606 142.601 28.2442C142.762 27.8171 142.982 27.4147 143.255 27.049C143.796 26.1913 144.87 25.8385 145.814 26.2085C146.471 26.576 146.916 27.2333 147.012 27.9804C147.017 28.3129 146.975 28.6444 146.889 28.9657Z" fill="#E6A6B3"/>
<path d="M101.355 39.2167C101.413 39.4827 101.378 39.7077 101.247 39.892C101.13 40.0653 100.975 40.1852 100.782 40.2516C100.591 40.3058 100.381 40.3024 100.153 40.2414C99.9375 40.1694 99.7662 40.0339 99.6385 39.835C99.478 39.5955 99.3752 39.3373 99.3299 39.0605C99.2847 38.7836 99.2713 38.4977 99.2898 38.2027C99.3083 37.9077 99.3452 37.6147 99.4004 37.3236C99.4679 37.0338 99.5279 36.7555 99.5806 36.4889C99.7405 35.7882 99.9591 35.1183 100.236 34.4793C100.513 33.8403 100.867 33.2403 101.297 32.6791C101.371 32.5632 101.465 32.4926 101.579 32.4674C101.693 32.4422 101.81 32.4483 101.929 32.4856C102.195 32.5504 102.353 32.6969 102.403 32.9248C102.467 33.1418 102.427 33.3479 102.283 33.5431C102.238 33.6127 102.177 33.662 102.1 33.691C102.006 34.0027 101.912 34.3083 101.819 34.6078C101.738 34.9086 101.662 35.2162 101.592 35.5305L102.217 35.7629C102.566 35.8612 102.938 35.9125 103.333 35.9168C103.741 35.9224 104.123 35.8758 104.48 35.777C104.519 35.7564 104.557 35.748 104.593 35.7519C104.63 35.7557 104.668 35.7534 104.706 35.745C104.821 35.3489 104.972 34.975 105.157 34.6233C105.342 34.2716 105.566 33.9672 105.828 33.7101L105.826 33.7284C105.933 33.653 106.053 33.6285 106.186 33.6548C106.319 33.6811 106.395 33.7819 106.414 33.957C106.471 34.3588 106.454 34.7591 106.363 35.1577C106.284 35.5577 106.236 35.9547 106.22 36.3488C106.195 36.8164 106.202 37.281 106.241 37.7427C106.28 38.1922 106.363 38.6462 106.488 39.1046C106.568 39.3976 106.531 39.6349 106.376 39.8166C106.233 39.9995 106.048 40.1162 105.82 40.1666C105.592 40.2169 105.36 40.1926 105.122 40.0936C104.898 39.9958 104.745 39.8005 104.664 39.5075C104.582 39.2268 104.521 38.9296 104.479 38.616C104.451 38.2915 104.436 37.9621 104.434 37.6279C104.058 37.6751 103.676 37.6599 103.289 37.5822C102.914 37.4935 102.557 37.3633 102.216 37.1916C102.076 37.115 101.93 37.0317 101.778 36.9416C101.627 36.8516 101.478 36.7431 101.33 36.6164C101.276 36.8952 101.221 37.1802 101.166 37.4713C101.125 37.7515 101.114 38.0287 101.135 38.3031C101.134 38.3153 101.132 38.3275 101.131 38.3398C101.143 38.341 101.149 38.3478 101.147 38.36C101.169 38.5107 101.197 38.6559 101.232 38.7956C101.279 38.9366 101.32 39.077 101.355 39.2167ZM113.709 39.5821C113.417 40.0092 113.032 40.3772 112.554 40.6859C112.077 40.9947 111.566 41.2072 111.022 41.3234C110.491 41.4287 109.954 41.4219 109.409 41.3031C108.879 41.1733 108.413 40.8957 108.012 40.4703C107.614 40.0203 107.363 39.524 107.259 38.9812C107.168 38.4274 107.199 37.8926 107.352 37.3767C107.507 36.8485 107.761 36.3679 108.116 35.935C108.484 35.4911 108.921 35.1595 109.426 34.9403C109.685 34.8313 109.989 34.758 110.34 34.7204C110.69 34.6829 111.042 34.6888 111.395 34.7382C111.761 34.7888 112.104 34.8804 112.424 35.0129C112.758 35.1344 113.025 35.3046 113.224 35.5234C113.436 35.7435 113.557 36.0097 113.586 36.3221C113.629 36.6234 113.543 36.9731 113.328 37.3712C113.102 37.7558 112.779 38.0622 112.36 38.2904C111.941 38.5064 111.494 38.639 111.019 38.6882C110.557 38.7265 110.099 38.6723 109.644 38.5258C109.202 38.3805 108.838 38.1321 108.553 37.7807C108.471 38.0937 108.453 38.3887 108.498 38.6656C108.555 38.9437 108.666 39.1903 108.829 39.4053C109.004 39.6216 109.221 39.7927 109.48 39.9188C109.752 40.0339 110.056 40.0843 110.392 40.0699C110.89 40.0355 111.391 39.9209 111.894 39.7261C112.398 39.5191 112.861 39.2893 113.283 39.0366C113.363 38.9831 113.439 38.9663 113.511 38.9862C113.584 39.0062 113.641 39.0493 113.683 39.1156C113.726 39.1819 113.749 39.2585 113.752 39.3454C113.768 39.4336 113.753 39.5125 113.709 39.5821ZM110.339 35.9636C110.021 36.054 109.72 36.2081 109.437 36.4259C109.156 36.6315 108.938 36.8808 108.784 37.1739C109.295 37.4873 109.849 37.6318 110.446 37.6077C110.583 37.5973 110.771 37.5675 111.012 37.5185C111.253 37.4571 111.478 37.3755 111.687 37.2737C111.897 37.1596 112.059 37.0281 112.173 36.8793C112.289 36.7182 112.291 36.5266 112.178 36.3045C112.105 36.1732 111.991 36.0809 111.836 36.0275C111.682 35.9619 111.513 35.9195 111.329 35.9003C111.146 35.8811 110.96 35.8802 110.773 35.8977C110.598 35.9165 110.453 35.9385 110.339 35.9636ZM116.107 40.9094C116.087 41.2166 115.971 41.4395 115.759 41.578C115.559 41.7179 115.342 41.7818 115.108 41.7697C114.874 41.7576 114.66 41.6733 114.466 41.517C114.286 41.3496 114.206 41.1124 114.225 40.8052C114.27 40.1419 114.35 39.4946 114.466 38.8635C114.595 38.2213 114.725 37.5731 114.855 36.9188C114.921 36.6412 114.981 36.3629 115.035 36.0841C115.103 35.7942 115.175 35.5112 115.254 35.2348C115.332 34.9585 115.428 34.6964 115.54 34.4484C115.654 34.1882 115.803 33.944 115.988 33.7159C116.031 33.6586 116.096 33.6344 116.181 33.6434C116.267 33.6523 116.318 33.6948 116.335 33.7708C116.477 34.3052 116.518 34.86 116.458 35.4351C116.397 36.0102 116.338 36.573 116.281 37.1237C116.239 37.7625 116.209 38.3965 116.193 39.0257C116.177 39.6549 116.148 40.2828 116.107 40.9094ZM118.832 41.1946C118.812 41.5018 118.696 41.7247 118.483 41.8632C118.283 42.0031 118.066 42.067 117.832 42.0549C117.599 42.0428 117.385 41.9585 117.191 41.8022C117.01 41.6348 116.93 41.3976 116.95 41.0904C116.995 40.4271 117.075 39.7798 117.19 39.1487C117.319 38.5065 117.449 37.8583 117.579 37.2039C117.646 36.9263 117.706 36.6481 117.76 36.3692C117.827 36.0794 117.9 35.7963 117.978 35.52C118.057 35.2437 118.152 34.9816 118.265 34.7336C118.379 34.4733 118.528 34.2292 118.713 34.0011C118.756 33.9438 118.82 33.9196 118.906 33.9285C118.991 33.9375 119.043 33.98 119.059 34.056C119.201 34.5904 119.242 35.1451 119.182 35.7203C119.122 36.2954 119.063 36.8582 119.005 37.4089C118.963 38.0477 118.934 38.6817 118.918 39.3109C118.901 39.9401 118.873 40.568 118.832 41.1946ZM124.755 41.9445C124.343 42.2107 123.871 42.4086 123.338 42.5384C122.818 42.6572 122.315 42.6787 121.828 42.603C121.341 42.5273 120.909 42.3399 120.533 42.0406C120.156 41.7414 119.906 41.2946 119.782 40.7003C119.662 40.1929 119.654 39.6787 119.758 39.1577C119.874 38.6379 120.067 38.1571 120.336 37.7151C120.427 37.5515 120.543 37.3905 120.683 37.232C120.878 36.7946 121.17 36.485 121.56 36.3032C121.95 36.1213 122.373 36.0358 122.83 36.0464C123.288 36.0449 123.744 36.1235 124.197 36.2823C124.664 36.4301 125.064 36.6267 125.397 36.8718C125.868 37.218 126.184 37.6283 126.344 38.1029C126.505 38.5774 126.541 39.0574 126.453 39.5431C126.366 40.0287 126.169 40.4844 125.865 40.9102C125.573 41.3374 125.203 41.6821 124.755 41.9445ZM122.782 37.7485C122.556 37.7744 122.369 37.8537 122.219 37.9865C122.082 38.1082 121.938 38.2477 121.785 38.405C121.672 38.5416 121.523 38.6064 121.338 38.5994C121.278 38.8158 121.236 39.0402 121.212 39.2727C121.188 39.5052 121.195 39.7348 121.233 39.9615C121.274 40.2751 121.373 40.5081 121.531 40.6606C121.701 40.8022 121.896 40.8907 122.115 40.9259C122.346 40.9625 122.589 40.9508 122.843 40.8907C123.108 40.832 123.352 40.7462 123.575 40.6334C123.821 40.5231 124.042 40.3668 124.236 40.1645C124.443 39.9635 124.589 39.7499 124.674 39.5238C124.761 39.2855 124.774 39.0456 124.712 38.8041C124.663 38.564 124.501 38.3429 124.225 38.1408C124.029 38.0089 123.798 37.9044 123.534 37.8273C123.27 37.7501 123.019 37.7239 122.782 37.7485Z" fill="white"/>
<path d="M134.211 24.4837C134.916 24.9625 135.162 26.6386 135.745 26.1239C136.594 25.1383 135.369 23.6071 134.657 23.2809C134.401 23.3318 134.189 23.5109 134.095 23.7549C134.002 23.999 134.041 24.2737 134.198 24.4824L134.211 24.4837ZM135.561 22.3778C136.244 22.9042 136.813 23.5627 137.235 24.3141C137.337 24.4403 137.503 24.4969 137.661 24.4599C137.819 24.4229 137.942 24.2988 137.978 24.1403C138.012 23.1115 137.506 22.1397 136.643 21.5785C136.401 21.4191 136.087 21.42 135.846 21.5808C135.605 21.7416 135.484 22.0311 135.538 22.3157C135.545 22.3402 135.554 22.364 135.565 22.3867L135.561 22.3778Z" fill="#979797"/>
<path d="M41.7607 25.9863C41.6105 26.3039 41.2667 26.4826 40.9201 26.4235L23.1769 23.3527C25.1728 27.3574 30.7825 38.6173 31.3595 39.768C32.7546 39.0707 56.5487 27.2419 57.9441 26.5446C57.3455 25.3512 51.3015 13.2153 49.5413 9.68676L41.7607 25.9863Z" fill="#FEFEFE"/>
<path d="M48.0479 9.1778C43.3717 11.5145 26.7053 19.8504 23.2418 21.584C29.0757 22.6108 34.909 23.6406 40.7419 24.6733C41.1311 23.8396 46.1667 13.1633 48.0479 9.1778Z" fill="#FEFEFE"/>
<path d="M49.0925 6.66311L20.957 20.7312C20.7553 20.8298 20.6018 21.006 20.5312 21.2201C20.4605 21.4341 20.4786 21.6681 20.5814 21.869L30.2131 41.3218C30.4285 41.738 30.9341 41.9062 31.3525 41.7009L59.4854 27.6391C59.9012 27.4345 60.0734 26.9125 59.8663 26.4885L50.2202 7.0441C50.1227 6.84118 49.948 6.68629 49.7356 6.61456C49.5233 6.54283 49.2914 6.56033 49.0925 6.66311Z" fill="#231916"/>
<path d="M31.3629 39.767C30.7869 38.6216 25.1817 27.3643 23.1776 23.3563L40.9222 26.4276C41.2726 26.4829 41.6164 26.3028 41.7651 25.9915L49.5436 9.68632C51.3031 13.2215 57.3461 25.3528 57.9452 26.5505C56.5513 27.2436 32.7573 39.078 31.3624 39.7674" fill="#F7CECC"/>
<path d="M48.0479 9.1778C46.1692 13.1647 41.1347 23.8489 40.7477 24.6722C39.8083 24.5077 27.1155 22.2717 23.2433 21.5918C26.707 19.8597 43.3723 11.516 48.0479 9.1778Z" fill="#F7CECC"/>
<path d="M44.2127 23.2293C44.2127 23.2293 44.3683 23.2686 44.2127 23.2293V23.2293ZM36.7965 18.6441C36.2297 19.0864 35.8726 19.7249 35.7756 20.4428C35.7159 20.9851 35.8094 21.5305 36.0445 21.9966C36.0787 22.0786 36.1457 22.1484 36.1942 22.222C35.8149 22.3116 35.4597 22.4599 35.1447 22.7088C34.5792 23.1413 34.2138 23.7903 34.1332 24.5053C34.0615 25.0356 34.1502 25.5763 34.3876 26.0561C34.4698 26.2176 34.5578 26.3699 34.6711 26.5114C35.1077 27.0826 35.7476 27.4578 36.4525 27.556C36.7251 27.5866 37.0005 27.5765 37.2698 27.526C37.2676 27.5556 37.2525 27.578 37.2516 27.6058C37.1869 28.1362 37.2774 28.6751 37.5119 29.1555C37.9035 29.9453 38.6549 30.5278 39.577 30.6469C41.0391 30.8446 42.3858 29.8011 42.5731 28.3117C42.5712 28.2706 42.5583 28.2319 42.5637 28.1978C42.8149 28.3238 43.0703 28.4313 43.359 28.4658C44.0672 28.5658 44.7692 28.3731 45.3342 27.9295C45.8944 27.4923 46.2522 26.8476 46.3471 26.1301C46.4098 25.5984 46.3193 25.0589 46.0865 24.5766C45.7993 23.9984 45.318 23.5423 44.7298 23.2908C45.0712 22.8925 45.308 22.4096 45.3749 21.8637C45.4376 21.334 45.3481 20.7964 45.1171 20.3155C44.7214 19.5242 43.9713 18.9379 43.0505 18.8162C42.2076 18.7078 41.4082 19.0326 40.8404 19.6064L40.8379 19.593C40.4437 18.8114 39.6836 18.2228 38.7702 18.0998C38.0656 18.0055 37.3546 18.2016 36.7965 18.6441Z" fill="#231916"/>
<path d="M37.8137 22.9067C37.8949 22.7003 37.8229 22.4631 37.6409 22.3379C37.0827 21.9934 36.7739 21.3474 36.8531 20.69C36.9098 20.249 37.1334 19.8492 37.4763 19.5759C37.8215 19.3041 38.2594 19.1839 38.6939 19.2419C39.5092 19.3508 40.1378 20.0674 40.1371 20.9065C40.1414 21.138 40.3048 21.3342 40.5328 21.3749C40.7555 21.4084 40.9694 21.2772 41.0438 21.0614C41.2911 20.3037 42.0311 19.834 42.8102 19.9404C43.7141 20.0584 44.3546 20.911 44.2424 21.8277C44.1715 22.4117 43.8038 22.9123 43.2747 23.1454C43.0869 23.2354 42.9965 23.4454 43.0366 23.6622C43.0769 23.8793 43.2734 24.0339 43.4847 24.0499L43.7479 24.0624C44.2945 24.1387 44.7712 24.4841 45.0224 24.9859C45.1681 25.2838 45.2229 25.6187 45.1797 25.9473C45.1217 26.3955 44.9074 26.7899 44.5563 27.0617C44.2058 27.3374 43.7808 27.4494 43.3407 27.3951C42.8975 27.3335 42.4959 27.0927 42.2267 26.7271C42.0855 26.5381 41.8286 26.4858 41.6291 26.6055C41.4221 26.7168 41.3419 26.9717 41.4307 27.1898C41.547 27.4626 41.5885 27.762 41.5507 28.0559C41.4382 28.9689 40.6077 29.6212 39.7099 29.494C39.2764 29.4355 38.8822 29.2037 38.6146 28.8497C38.3469 28.4958 38.2278 28.0488 38.2835 27.6075C38.3157 27.3185 38.4234 27.0442 38.5954 26.8131C38.7398 26.6131 38.7188 26.353 38.5542 26.1848C38.3906 26.0183 38.1255 26.0042 37.9402 26.1508C37.5901 26.4383 37.1505 26.5552 36.7046 26.5017C36.2725 26.4387 35.8801 26.2071 35.6105 25.8559C35.3413 25.5017 35.2214 25.0537 35.2774 24.6115C35.3283 24.171 35.5512 23.7713 35.8959 23.5025C36.2391 23.2284 36.6772 23.1075 37.1113 23.1669L37.2897 23.2029C37.5077 23.2451 37.7393 23.1196 37.8137 22.9067Z" fill="#FFF696"/>
<path d="M38.3054 23.8768C38.2556 24.2918 38.3188 24.7148 38.5067 25.0857C38.5724 25.2121 38.6475 25.3267 38.7344 25.4435C39.079 25.8885 39.5859 26.1788 40.1442 26.2511C40.7064 26.3258 41.2544 26.1704 41.7072 25.8194C42.1544 25.4779 42.4471 24.9726 42.5205 24.415C42.5896 23.8571 42.4369 23.2944 42.0953 22.8479C41.7492 22.4011 41.24 22.1096 40.6793 22.0374C39.5227 21.8901 38.4542 22.7168 38.3057 23.8768" fill="#231916"/>
<path d="M40.4904 25.4483C40.1865 25.4104 39.9104 25.2523 39.7237 25.0095C39.5331 24.7661 39.4478 24.4565 39.4868 24.1498C39.5716 23.5218 40.1584 23.0684 40.7869 23.1492C41.0916 23.189 41.3684 23.347 41.5578 23.5891C41.7431 23.8341 41.8247 24.1422 41.7849 24.4469C41.7489 24.7511 41.5904 25.0274 41.3461 25.2121C41.1049 25.404 40.7959 25.4892 40.4904 25.448" fill="#FFF696"/>
<defs>
<filter id="filter0_f_58_12989" x="13.0517" y="52.6924" width="145.758" height="145.758" filterUnits="userSpaceOnUse" color-interpolation-filters="sRGB">
<feFlood flood-opacity="0" result="BackgroundImageFix"/>
<feBlend mode="normal" in="SourceGraphic" in2="BackgroundImageFix" result="shape"/>
<feGaussianBlur stdDeviation="6.36589" result="effect1_foregroundBlur_58_12989"/>
</filter>
<filter id="filter1_d_58_12989" x="44.5466" y="50.3524" width="26.3511" height="38.6191" filterUnits="userSpaceOnUse" color-interpolation-filters="sRGB">
<feFlood flood-opacity="0" result="BackgroundImageFix"/>
<feColorMatrix in="SourceAlpha" type="matrix" values="0 0 0 0 0 0 0 0 0 0 0 0 0 0 0 0 0 0 127 0" result="hardAlpha"/>
<feOffset/>
<feGaussianBlur stdDeviation="3.18295"/>
<feColorMatrix type="matrix" values="0 0 0 0 1 0 0 0 0 1 0 0 0 0 1 0 0 0 0.5 0"/>
<feBlend mode="normal" in2="BackgroundImageFix" result="effect1_dropShadow_58_12989"/>
<feBlend mode="normal" in="SourceGraphic" in2="effect1_dropShadow_58_12989" result="shape"/>
</filter>
<filter id="filter2_d_58_12989" x="109.153" y="57.7035" width="30.0555" height="37.4773" filterUnits="userSpaceOnUse" color-interpolation-filters="sRGB">
<feFlood flood-opacity="0" result="BackgroundImageFix"/>
<feColorMatrix in="SourceAlpha" type="matrix" values="0 0 0 0 0 0 0 0 0 0 0 0 0 0 0 0 0 0 127 0" result="hardAlpha"/>
<feOffset/>
<feGaussianBlur stdDeviation="3.18295"/>
<feColorMatrix type="matrix" values="0 0 0 0 1 0 0 0 0 1 0 0 0 0 1 0 0 0 0.5 0"/>
<feBlend mode="normal" in2="BackgroundImageFix" result="effect1_dropShadow_58_12989"/>
<feBlend mode="normal" in="SourceGraphic" in2="effect1_dropShadow_58_12989" result="shape"/>
</filter>
<linearGradient id="paint0_linear_58_12989" x1="138.042" y1="56.5173" x2="79.2119" y2="134.651" gradientUnits="userSpaceOnUse">
<stop stop-color="#FFE1DF" stop-opacity="0.42"/>
<stop offset="1" stop-color="#F5ACB3" stop-opacity="0"/>
</linearGradient>
<linearGradient id="paint1_linear_58_12989" x1="92.1918" y1="65.7558" x2="79.6694" y2="185.387" gradientUnits="userSpaceOnUse">
<stop stop-color="#F8D5D1"/>
<stop offset="1" stop-color="#F296A2"/>
</linearGradient>
<linearGradient id="paint2_linear_58_12989" x1="91.462" y1="69.6019" x2="79.7519" y2="181.473" gradientUnits="userSpaceOnUse">
<stop stop-color="#F8D5D1"/>
<stop offset="1" stop-color="#F296A2"/>
</linearGradient>
</defs>
</svg>
