<svg width="470" height="100" viewBox="0 0 470 100" fill="none" xmlns="http://www.w3.org/2000/svg">
<path d="M57.5505 39.6875C57.6078 39.6875 57.6639 39.6934 57.7186 39.7027C58.0425 39.7225 58.3505 39.8993 58.525 40.2014L86.7504 89.1069C87.0268 89.5858 86.8631 90.1984 86.3844 90.4749L70.1245 99.8656C69.6458 100.142 69.0335 99.9782 68.7571 99.4993L52.2817 70.9529L35.8088 99.4954C35.5323 99.9743 34.9201 100.139 34.4413 99.8621L18.1815 90.471C17.7029 90.1945 17.5391 89.5823 17.8154 89.1034L33.8524 61.3168H1.00088C0.448119 61.3168 1.68263e-05 60.8685 0 60.3155V40.6889C3.65126e-05 40.1359 0.448131 39.6875 1.00088 39.6875H57.5505Z" fill="#6A60FF"/>
<path d="M34.9692 0.134213C35.4479 -0.142187 36.0602 0.0220317 36.3366 0.50092L52.812 29.0468L69.2864 0.501409C69.5628 0.0224916 70.1751 -0.141787 70.6538 0.134702L86.9137 9.52582C87.392 9.8024 87.5559 10.4146 87.2797 10.8934L70.8253 39.4041H104.093C104.646 39.4042 105.094 39.8525 105.094 40.4055V59.1872C105.094 59.7401 104.646 60.1884 104.093 60.1886H74.5117L60.8302 36.4832C60.786 36.4065 60.7365 36.3341 60.6841 36.2656C60.3215 35.7539 59.7255 35.4193 59.0508 35.4192H32.4983L18.3433 10.8929C18.0669 10.4141 18.2308 9.80189 18.7093 9.52533L34.9692 0.134213Z" fill="#111111"/>
<path d="M447.225 78.9394V15.4956H459.376V78.9394H447.225ZM436.744 44.8059V34.1392H469.857V44.8059H436.744Z" fill="#111111"/>
<path d="M421.342 78.9393V34.1391H433.585V78.9393H421.342ZM427.463 26.9043C425.485 26.9043 423.846 26.255 422.547 24.9565C421.249 23.5961 420.6 21.9265 420.6 19.9478C420.6 18.0308 421.249 16.3922 422.547 15.0318C423.846 13.6714 425.485 12.9912 427.463 12.9912C429.504 12.9912 431.143 13.6714 432.379 15.0318C433.678 16.3922 434.327 18.0308 434.327 19.9478C434.327 21.9265 433.678 23.5961 432.379 24.9565C431.143 26.255 429.504 26.9043 427.463 26.9043Z" fill="#111111"/>
<path d="M377.111 78.9392V68.6435H394.085C397.115 68.6435 399.465 67.716 401.135 65.8609C402.866 64.0058 403.732 61.8107 403.732 59.2754C403.732 57.544 403.361 55.9672 402.619 54.5449C401.877 53.1227 400.764 52.0097 399.28 51.2058C397.857 50.3401 396.126 49.9072 394.085 49.9072H377.111V39.7043H392.694C395.291 39.7043 397.363 39.055 398.909 37.7564C400.516 36.4579 401.32 34.5101 401.32 31.9129C401.32 29.254 400.516 27.2752 398.909 25.9767C397.363 24.6781 395.291 24.0288 392.694 24.0288H377.111V13.7332H394.178C398.507 13.7332 402.124 14.537 405.03 16.1448C407.998 17.6907 410.225 19.7622 411.709 22.3593C413.193 24.8946 413.935 27.6772 413.935 30.7071C413.935 34.4173 412.791 37.6328 410.503 40.3536C408.277 43.0125 404.999 44.9913 400.671 46.2898L401.227 42.2086C406.051 43.569 409.761 45.826 412.358 48.9797C415.017 52.0715 416.346 55.8126 416.346 60.2029C416.346 63.6657 415.481 66.8194 413.749 69.6638C412.08 72.4465 409.606 74.7035 406.329 76.4349C403.113 78.1044 399.187 78.9392 394.549 78.9392H377.111ZM367.836 78.9392V13.7332H380.358V78.9392H367.836Z" fill="#111111"/>
<path d="M349.812 78.9393L332.467 55.8436L349.72 34.1391H363.725L343.505 58.6262L343.969 52.6899L364.653 78.9393H349.812ZM321.244 78.9393V11.8782H333.395V78.9393H321.244Z" fill="#111111"/>
<path d="M286.367 78.9394V34.1392H298.518V78.9394H286.367ZM298.518 54.1741L293.788 51.0204C294.344 45.517 295.952 41.1885 298.611 38.0349C301.27 34.8194 305.104 33.2117 310.112 33.2117C312.276 33.2117 314.224 33.5827 315.956 34.3247C317.687 35.0049 319.264 36.1489 320.686 37.7566L313.08 46.4755C312.4 45.7335 311.565 45.1769 310.576 44.8059C309.648 44.4349 308.566 44.2494 307.33 44.2494C304.732 44.2494 302.599 45.0842 300.93 46.7538C299.322 48.3615 298.518 50.8349 298.518 54.1741Z" fill="#111111"/>
<path d="M254.285 79.867C250.203 79.867 246.524 78.8467 243.247 76.8061C239.97 74.7655 237.403 71.9829 235.548 68.4582C233.693 64.9335 232.766 60.976 232.766 56.5857C232.766 52.1335 233.693 48.1451 235.548 44.6204C237.403 41.0958 239.97 38.3131 243.247 36.2726C246.524 34.232 250.203 33.2117 254.285 33.2117C257.5 33.2117 260.375 33.8609 262.911 35.1595C265.446 36.4581 267.456 38.2822 268.94 40.632C270.486 42.9199 271.32 45.517 271.444 48.4233V64.5625C271.32 67.5307 270.486 70.1587 268.94 72.4466C267.456 74.7346 265.446 76.5587 262.911 77.9191C260.375 79.2177 257.5 79.867 254.285 79.867ZM256.511 68.6437C259.912 68.6437 262.663 67.5307 264.766 65.3046C266.868 63.0166 267.919 60.0794 267.919 56.4929C267.919 54.1432 267.425 52.0717 266.435 50.2784C265.508 48.4233 264.178 47.0011 262.447 46.0117C260.777 44.9605 258.799 44.4349 256.511 44.4349C254.285 44.4349 252.306 44.9605 250.574 46.0117C248.905 47.0011 247.575 48.4233 246.586 50.2784C245.658 52.0717 245.195 54.1432 245.195 56.4929C245.195 58.9045 245.658 61.0379 246.586 62.893C247.575 64.6862 248.905 66.1084 250.574 67.1596C252.306 68.149 254.285 68.6437 256.511 68.6437ZM267.27 78.9394V66.8814L269.218 55.9364L267.27 45.1769V34.1392H279.328V78.9394H267.27Z" fill="#111111"/>
<path d="M209.587 79.867C206.371 79.867 203.465 79.2177 200.868 77.9191C198.271 76.5587 196.199 74.7346 194.653 72.4466C193.107 70.1587 192.273 67.5307 192.149 64.5625V48.7016C192.273 45.7335 193.107 43.1054 194.653 40.8175C196.261 38.4677 198.332 36.6127 200.868 35.2523C203.465 33.8919 206.371 33.2117 209.587 33.2117C213.73 33.2117 217.44 34.232 220.717 36.2726C223.994 38.3131 226.561 41.0958 228.416 44.6204C230.333 48.1451 231.291 52.1335 231.291 56.5857C231.291 60.976 230.333 64.9335 228.416 68.4582C226.561 71.9829 223.994 74.7655 220.717 76.8061C217.44 78.8466 213.73 79.867 209.587 79.867ZM184.729 97.6757V34.1392H196.879V45.919L194.839 56.7712L196.787 67.6234V97.6757H184.729ZM207.453 68.6437C209.679 68.6437 211.658 68.149 213.39 67.1596C215.121 66.1084 216.45 64.6862 217.378 62.893C218.367 61.0379 218.862 58.9045 218.862 56.4929C218.862 54.1432 218.367 52.0717 217.378 50.2784C216.45 48.4233 215.121 47.0011 213.39 46.0117C211.658 44.9605 209.679 44.4349 207.453 44.4349C205.289 44.4349 203.341 44.9605 201.61 46.0117C199.878 47.0011 198.518 48.4233 197.529 50.2784C196.601 52.0717 196.137 54.1432 196.137 56.4929C196.137 58.9045 196.601 61.0379 197.529 62.893C198.518 64.6862 199.847 66.1084 201.517 67.1596C203.248 68.149 205.227 68.6437 207.453 68.6437Z" fill="#111111"/>
<path d="M155.851 79.8671C150.595 79.8671 146.081 78.9704 142.309 77.1772C138.599 75.3839 135.229 72.6941 132.199 69.1076L140.547 60.7597C142.464 63.295 144.69 65.2738 147.225 66.696C149.761 68.0564 152.852 68.7366 156.501 68.7366C159.778 68.7366 162.375 68.0873 164.292 66.7887C166.271 65.4902 167.26 63.6969 167.26 61.409C167.26 59.4303 166.704 57.8225 165.591 56.5858C164.478 55.3491 162.994 54.2979 161.138 53.4322C159.345 52.5665 157.336 51.7935 155.109 51.1133C152.945 50.3713 150.75 49.5365 148.524 48.6089C146.36 47.6814 144.35 46.5374 142.495 45.177C140.702 43.7548 139.249 41.9616 138.135 39.7973C137.022 37.5712 136.466 34.7886 136.466 31.4495C136.466 27.4919 137.424 24.1219 139.341 21.3393C141.258 18.5566 143.886 16.4233 147.225 14.9392C150.565 13.4552 154.337 12.7131 158.541 12.7131C162.994 12.7131 167.013 13.5479 170.599 15.2175C174.186 16.8871 177.123 19.0513 179.411 21.7103L171.063 30.0581C169.146 27.9557 167.167 26.4098 165.127 25.4204C163.148 24.4311 160.891 23.9364 158.356 23.9364C155.45 23.9364 153.162 24.4929 151.492 25.6059C149.822 26.719 148.988 28.3267 148.988 30.4292C148.988 32.2224 149.544 33.6756 150.657 34.7886C151.77 35.9016 153.223 36.8601 155.017 37.664C156.872 38.4678 158.881 39.2408 161.046 39.9828C163.272 40.7249 165.467 41.5596 167.631 42.4872C169.857 43.4147 171.867 44.6205 173.66 46.1046C175.515 47.5887 176.999 49.5056 178.112 51.8553C179.226 54.1433 179.782 56.9877 179.782 60.3887C179.782 66.4486 177.649 71.21 173.382 74.6728C169.115 78.1357 163.272 79.8671 155.851 79.8671Z" fill="#111111"/>
</svg>
