<svg width="119" height="26" viewBox="0 0 119 26" fill="none" xmlns="http://www.w3.org/2000/svg">
<path d="M14.4025 10.4209C14.4169 10.4209 14.4309 10.4224 14.4446 10.4247C14.5257 10.4297 14.6028 10.4739 14.6464 10.5494L21.7101 22.7827C21.7793 22.9025 21.7383 23.0557 21.6185 23.1249L17.5493 25.4739C17.4295 25.543 17.2763 25.5021 17.2071 25.3823L13.084 18.2417L8.96147 25.3813C8.8923 25.5011 8.73907 25.5422 8.61926 25.473L4.55008 23.1239C4.43032 23.0548 4.38931 22.9016 4.45848 22.7818L8.47189 15.8313H0.250479C0.112146 15.8313 4.21093e-06 15.7191 0 15.5808V10.6714C9.13762e-06 10.533 0.112149 10.4209 0.250479 10.4209H14.4025Z" fill="#6A60FF"/>
<path d="M8.75104 0.526736C8.87084 0.457597 9.02408 0.498675 9.09324 0.618465L13.2164 7.75897L17.3392 0.618587C17.4084 0.49879 17.5616 0.457697 17.6814 0.526859L21.7506 2.87596C21.8703 2.94514 21.9114 3.09829 21.8422 3.21805L17.7244 10.3497H26.05C26.1883 10.3498 26.3005 10.4619 26.3005 10.6002V15.2983C26.3004 15.4366 26.1883 15.5488 26.05 15.5488H18.6469L15.223 9.6191C15.2119 9.59992 15.1995 9.5818 15.1864 9.56467C15.0957 9.43669 14.9465 9.35298 14.7777 9.35296H8.13267L4.59025 3.21792C4.52109 3.09814 4.56209 2.94502 4.68185 2.87584L8.75104 0.526736Z" fill="white"/>
<path d="M110.984 20.1508V4.77004H113.892V20.1508H110.984ZM108.476 11.8758V9.28982H116.4V11.8758H108.476Z" fill="white"/>
<path d="M104.79 20.1508V9.28982H107.72V20.1508H104.79ZM106.255 7.53588C105.782 7.53588 105.39 7.37847 105.079 7.06366C104.768 6.73386 104.613 6.3291 104.613 5.84939C104.613 5.38467 104.768 4.98741 105.079 4.65761C105.39 4.32781 105.782 4.16291 106.255 4.16291C106.743 4.16291 107.136 4.32781 107.432 4.65761C107.742 4.98741 107.898 5.38467 107.898 5.84939C107.898 6.3291 107.742 6.73386 107.432 7.06366C107.136 7.37847 106.743 7.53588 106.255 7.53588Z" fill="white"/>
<path d="M94.2061 20.1508V17.6548H98.2679C98.9929 17.6548 99.5552 17.4299 99.9547 16.9802C100.369 16.5305 100.576 15.9983 100.576 15.3837C100.576 14.9639 100.487 14.5816 100.31 14.2369C100.132 13.8921 99.866 13.6222 99.5108 13.4273C99.1705 13.2175 98.7562 13.1125 98.2679 13.1125H94.2061V10.639H97.9349C98.5564 10.639 99.0521 10.4816 99.4221 10.1668C99.8068 9.85199 99.9991 9.37977 99.9991 8.75015C99.9991 8.10554 99.8068 7.62582 99.4221 7.31101C99.0521 6.9962 98.5564 6.8388 97.9349 6.8388H94.2061V4.3428H98.2901C99.3259 4.3428 100.191 4.53768 100.887 4.92744C101.597 5.30222 102.13 5.80442 102.485 6.43404C102.84 7.04867 103.018 7.72326 103.018 8.45782C103.018 9.35728 102.744 10.1368 102.197 10.7964C101.664 11.441 100.88 11.9207 99.8438 12.2356L99.9769 11.2461C101.131 11.5759 102.019 12.1231 102.64 12.8877C103.277 13.6372 103.595 14.5442 103.595 15.6085C103.595 16.448 103.388 17.2126 102.973 17.9021C102.574 18.5767 101.982 19.1239 101.198 19.5437C100.428 19.9484 99.4886 20.1508 98.3789 20.1508H94.2061ZM91.9865 20.1508V4.3428H94.9829V20.1508H91.9865Z" fill="white"/>
<path d="M87.6735 20.1508L83.5229 14.5517L87.6513 9.28982H91.0028L86.1642 15.2263L86.2751 13.7871L91.2248 20.1508H87.6735ZM80.8372 20.1508V3.89307H83.7448V20.1508H80.8372Z" fill="white"/>
<path d="M72.4913 20.1508V9.28982H75.3989V20.1508H72.4913ZM75.3989 14.1469L74.267 13.3824C74.4001 12.0482 74.7849 10.9988 75.4211 10.2343C76.0574 9.45472 76.9748 9.06496 78.1734 9.06496C78.6913 9.06496 79.1574 9.1549 79.5717 9.3348C79.986 9.4997 80.3634 9.77703 80.7037 10.1668L78.8837 12.2805C78.7209 12.1006 78.5211 11.9657 78.2844 11.8758C78.0624 11.7858 77.8035 11.7409 77.5075 11.7409C76.886 11.7409 76.3755 11.9432 75.976 12.348C75.5913 12.7378 75.3989 13.3374 75.3989 14.1469Z" fill="white"/>
<path d="M64.8141 20.3757C63.8375 20.3757 62.957 20.1283 62.1728 19.6336C61.3885 19.1389 60.7745 18.4643 60.3305 17.6098C59.8866 16.7553 59.6647 15.7959 59.6647 14.7316C59.6647 13.6522 59.8866 12.6853 60.3305 11.8308C60.7745 10.9763 61.3885 10.3017 62.1728 9.80701C62.957 9.31231 63.8375 9.06496 64.8141 9.06496C65.5835 9.06496 66.2716 9.22236 66.8783 9.53717C67.4849 9.85199 67.9658 10.2942 68.321 10.8639C68.6909 11.4185 68.8907 12.0482 68.9202 12.7527V16.6654C68.8907 17.385 68.6909 18.0221 68.321 18.5767C67.9658 19.1314 67.4849 19.5736 66.8783 19.9034C66.2716 20.2183 65.5835 20.3757 64.8141 20.3757ZM65.3468 17.6548C66.1606 17.6548 66.8191 17.385 67.3222 16.8453C67.8253 16.2906 68.0768 15.5785 68.0768 14.7091C68.0768 14.1394 67.9584 13.6372 67.7217 13.2025C67.4997 12.7527 67.1816 12.4079 66.7673 12.1681C66.3678 11.9132 65.8942 11.7858 65.3468 11.7858C64.8141 11.7858 64.3406 11.9132 63.9262 12.1681C63.5267 12.4079 63.2086 12.7527 62.9718 13.2025C62.7499 13.6372 62.6389 14.1394 62.6389 14.7091C62.6389 15.2937 62.7499 15.8109 62.9718 16.2606C63.2086 16.6954 63.5267 17.0402 63.9262 17.295C64.3406 17.5349 64.8141 17.6548 65.3468 17.6548ZM67.9214 20.1508V17.2276L68.3876 14.5741L67.9214 11.9657V9.28982H70.8069V20.1508H67.9214Z" fill="white"/>
<path d="M54.1182 20.3757C53.3488 20.3757 52.6533 20.2183 52.0318 19.9034C51.4103 19.5736 50.9146 19.1314 50.5447 18.5767C50.1748 18.0221 49.975 17.385 49.9454 16.6654V12.8202C49.975 12.1006 50.1748 11.4635 50.5447 10.9089C50.9294 10.3392 51.4251 9.88946 52.0318 9.55966C52.6533 9.22986 53.3488 9.06496 54.1182 9.06496C55.1096 9.06496 55.9974 9.31231 56.7817 9.80701C57.5659 10.3017 58.18 10.9763 58.6239 11.8308C59.0826 12.6853 59.312 13.6522 59.312 14.7316C59.312 15.7959 59.0826 16.7553 58.6239 17.6098C58.18 18.4643 57.5659 19.1389 56.7817 19.6336C55.9974 20.1283 55.1096 20.3757 54.1182 20.3757ZM48.1698 24.6931V9.28982H51.0774V12.1456L50.5891 14.7765L51.0552 17.4074V24.6931H48.1698ZM53.6077 17.6548C54.1404 17.6548 54.6139 17.5349 55.0282 17.295C55.4425 17.0402 55.7607 16.6954 55.9826 16.2606C56.2194 15.8109 56.3378 15.2937 56.3378 14.7091C56.3378 14.1394 56.2194 13.6372 55.9826 13.2025C55.7607 12.7527 55.4425 12.4079 55.0282 12.1681C54.6139 11.9132 54.1404 11.7858 53.6077 11.7858C53.0898 11.7858 52.6237 11.9132 52.2094 12.1681C51.7951 12.4079 51.4695 12.7527 51.2328 13.2025C51.0108 13.6372 50.8998 14.1394 50.8998 14.7091C50.8998 15.2937 51.0108 15.8109 51.2328 16.2606C51.4695 16.6954 51.7877 17.0402 52.1872 17.295C52.6015 17.5349 53.075 17.6548 53.6077 17.6548Z" fill="white"/>
<path d="M41.2595 20.3757C40.0017 20.3757 38.9216 20.1583 38.0189 19.7236C37.1311 19.2888 36.3247 18.6367 35.5996 17.7672L37.5972 15.7434C38.0559 16.3581 38.5886 16.8378 39.1953 17.1826C39.802 17.5124 40.5418 17.6773 41.4149 17.6773C42.1991 17.6773 42.8206 17.5199 43.2793 17.2051C43.7528 16.8903 43.9896 16.4555 43.9896 15.9009C43.9896 15.4211 43.8564 15.0314 43.59 14.7316C43.3237 14.4317 42.9686 14.1769 42.5246 13.967C42.0955 13.7571 41.6146 13.5698 41.0819 13.4049C40.564 13.225 40.0387 13.0226 39.506 12.7977C38.9881 12.5729 38.5072 12.2955 38.0633 11.9657C37.6342 11.6209 37.2865 11.1862 37.0201 10.6615C36.7538 10.1218 36.6206 9.44723 36.6206 8.63772C36.6206 7.67829 36.85 6.86128 37.3087 6.18669C37.7674 5.5121 38.3963 4.99491 39.1953 4.63512C39.9943 4.27534 40.897 4.09545 41.9032 4.09545C42.9686 4.09545 43.9304 4.29783 44.7886 4.70258C45.6468 5.10734 46.3497 5.63202 46.8972 6.27664L44.8996 8.30042C44.4409 7.79073 43.9674 7.41595 43.4791 7.1761C43.0055 6.93624 42.4655 6.81631 41.8588 6.81631C41.1633 6.81631 40.6158 6.95123 40.2163 7.22107C39.8168 7.49091 39.617 7.88067 39.617 8.39037C39.617 8.82511 39.7502 9.17739 40.0165 9.44723C40.2829 9.71707 40.6306 9.94943 41.0597 10.1443C41.5036 10.3392 41.9845 10.5266 42.5024 10.7065C43.0351 10.8864 43.5604 11.0887 44.0783 11.3136C44.611 11.5385 45.0919 11.8308 45.521 12.1906C45.965 12.5504 46.3201 13.0151 46.5864 13.5847C46.8528 14.1394 46.986 14.829 46.986 15.6535C46.986 17.1226 46.4755 18.2769 45.4545 19.1164C44.4335 19.9559 43.0351 20.3757 41.2595 20.3757Z" fill="white"/>
</svg>
