<svg width="7" height="5" viewBox="0 0 7 5" fill="none" xmlns="http://www.w3.org/2000/svg">
    <path d="M3.60469 0.839819C3.54144 0.776406 3.4663 0.726096 3.38357 0.691768C3.30085 0.65744 3.21216 0.639771 3.12259 0.639771C3.03303 0.639771 2.94434 0.65744 2.86162 0.691768C2.77889 0.726096 2.70375 0.776406 2.6405 0.839819L0.200049 3.28027C0.104656 3.37542 0.0396354 3.49673 0.0132175 3.62885C-0.0132005 3.76097 0.000171401 3.89796 0.0516407 4.02248C0.10311 4.147 0.190363 4.25345 0.302356 4.32836C0.414349 4.40326 0.546048 4.44326 0.680784 4.44329H5.5644C5.69914 4.44326 5.83084 4.40326 5.94283 4.32836C6.05483 4.25345 6.14208 4.147 6.19355 4.02248C6.24502 3.89796 6.25839 3.76097 6.23197 3.62885C6.20555 3.49673 6.14053 3.37542 6.04514 3.28027L3.60469 0.839819Z" fill="#0BBA74"/>
</svg>
