<svg width="16" height="17" viewBox="0 0 16 17" fill="none" xmlns="http://www.w3.org/2000/svg">
    <path d="M7.60873 11.6556C7.73179 11.6007 7.86503 11.5724 7.99977 11.5724C8.13451 11.5724 8.26775 11.6007 8.39081 11.6556L11.0084 12.8227L10.7076 9.97242C10.6934 9.83847 10.7075 9.70303 10.7491 9.57491C10.7907 9.44678 10.8587 9.32884 10.9489 9.22874L12.8679 7.09978L10.0641 6.50522C9.9323 6.4773 9.80786 6.42196 9.69886 6.34279C9.58987 6.26362 9.49876 6.1624 9.43145 6.0457L7.99977 3.5625L6.56809 6.0457C6.50078 6.1624 6.40967 6.26362 6.30067 6.34279C6.19168 6.42196 6.06724 6.4773 5.93545 6.50522L3.13161 7.09978L5.05065 9.22874C5.14085 9.32881 5.20897 9.44674 5.2506 9.57487C5.29222 9.703 5.30641 9.83845 5.29225 9.97242L4.99113 12.8227L7.60873 11.6556ZM5.00553 14.2175C4.85155 14.2862 4.6822 14.3131 4.51452 14.2955C4.34685 14.2779 4.18676 14.2165 4.05036 14.1174C3.91397 14.0183 3.80607 13.885 3.73753 13.731C3.66899 13.577 3.64223 13.4076 3.65993 13.2399L4.00425 9.97946L1.80905 7.54426C1.69611 7.41901 1.61816 7.26622 1.58305 7.10127C1.54794 6.93632 1.5569 6.76502 1.60903 6.60463C1.66116 6.44424 1.75463 6.30042 1.88002 6.18764C2.00541 6.07485 2.15829 5.99709 2.32329 5.96218L5.53033 5.2825L7.16809 2.44218C7.25231 2.29611 7.37351 2.17479 7.51951 2.09043C7.66551 2.00608 7.83115 1.96167 7.99977 1.96167C8.16839 1.96167 8.33403 2.00608 8.48003 2.09043C8.62603 2.17479 8.74723 2.29611 8.83145 2.44218L10.4692 5.2825L13.6762 5.96218C13.8412 5.99709 13.9941 6.07485 14.1195 6.18764C14.2449 6.30042 14.3384 6.44424 14.3905 6.60463C14.4426 6.76502 14.4516 6.93632 14.4165 7.10127C14.3814 7.26622 14.3034 7.41901 14.1905 7.54426L11.9953 9.97946L12.3396 13.2399C12.3573 13.4076 12.3305 13.577 12.262 13.731C12.1935 13.885 12.0856 14.0183 11.9492 14.1174C11.8128 14.2165 11.6527 14.2779 11.485 14.2955C11.3173 14.3131 11.148 14.2862 10.994 14.2175L7.99977 12.8828L5.00553 14.2175Z" fill="#FF8A00"/>
</svg>
