<svg width="11" height="7" viewBox="0 0 11 7" fill="none" xmlns="http://www.w3.org/2000/svg">
    <path d="M0.460925 0.613276C0.617615 0.461941 0.829906 0.376953 1.05123 0.376953C1.27256 0.376953 1.48485 0.461941 1.64154 0.613276L5.2304 4.08686L8.81925 0.613276C8.97825 0.473799 9.18656 0.398859 9.40105 0.403972C9.61554 0.409085 9.81979 0.493859 9.9715 0.640742C10.1232 0.787626 10.2108 0.985369 10.2161 1.19303C10.2213 1.40069 10.1439 1.60237 9.99987 1.7563L5.2304 6.37695L0.460925 1.75731C0.304294 1.60557 0.216309 1.39982 0.216309 1.18529C0.216309 0.970767 0.304294 0.765019 0.460925 0.613276Z" fill="#87909F"/>
</svg>
