<svg width="18" height="18" viewBox="0 0 18 18" fill="none" xmlns="http://www.w3.org/2000/svg">
<path d="M0.9 0H7.515C8.01205 0 8.415 0.402953 8.415 0.9V7.515C8.415 8.01205 8.01205 8.415 7.515 8.415H0.9C0.402953 8.415 0 8.01205 0 7.515V0.9C0 0.402953 0.402953 0 0.9 0ZM13.7925 0C11.4688 0 9.585 1.88377 9.585 4.2075C9.585 6.53123 11.4688 8.415 13.7925 8.415C16.1162 8.415 18 6.53123 18 4.2075C18 1.88377 16.1162 0 13.7925 0ZM0.9 18H7.515C8.01205 18 8.415 17.597 8.415 17.1V10.485C8.415 9.98795 8.01205 9.585 7.515 9.585H0.9C0.402953 9.585 0 9.98795 0 10.485V17.1C0 17.597 0.402953 18 0.9 18ZM17.1 18H10.485C9.98795 18 9.585 17.597 9.585 17.1V10.485C9.585 9.98795 9.98795 9.585 10.485 9.585H17.1C17.597 9.585 18 9.98795 18 10.485V17.1C18 17.597 17.597 18 17.1 18Z" fill="#6A67FF"/>
</svg>
